<?xml version="1.0" encoding="UTF-8" standalone="no"?>
<!-- Created with Inkscape (http://www.inkscape.org/) -->

<svg
   width="54.121799mm"
   height="64.570229mm"
   viewBox="0 0 54.121799 64.570229"
   version="1.1"
   id="svg1"
   xml:space="preserve"
   inkscape:version="1.3.2 (091e20e, 2023-11-25, custom)"
   sodipodi:docname="leetcode.svg"
   xmlns:inkscape="http://www.inkscape.org/namespaces/inkscape"
   xmlns:sodipodi="http://sodipodi.sourceforge.net/DTD/sodipodi-0.dtd"
   xmlns="http://www.w3.org/2000/svg"
   xmlns:svg="http://www.w3.org/2000/svg"><sodipodi:namedview
     id="namedview1"
     pagecolor="#ffffff"
     bordercolor="#000000"
     borderopacity="0.25"
     inkscape:showpageshadow="2"
     inkscape:pageopacity="0.0"
     inkscape:pagecheckerboard="0"
     inkscape:deskcolor="#d1d1d1"
     inkscape:document-units="mm"
     inkscape:zoom="0.44631734"
     inkscape:cx="115.38875"
     inkscape:cy="122.11042"
     inkscape:window-width="1366"
     inkscape:window-height="697"
     inkscape:window-x="-8"
     inkscape:window-y="-8"
     inkscape:window-maximized="1"
     inkscape:current-layer="layer1" /><defs
     id="defs1" /><g
     inkscape:label="Layer 1"
     inkscape:groupmode="layer"
     id="layer1"
     transform="translate(-74.62611,-116.20333)"><g
       id="g1"
       transform="translate(-3.5568858)"
       style="fill:#0000ff"><path
         style="fill:#0000ff;fill-opacity:1"
         d="m 115.01413,176.28125 c 0.49366,-0.50932 0.95709,-0.92604 1.02985,-0.92604 0.0728,0 -0.27161,0.41672 -0.76527,0.92604 -0.49365,0.50933 -0.95708,0.92604 -1.02984,0.92604 -0.0728,0 0.27161,-0.41671 0.76526,-0.92604 z m -4.7625,-6.05302 c 0,-0.0549 0.20836,-0.2633 0.46302,-0.46302 0.41965,-0.32911 0.429,-0.31975 0.0999,0.0999 -0.34565,0.44073 -0.56292,0.58088 -0.56292,0.36312 z m -2.05052,-11.74002 c 3.89268,-0.0412 10.26253,-0.0412 14.15521,0 3.89268,0.0412 0.70776,0.075 -7.07761,0.075 -7.78536,0 -10.97028,-0.0337 -7.0776,-0.075 z m 10.46758,-12.41791 c 0.19099,-0.0764 0.4192,-0.067 0.50712,0.0209 0.0879,0.0879 -0.0683,0.15046 -0.34727,0.13897 -0.30822,-0.0127 -0.37092,-0.0754 -0.15985,-0.15986 z m -28.657683,-9.87342 c 4.509385,-4.51115 8.258414,-8.20208 8.331174,-8.20208 0.07276,0 -3.557205,3.69093 -8.066591,8.20208 -4.509385,4.51114 -8.258413,8.20208 -8.331174,8.20208 -0.07276,0 3.557206,-3.69094 8.066591,-8.20208 z m 24.845693,7.60677 -0.50403,-0.59531 0.59532,0.50403 c 0.55944,0.47366 0.71576,0.68659 0.50402,0.68659 -0.0502,0 -0.31809,-0.26789 -0.59531,-0.59531 z m -17.305068,-4.29948 c 0.493655,-0.50932 0.957086,-0.92604 1.029846,-0.92604 0.07276,0 -0.271608,0.41672 -0.765263,0.92604 -0.493655,0.50932 -0.957086,0.92604 -1.029846,0.92604 -0.07276,0 0.271608,-0.41672 0.765263,-0.92604 z m 1.455208,-12.30312 c 0.263389,-0.29105 0.538421,-0.52917 0.611181,-0.52917 0.07276,0 -0.08321,0.23812 -0.346598,0.52917 -0.263389,0.29104 -0.53842,0.52916 -0.61118,0.52916 -0.07276,0 0.08321,-0.23812 0.346597,-0.52916 z m 1.19063,-1.15823 c 0,-0.0549 0.20835,-0.2633 0.46302,-0.46302 0.41964,-0.32911 0.429,-0.31975 0.0999,0.0999 -0.34564,0.44073 -0.56291,0.58089 -0.56291,0.36313 z"
         id="path8" /><path
         style="fill:#0000ff;fill-opacity:1"
         d="m 109.45788,171.02198 c 0,-0.0549 0.20836,-0.2633 0.46302,-0.46302 0.41965,-0.32911 0.429,-0.31975 0.0999,0.0999 -0.34565,0.44073 -0.56292,0.58088 -0.56292,0.36312 z M 95.699549,141.35625 c 0.493655,-0.50932 0.957086,-0.92604 1.029846,-0.92604 0.07276,0 -0.271608,0.41672 -0.765263,0.92604 -0.493655,0.50933 -0.957086,0.92605 -1.029847,0.92605 -0.07276,0 0.271608,-0.41672 0.765264,-0.92605 z m 18.388541,-18.65312 c 0.26339,-0.29104 0.53842,-0.52917 0.61118,-0.52917 0.0728,0 -0.0832,0.23813 -0.3466,0.52917 -0.26339,0.29104 -0.53842,0.52917 -0.61118,0.52917 -0.0728,0 0.0832,-0.23813 0.3466,-0.52917 z"
         id="path7" /><path
         style="fill:#0000ff;fill-opacity:1"
         d="m 93.847465,143.20834 c 0.493655,-0.50933 0.957086,-0.92604 1.029847,-0.92604 0.07276,0 -0.271608,0.41671 -0.765263,0.92604 -0.493656,0.50932 -0.957087,0.92604 -1.029847,0.92604 -0.07276,0 0.271608,-0.41672 0.765263,-0.92604 z m 19.545415,-0.8599 c -0.3291,-0.41964 -0.31975,-0.429 0.0999,-0.0999 0.44073,0.34564 0.58088,0.56291 0.36312,0.56291 -0.0549,0 -0.2633,-0.20836 -0.46302,-0.46302 z m 7.03276,-3.57187 -1.04588,-1.12448 1.12448,1.04588 c 1.04575,0.97266 1.24606,1.20308 1.04588,1.20308 -0.0432,0 -0.54924,-0.50602 -1.12448,-1.12448 z m -7.52818,-14.88282 c 0.34178,-0.3638 0.68094,-0.66145 0.7537,-0.66145 0.0728,0 -0.14734,0.29765 -0.48911,0.66145 -0.34178,0.36381 -0.68094,0.66146 -0.7537,0.66146 -0.0728,0 0.14734,-0.29765 0.48911,-0.66146 z"
         id="path6" /><path
         style="fill:#0000ff;fill-opacity:1"
         d="m 98.101687,154.82795 c 0.0127,-0.30822 0.07539,-0.37091 0.159852,-0.15985 0.07643,0.191 0.06703,0.4192 -0.02089,0.50712 -0.08792,0.0879 -0.150453,-0.0684 -0.138964,-0.34727 z m -6.635472,-9.18886 c 0,-0.0455 0.386953,-0.43249 0.859896,-0.8599 l 0.859896,-0.7771 -0.777105,0.85989 c -0.724372,0.80155 -0.942687,0.98152 -0.942687,0.77711 z m 26.722915,-9.04534 c -0.64268,-0.65484 -1.10898,-1.19062 -1.03622,-1.19062 0.0728,0 0.65812,0.53578 1.3008,1.19062 0.64269,0.65485 1.10898,1.19063 1.03622,1.19063 -0.0728,0 -0.65812,-0.53578 -1.3008,-1.19063 z m -6.87917,-11.1125 c 0.49366,-0.50932 0.95709,-0.92604 1.02985,-0.92604 0.0728,0 -0.27161,0.41672 -0.76526,0.92604 -0.49366,0.50933 -0.95709,0.92605 -1.02985,0.92605 -0.0728,0 0.27161,-0.41672 0.76526,-0.92605 z"
         id="path5" /><path
         style="fill:#0000ff;fill-opacity:1"
         d="m 103.32286,173.32239 c 0.19099,-0.0764 0.41919,-0.067 0.50711,0.0209 0.0879,0.0879 -0.0684,0.15045 -0.34726,0.13896 -0.30823,-0.0127 -0.37092,-0.0754 -0.15985,-0.15985 z m 11.69127,-7.59207 c 0,-0.055 0.20836,-0.2633 0.46302,-0.46302 0.41965,-0.32911 0.429,-0.31975 0.0999,0.0999 -0.34565,0.44073 -0.56292,0.58089 -0.56292,0.36313 z M 85.422575,154.71771 c 0,-0.3638 0.06005,-0.51263 0.133452,-0.33073 0.0734,0.1819 0.0734,0.47956 0,0.66146 -0.0734,0.1819 -0.133452,0.0331 -0.133452,-0.33073 z m 4.853015,-7.9375 c 0.568389,-0.58208 1.092966,-1.05833 1.165727,-1.05833 0.07276,0 -0.332754,0.47625 -0.901143,1.05833 -0.56839,0.58209 -1.092966,1.05834 -1.165727,1.05834 -0.07276,0 0.332754,-0.47625 0.901143,-1.05834 z m 21.67069,-5.88698 -0.50402,-0.59531 0.59531,0.50403 c 0.55945,0.47366 0.71576,0.6866 0.50403,0.6866 -0.0502,0 -0.3181,-0.26789 -0.59532,-0.59532 z m 3.45644,-7.14375 -1.57921,-1.65364 1.65364,1.57922 c 0.90951,0.86857 1.65365,1.61271 1.65365,1.65364 0,0.1955 -0.26112,-0.0431 -1.72808,-1.57922 z m -7.53234,-4.59605 c 0,-0.13887 0.62508,-0.84332 1.38906,-1.56545 l 1.38907,-1.31298 -1.32292,1.44962 c -0.7276,0.79729 -1.35268,1.50174 -1.38906,1.56545 -0.0364,0.0637 -0.0662,0.002 -0.0662,-0.13664 z"
         id="path4" /><path
         style="fill:#0000ff;fill-opacity:1"
         d="m 87.762049,149.34325 c 0,-0.0455 0.386953,-0.43248 0.859895,-0.85989 l 0.859896,-0.77711 -0.777105,0.8599 c -0.724371,0.80154 -0.942686,0.98151 -0.942686,0.7771 z"
         id="path3" /><path
         style="fill:#0000ff;fill-opacity:1"
         d="m 89.329523,172.51094 -0.641433,-0.7276 0.727604,0.64143 c 0.680056,0.59952 0.848939,0.81377 0.641434,0.81377 -0.0474,0 -0.374816,-0.32742 -0.727605,-0.7276 z m -1.601223,-1.5875 c -0.329108,-0.41964 -0.319749,-0.429 0.09989,-0.0999 0.254662,0.19971 0.463021,0.40807 0.463021,0.46302 0,0.21776 -0.217272,0.0776 -0.562915,-0.36313 z m -1.5875,-1.5875 c -0.329108,-0.41964 -0.319749,-0.429 0.0999,-0.0999 0.254661,0.19971 0.46302,0.40807 0.46302,0.46302 0,0.21776 -0.217272,0.0776 -0.562915,-0.36313 z m -2.619728,-2.64583 -1.712148,-1.78594 1.785937,1.71215 c 0.982266,0.94168 1.785938,1.74535 1.785938,1.78594 0,0.19473 -0.269411,-0.0533 -1.859727,-1.71215 z"
         id="path2" /><path
         style="fill:#0000ff;fill-opacity:1"
         d="m 101.66517,180.6255 c -4.607881,-0.69507 -5.489329,-1.31655 -13.836369,-9.75554 -6.385359,-6.4557 -7.312071,-7.50038 -8.108615,-9.14079 -1.191953,-2.45472 -1.559606,-4.19012 -1.536146,-7.25093 0.02291,-2.9885 0.611972,-5.16071 2.061676,-7.60255 1.4102,-2.37529 29.508434,-30.38701 30.702614,-30.60809 2.86691,-0.53073 5.35003,2.32551 4.24303,4.88059 -0.21291,0.49142 -1.94723,2.43958 -3.85404,4.32925 -1.90682,1.88967 -3.46694,3.52678 -3.46694,3.63802 0,0.11124 0.21172,0.20225 0.47049,0.20225 0.25876,0 1.36009,0.42567 2.44739,0.94594 1.72453,0.82517 2.54535,1.50918 6.42946,5.35781 2.44889,2.42653 4.62179,4.73339 4.82864,5.12634 1.40543,2.66984 -1.10859,5.76819 -4.14008,5.10236 -0.61371,-0.1348 -2.08297,-1.36645 -5.23148,-4.38544 -2.40795,-2.30891 -4.80144,-4.40896 -5.31886,-4.66678 -1.43394,-0.71451 -5.34643,-0.65143 -6.7616,0.10901 -0.58208,0.31278 -3.942013,3.47242 -7.466511,7.02141 -7.266636,7.31715 -7.599961,7.79846 -7.563682,10.92164 0.01288,1.10845 0.202472,2.27702 0.472205,2.91042 0.308586,0.72464 2.589573,3.2069 7.234262,7.87263 7.514986,7.54903 7.790706,7.7446 10.895606,7.72832 2.73037,-0.0143 3.50245,-0.41957 6.74337,-3.53959 6.57786,-6.33247 6.29457,-6.10835 7.71966,-6.10725 3.22083,0.002 4.90399,3.17245 3.03398,5.714 -1.23641,1.68043 -8.53376,8.6752 -9.8241,9.41675 -2.63896,1.51659 -6.93652,2.26857 -10.17396,1.78022 z m -1.6533,-22.72208 c -2.276236,-1.3879 -2.175411,-5.00749 0.17332,-6.22207 0.70885,-0.36656 2.55478,-0.40755 15.4726,-0.34357 l 14.66773,0.0726 0.81519,0.78115 c 1.90839,1.82868 1.38717,5.09119 -0.95567,5.98193 -0.37804,0.14373 -6.69346,0.24796 -14.9897,0.24739 -13.75238,-9.5e-4 -14.37092,-0.022 -15.18347,-0.51747 z"
         id="path1" /></g></g></svg>
