<?xml version="1.0" encoding="UTF-8" standalone="no"?>
<!-- Created with Inkscape (http://www.inkscape.org/) -->

<svg
   width="154.50305mm"
   height="160.38293mm"
   viewBox="0 0 154.50305 160.38293"
   version="1.1"
   id="svg1"
   xml:space="preserve"
   inkscape:version="1.3.2 (091e20e, 2023-11-25, custom)"
   sodipodi:docname="c.svg"
   xmlns:inkscape="http://www.inkscape.org/namespaces/inkscape"
   xmlns:sodipodi="http://sodipodi.sourceforge.net/DTD/sodipodi-0.dtd"
   xmlns="http://www.w3.org/2000/svg"
   xmlns:svg="http://www.w3.org/2000/svg"><sodipodi:namedview
     id="namedview1"
     pagecolor="#ffffff"
     bordercolor="#000000"
     borderopacity="0.25"
     inkscape:showpageshadow="2"
     inkscape:pageopacity="0.0"
     inkscape:pagecheckerboard="0"
     inkscape:deskcolor="#d1d1d1"
     inkscape:document-units="mm"
     inkscape:zoom="0.44631734"
     inkscape:cx="184.84606"
     inkscape:cy="193.80829"
     inkscape:window-width="1366"
     inkscape:window-height="697"
     inkscape:window-x="-8"
     inkscape:window-y="-8"
     inkscape:window-maximized="1"
     inkscape:current-layer="layer1" /><defs
     id="defs1" /><g
     inkscape:label="Layer 1"
     inkscape:groupmode="layer"
     id="layer1"
     transform="translate(-56.175172,-2.1104843)"><g
       id="g1"
       transform="matrix(3.273117,0,0,3.0903545,-211.12782,-376.30901)"
       style="opacity:0.652893;fill:#0000ff"><path
         style="fill:#0000ff;fill-opacity:1"
         d="m 128.76212,148.50001 c 6e-5,-6.69396 0.0344,-9.39447 0.0763,-6.00113 0.0419,3.39334 0.0419,8.87021 -1e-4,12.17083 -0.042,3.30062 -0.0762,0.52426 -0.0762,-6.1697 z m -47.095931,-0.13229 c 0,-6.6212 0.03435,-9.32987 0.07634,-6.01927 0.04198,3.31059 0.04198,8.72794 0,12.03854 -0.04198,3.3106 -0.07634,0.60192 -0.07634,-6.01927 z"
         id="path6" /><path
         style="fill:#0000ff;fill-opacity:1"
         d="m 87.671533,148.6323 c 0,-0.3638 0.06005,-0.51263 0.133452,-0.33073 0.0734,0.1819 0.0734,0.47956 0,0.66146 -0.0734,0.1819 -0.133452,0.0331 -0.133452,-0.33073 z m 4.191557,-11.47698 c 0,-0.0549 0.208359,-0.2633 0.463021,-0.46302 0.419644,-0.32911 0.429002,-0.31975 0.0999,0.0999 -0.345644,0.44072 -0.562916,0.58088 -0.562916,0.36312 z m 1.322917,-1.32292 c 0,-0.0549 0.208359,-0.2633 0.463021,-0.46302 0.419643,-0.3291 0.429002,-0.31975 0.09989,0.0999 -0.345643,0.44073 -0.562915,0.58089 -0.562915,0.36312 z m 11.712843,-4.84595 c 0.25744,-0.0671 0.61462,-0.0627 0.79375,0.01 0.17914,0.0725 -0.0315,0.12736 -0.46805,0.12197 -0.43656,-0.005 -0.58313,-0.0647 -0.3257,-0.13177 z"
         id="path5" /><path
         style="fill:#0000ff;fill-opacity:1"
         d="m 81.930661,148.5 c -0.0058,-7.05776 0.08349,-12.83228 0.198438,-12.83228 0.114945,0 0.208991,-0.16798 0.208991,-0.37328 0,-0.2053 0.535121,-0.63232 1.189158,-0.94893 0.654038,-0.31661 1.257577,-0.68637 1.341199,-0.82167 0.08362,-0.1353 0.262876,-0.17751 0.398342,-0.0938 0.135466,0.0837 0.246301,0.0261 0.246301,-0.12798 0,-0.15411 0.178594,-0.2802 0.396875,-0.2802 0.218281,0 0.396875,-0.11906 0.396875,-0.26458 0,-0.14552 0.0893,-0.23502 0.198438,-0.19888 0.10914,0.0361 0.674687,-0.22443 1.25677,-0.57903 0.582084,-0.3546 1.147631,-0.62229 1.256771,-0.59487 0.109141,0.0274 0.198438,-0.0692 0.198438,-0.21472 0,-0.14552 0.130448,-0.26458 0.289885,-0.26458 0.159437,0 0.635687,-0.24624 1.058333,-0.54719 0.422647,-0.30095 0.768448,-0.47104 0.768448,-0.37797 0,0.0931 0.187099,-0.0179 0.415774,-0.24657 0.228676,-0.22868 0.567646,-0.41577 0.753266,-0.41577 0.185621,0 0.612053,-0.23813 0.947627,-0.52917 0.335574,-0.29104 0.752293,-0.52917 0.926042,-0.52917 0.173749,0 0.587618,-0.23565 0.919709,-0.52367 0.332091,-0.28802 0.707496,-0.45959 0.834234,-0.38126 0.126737,0.0783 0.230432,0.0254 0.230432,-0.11768 0,-0.14305 0.684609,-0.59656 1.521354,-1.0078 0.836745,-0.41124 1.561289,-0.83775 1.610098,-0.9478 0.04881,-0.11005 0.197637,-0.13278 0.330729,-0.0505 0.133092,0.0823 0.241982,0.0235 0.241982,-0.13064 0,-0.15411 0.13946,-0.2802 0.3099,-0.2802 0.17044,0 0.49786,-0.16922 0.7276,-0.37604 0.22974,-0.20682 0.59347,-0.41518 0.80829,-0.46302 0.21481,-0.0478 0.55183,-0.2369 0.74893,-0.42014 0.1971,-0.18324 0.46783,-0.26551 0.60161,-0.18283 0.13379,0.0827 0.24326,0.0242 0.24326,-0.12986 0,-0.1541 0.21431,-0.28019 0.47625,-0.28019 0.26193,0 0.62209,-0.14585 0.80035,-0.32411 0.25575,-0.25575 0.43356,-0.25575 0.84308,0 0.28543,0.17826 0.69918,0.32411 0.91943,0.32411 0.22026,0 0.40047,0.1389 0.40047,0.30868 0,0.16977 0.0747,0.23396 0.16605,0.14263 0.17452,-0.17453 2.3172,0.92726 3.02613,1.55607 0.22773,0.20199 0.79328,0.49945 1.25677,0.66103 0.46349,0.16157 0.84272,0.40821 0.84272,0.54808 0,0.13988 0.10557,0.18907 0.2346,0.10933 0.12903,-0.0797 0.38174,0.0323 0.56156,0.24896 0.17983,0.21668 0.49098,0.39397 0.69144,0.39397 0.20046,0 0.36448,0.12609 0.36448,0.28019 0,0.15411 0.0997,0.21861 0.22146,0.14333 0.12181,-0.0753 0.50876,0.0655 0.8599,0.31285 0.8519,0.60009 2.00955,1.24241 3.21812,1.78558 0.5457,0.24526 0.99219,0.55908 0.99219,0.69739 0,0.13831 0.11083,0.18297 0.2463,0.0992 0.13546,-0.0837 0.3222,-0.0294 0.41497,0.12068 0.0928,0.1501 0.54747,0.44321 1.01047,0.65134 1.12749,0.50687 2.38459,1.27249 2.62368,1.59793 0.10692,0.14552 0.19621,0.17645 0.19844,0.0687 0.002,-0.10771 0.237,0.004 0.5217,0.24738 0.28471,0.24378 0.72904,0.47425 0.98739,0.51217 0.25835,0.0379 0.51158,0.19449 0.56273,0.34793 0.0511,0.15345 0.24848,0.279 0.43851,0.279 0.19004,0 0.6266,0.23814 0.97014,0.5292 0.75629,0.64076 1.16299,0.30994 -3.87329,3.15062 -0.87313,0.49248 -1.97446,1.12586 -2.44742,1.40751 -0.82833,0.49329 -0.86639,0.4943 -1.0363,0.0275 -0.16121,-0.4429 -0.838,-1.29819 -2.38727,-3.01693 -0.6984,-0.77479 -2.24973,-2.06277 -2.97067,-2.46636 -2.25159,-1.26048 -3.19688,-1.72946 -3.19688,-1.58606 0,0.092 -0.1786,0.019 -0.39688,-0.16214 -0.21828,-0.18116 -0.39687,-0.25367 -0.39687,-0.16114 0,0.0925 -0.38696,0.009 -0.8599,-0.1861 -1.78529,-0.73568 -7.38189,-0.7099 -9.26042,0.0427 -0.40018,0.16031 -0.7276,0.22032 -0.7276,0.13334 0,-0.087 -0.178594,-0.01 -0.396875,0.17124 -0.218281,0.18116 -0.396875,0.2488 -0.396875,0.15031 0,-0.23899 -3.51799,1.69392 -3.766261,2.06931 -0.106912,0.16166 -0.196209,0.21004 -0.198437,0.10751 -0.0022,-0.10253 -0.316383,0.0912 -0.698121,0.43041 -0.381737,0.33925 -1.087717,0.95892 -1.568843,1.37704 -0.481126,0.41811 -0.88317,0.90312 -0.893431,1.07779 -0.01026,0.17467 -0.184412,0.4128 -0.387001,0.52917 -0.202589,0.11637 -0.611255,0.6283 -0.908145,1.13763 -1.184753,2.03247 -1.895089,3.43958 -1.736369,3.43958 0.09198,0 0.04734,0.14883 -0.09919,0.33073 -0.716377,0.88927 -1.117137,5.0783 -0.80367,8.40052 0.153546,1.62732 0.232224,2.00263 0.651724,3.10885 0.230518,0.60788 0.231251,0.61015 0.469981,1.45521 0.113052,0.40018 0.311704,0.72761 0.441449,0.72761 0.699832,0 0.04731,0.77845 -1.285454,1.53353 -0.836745,0.47406 -2.533385,1.45061 -3.770312,2.17012 -1.236927,0.71951 -2.30849,1.31162 -2.38125,1.31581 -0.07276,0.004 -0.137041,-5.76692 -0.142846,-12.82468 z m 15.455606,3.57188 c -0.01819,-0.14552 -0.04796,-0.37372 -0.06615,-0.50712 -0.01819,-0.13339 -0.12237,-0.33183 -0.23151,-0.44097 -0.109141,-0.10914 -0.198438,-1.28984 -0.198438,-2.62378 0,-1.33394 0.0893,-2.51465 0.198438,-2.62379 0.10914,-0.10914 0.20429,-0.27781 0.211443,-0.37482 0.03931,-0.5331 0.455287,-1.36702 0.681897,-1.36702 0.144303,0 0.188264,-0.1199 0.09769,-0.26645 -0.09057,-0.14655 0.02146,-0.33788 0.248969,-0.42518 0.227504,-0.0873 0.413645,-0.32459 0.413645,-0.5273 0,-0.20271 0.148828,-0.3388 0.330729,-0.30242 0.181901,0.0364 0.300963,-0.0827 0.264583,-0.26458 -0.03638,-0.18191 0.09971,-0.33073 0.302422,-0.33073 0.202712,0 0.439995,-0.18614 0.527295,-0.41365 0.0873,-0.2275 0.27863,-0.33954 0.42518,-0.24897 0.14655,0.0906 0.26645,0.0466 0.26645,-0.0977 0,-0.21528 0.7703,-0.61469 1.32292,-0.68595 0.0728,-0.009 0.26149,-0.0994 0.4194,-0.20009 0.46975,-0.29949 4.83997,-0.29733 5.20132,0.003 0.18282,0.15173 0.39194,0.26852 0.4647,0.25955 0.38137,-0.0471 1.32291,0.397 1.32291,0.62393 0,0.1443 0.11991,0.18826 0.26646,0.0977 0.14654,-0.0906 0.33788,0.0215 0.42518,0.24897 0.0873,0.22751 0.32458,0.41365 0.5273,0.41365 0.20271,0 0.36856,0.18562 0.36856,0.41249 0,0.22687 0.11907,0.3389 0.26459,0.24896 0.14552,-0.0899 0.26458,-0.0208 0.26458,0.15366 0,0.17445 0.20836,0.47922 0.46302,0.67727 0.40455,0.31462 0.4129,0.39302 0.0661,0.6209 -0.4276,0.281 -9.77514,5.60686 -12.17084,6.93445 -0.800357,0.44353 -1.56831,0.91095 -1.706555,1.03872 -0.339734,0.31398 -0.931517,0.29433 -0.972344,-0.0323 z"
         id="path4" /><path
         style="fill:#0000ff;fill-opacity:1"
         d="m 104.76461,165.90767 c 0.32912,-0.0633 0.80537,-0.0609 1.05834,0.005 0.25296,0.0662 -0.0163,0.118 -0.5984,0.11507 -0.58208,-0.003 -0.78906,-0.0571 -0.45994,-0.12041 z m 21.89119,-5.3869 c -4.13654,-2.1952 -6.21729,-3.42138 -6.80761,-4.0117 -0.42422,-0.42422 -0.6586,-0.51381 -1.16646,-0.44584 -0.0929,0.0124 -0.2417,-0.0847 -0.33073,-0.21591 -0.21462,-0.31623 -3.20458,-2.00546 -3.20458,-1.81048 0,0.0834 -0.24246,-0.0908 -0.53881,-0.38711 -0.29635,-0.29635 -0.64337,-0.4742 -0.77116,-0.39522 -0.12778,0.079 -0.27266,0.0226 -0.32195,-0.12527 -0.0493,-0.14787 -0.33783,-0.31665 -0.6412,-0.37508 -0.30338,-0.0584 -1.62176,-0.70044 -2.92974,-1.42672 -1.30798,-0.72627 -2.99441,-1.65333 -3.74762,-2.06012 -0.75321,-0.4068 -1.27991,-0.82736 -1.17044,-0.93456 0.10948,-0.10721 1.62566,-0.992 3.36931,-1.9662 1.74364,-0.9742 3.46544,-1.96428 3.82622,-2.20016 0.45729,-0.29899 0.5891,-0.32041 0.43519,-0.0707 -0.23373,0.37918 1.16604,-0.42315 1.46145,-0.83768 0.089,-0.12493 0.2458,-0.20238 0.34839,-0.17211 0.31792,0.0938 2.79703,-1.35044 2.79703,-1.62947 0,-0.14503 0.11906,-0.1901 0.26458,-0.10016 0.14552,0.0899 0.26459,0.0304 0.26459,-0.13229 0,-0.1627 0.11472,-0.22492 0.25493,-0.13826 0.14021,0.0867 0.47756,-0.0551 0.74965,-0.31511 0.2721,-0.25997 0.65563,-0.50978 0.8523,-0.55512 0.19666,-0.0453 0.4844,-0.24729 0.63941,-0.44878 0.25887,-0.33649 1.06399,-0.81997 5.17662,-3.10859 0.80037,-0.4454 1.6606,-0.93675 1.91163,-1.09191 0.31447,-0.19438 0.54155,-0.19697 0.73017,-0.008 0.18299,0.18299 0.25098,4.5066 0.20505,13.03957 l -0.0687,12.76582 z m -44.771202,-0.90826 c 0.002,-0.72761 0.05337,-0.99386 0.114185,-0.59168 0.06082,0.40219 0.05919,0.9975 -0.0036,1.32292 -0.0628,0.32542 -0.11256,-0.004 -0.110574,-0.73124 z m 0,-5.02709 c 0.002,-0.7276 0.05337,-0.99385 0.114185,-0.59167 0.06082,0.40218 0.05919,0.9975 -0.0036,1.32292 -0.0628,0.32542 -0.11256,-0.004 -0.110574,-0.73125 z m 0,-4.7625 c 0.002,-0.7276 0.05337,-0.99385 0.114185,-0.59167 0.06082,0.40218 0.05919,0.9975 -0.0036,1.32292 -0.0628,0.32542 -0.11256,-0.004 -0.110574,-0.73125 z m 14.792572,-1.32291 c 0.0054,-0.43656 0.06469,-0.58313 0.131774,-0.3257 0.06708,0.25743 0.06267,0.61462 -0.0098,0.79375 -0.07248,0.17914 -0.127362,-0.0315 -0.12197,-0.46805 z m -14.792572,-3.70417 c 0.002,-0.7276 0.05337,-0.99386 0.114185,-0.59167 0.06082,0.40218 0.05919,0.99749 -0.0036,1.32291 -0.0628,0.32542 -0.11256,-0.004 -0.110574,-0.73124 z m 0,-5.02708 c 0.002,-0.72761 0.05337,-0.99386 0.114185,-0.59168 0.06082,0.40219 0.05919,0.9975 -0.0036,1.32292 -0.0628,0.32542 -0.11256,-0.004 -0.110574,-0.73124 z m 23.141512,0.21015 c 0.32742,-0.0631 0.8632,-0.0631 1.19063,0 0.32742,0.0631 0.0595,0.11466 -0.59532,0.11466 -0.65484,0 -0.92273,-0.0516 -0.59531,-0.11466 z m -12.36927,-3.88192 c 0,-0.0549 0.208359,-0.2633 0.463021,-0.46302 0.419644,-0.32911 0.429002,-0.31975 0.0999,0.0999 -0.345644,0.44073 -0.562916,0.58089 -0.562916,0.36313 z"
         id="path3" /><path
         style="fill:#0000ff;fill-opacity:1"
         d="m 104.89163,174.255 c -0.13731,-0.1373 -0.50553,-0.26892 -0.81826,-0.29248 -0.31274,-0.0236 -0.56861,-0.14358 -0.56861,-0.26672 0,-0.12314 -0.11907,-0.15031 -0.26459,-0.0604 -0.14552,0.0899 -0.26458,0.0631 -0.26458,-0.0596 0,-0.28699 -1.58616,-1.23129 -1.59155,-0.94751 -0.002,0.11737 -0.0915,0.0829 -0.19844,-0.0767 -0.2574,-0.38415 -5.392471,-3.35235 -5.816781,-3.36225 -0.181901,-0.004 -0.330729,-0.0878 -0.330729,-0.18573 0,-0.18128 -1.370623,-0.87981 -1.557919,-0.79399 -0.05649,0.0259 -0.17668,-0.0726 -0.267087,-0.21891 -0.09041,-0.14628 -0.337195,-0.30527 -0.548417,-0.35332 -0.211222,-0.0481 -0.61508,-0.2916 -0.897461,-0.54123 -0.282382,-0.24963 -0.614453,-0.39143 -0.737935,-0.31512 -0.123483,0.0763 -0.224514,0.006 -0.224514,-0.15705 0,-0.1627 -0.119063,-0.22223 -0.264584,-0.1323 -0.14552,0.0899 -0.264583,0.0176 -0.264583,-0.16077 0,-0.17836 -0.06945,-0.25484 -0.15434,-0.16995 -0.08489,0.0849 -0.386886,-0.0782 -0.671109,-0.36243 -0.284223,-0.28423 -0.631489,-0.44587 -0.771702,-0.35921 -0.140213,0.0866 -0.254932,0.0585 -0.254932,-0.0625 0,-0.24739 -1.874492,-1.31568 -2.0664,-1.17766 -0.06787,0.0488 -0.197366,-0.0309 -0.287773,-0.17723 -0.09041,-0.14628 -0.341413,-0.30527 -0.557791,-0.35332 -0.216378,-0.0481 -0.512907,-0.22965 -0.658954,-0.40355 -0.146048,-0.1739 -0.440653,-0.3525 -0.654679,-0.39688 -0.457893,-0.0949 -2.029218,-1.46438 -1.850241,-1.61252 0.453028,-0.37497 7.630972,-4.31839 7.512986,-4.12748 -0.08127,0.1315 0.03769,0.31026 0.264354,0.39724 0.226669,0.087 0.350451,0.25794 0.275071,0.37991 -0.07538,0.12197 0.311278,0.67009 0.85924,1.21805 0.547961,0.54796 0.818679,0.89445 0.601594,0.76998 -0.217084,-0.12448 0.07002,0.26135 0.637999,0.85739 0.567984,0.59603 1.103765,1.06512 1.190625,1.04241 0.08686,-0.0227 0.561221,0.34406 1.054136,0.81504 0.492916,0.47098 0.949322,0.80321 1.014236,0.7383 0.06491,-0.0649 0.350573,0.11452 0.634796,0.39874 0.284223,0.28422 0.621319,0.45215 0.749103,0.37318 0.127784,-0.079 0.274431,-0.0173 0.325881,0.13705 0.05145,0.15435 0.26998,0.30727 0.485619,0.33981 0.21564,0.0325 0.540901,0.15216 0.722802,0.26579 0.181901,0.11364 0.332552,0.11029 0.334781,-0.007 0.0022,-0.11773 0.09673,-0.0682 0.210003,0.11013 0.113274,0.1783 0.498404,0.35689 0.855845,0.39687 0.35744,0.04 0.73388,0.1902 0.83653,0.3338 0.10908,0.1526 1.90065,0.2611 4.31128,0.2611 2.41063,0 4.2022,-0.1085 4.31128,-0.2611 0.10265,-0.1436 0.47909,-0.29381 0.83653,-0.3338 0.35744,-0.04 0.72794,-0.19898 0.82333,-0.35332 0.0954,-0.15435 0.24942,-0.27046 0.34229,-0.25804 0.0929,0.0124 0.19863,0.0135 0.23501,0.002 0.0364,-0.0111 0.30211,-0.0642 0.59051,-0.11788 0.2884,-0.0537 0.56646,-0.22393 0.61791,-0.37828 0.0515,-0.15436 0.19809,-0.21603 0.32588,-0.13705 0.12778,0.079 0.46488,-0.089 0.7491,-0.37318 0.28422,-0.28422 0.57432,-0.45922 0.64465,-0.38889 0.0703,0.0703 0.58133,-0.32556 1.13553,-0.87977 0.55421,-0.5542 0.90611,-0.83003 0.78199,-0.61295 -0.12411,0.21709 0.32732,-0.1361 1.00318,-0.78487 1.23604,-1.18646 1.50829,-1.53791 0.9003,-1.16214 -0.18071,0.11168 0.12489,-0.25039 0.67909,-0.8046 0.55421,-0.5542 0.94734,-1.06796 0.87363,-1.14167 -0.0737,-0.0737 0.008,-0.29068 0.1808,-0.48214 0.25736,-0.28458 0.53214,-0.22192 1.50545,0.3433 2.30125,1.33637 4.90224,2.74627 5.62239,3.04768 0.40018,0.16749 0.72761,0.37781 0.72761,0.46737 0,0.25535 -1.44439,1.4319 -1.868,1.52162 -0.20953,0.0444 -0.50045,0.22298 -0.6465,0.39688 -0.14605,0.1739 -0.44258,0.3555 -0.65896,0.40355 -0.21637,0.048 -0.48201,0.22664 -0.5903,0.39687 -0.10829,0.17024 -0.19871,0.21051 -0.20094,0.0895 -0.005,-0.25042 -1.88636,0.83958 -2.18281,1.26438 -0.10692,0.15321 -0.19621,0.18253 -0.19844,0.0652 -0.005,-0.28378 -1.59155,0.66052 -1.59155,0.94751 0,0.12274 -0.11907,0.14957 -0.26459,0.0596 -0.14552,-0.0899 -0.26458,-0.0304 -0.26458,0.1323 0,0.16269 -0.10103,0.23337 -0.22451,0.15705 -0.12349,-0.0763 -0.468,0.0881 -0.76559,0.36533 -0.29759,0.27725 -0.61328,0.43188 -0.70153,0.34363 -0.0883,-0.0883 -0.16045,-0.0145 -0.16045,0.16384 0,0.17836 -0.11907,0.25071 -0.26459,0.16077 -0.14552,-0.0899 -0.26458,-0.0374 -0.26458,0.11668 0,0.15411 -0.0893,0.25942 -0.19844,0.23402 -0.31807,-0.074 -1.65364,0.63866 -1.65364,0.8824 0,0.12216 -0.0893,0.19555 -0.19844,0.1631 -0.30371,-0.0903 -3.50573,1.68888 -3.50573,1.94796 0,0.12524 -0.0893,0.21362 -0.19844,0.19638 -0.47051,-0.0743 -0.79537,0.0642 -1.33917,0.57081 -0.31848,0.29671 -0.57906,0.47111 -0.57906,0.38757 0,-0.25296 -1.17515,0.44691 -1.40532,0.83694 -0.11808,0.2001 -0.32644,0.29475 -0.46302,0.21034 -0.13658,-0.0844 -0.24832,-0.0204 -0.24832,0.14234 0,0.1627 -0.11907,0.22223 -0.26459,0.13229 -0.14552,-0.0899 -0.26458,-0.0304 -0.26458,0.1323 0,0.16269 -0.0978,0.23534 -0.21741,0.16144 -0.11957,-0.0739 -0.52526,0.0254 -0.90153,0.22057 -0.4288,0.22246 -0.7773,0.26175 -0.93377,0.10527 z m 23.60621,-25.6227 c 0,-6.91224 0.0342,-9.73997 0.076,-6.28385 0.0418,3.45611 0.0418,9.11158 0,12.5677 -0.0418,3.45612 -0.076,0.62839 -0.076,-6.28385 z m -25.84512,7.89494 c -0.045,-0.13504 -0.34797,-0.26558 -0.67324,-0.29008 -0.32526,-0.0245 -0.59139,-0.14531 -0.59139,-0.26845 0,-0.12314 -0.11906,-0.15031 -0.26458,-0.0604 -0.14552,0.0899 -0.26459,0.0374 -0.26459,-0.11668 0,-0.1541 -0.0978,-0.28019 -0.21725,-0.28019 -0.27759,0 -2.771282,-2.37988 -2.499372,-2.38531 0.111696,-0.002 0.02449,-0.13035 -0.193791,-0.28472 -0.240842,-0.17033 -0.286885,-0.32676 -0.117113,-0.39788 0.153869,-0.0645 1.770979,-0.98747 3.593576,-2.05112 l 3.31382,-1.9339 1.83038,1.01387 c 1.00671,0.55763 2.74662,1.50917 3.86647,2.11453 1.11986,0.60536 2.01283,1.21497 1.98438,1.3547 -0.0284,0.13972 -0.64703,0.80485 -1.37464,1.47808 -0.7276,0.67322 -1.36285,1.31408 -1.41166,1.42412 -0.0488,0.11005 -0.19764,0.13279 -0.33073,0.0505 -0.13309,-0.0823 -0.24198,-0.0488 -0.24198,0.0743 0,0.12314 -0.25718,0.24327 -0.57151,0.26695 -0.31433,0.0237 -0.64175,0.15208 -0.7276,0.28534 -0.20527,0.31861 -5.0031,0.32447 -5.10918,0.006 z m 16.06745,-0.48358 c -0.0927,-0.14998 0.0135,-0.19434 0.24897,-0.10398 0.45837,0.17589 0.54223,0.36554 0.16165,0.36554 -0.13693,0 -0.32171,-0.1177 -0.41062,-0.26156 z m -2.84614,-1.47728 c -0.98913,-0.53661 -0.92892,-0.76011 0.0661,-0.24554 0.43657,0.22576 0.79375,0.46694 0.79375,0.53596 0,0.17026 -0.0284,0.16066 -0.85989,-0.29042 z m -1.91636,-1.16855 c -0.0927,-0.14998 0.0135,-0.19434 0.24897,-0.10398 0.45837,0.17589 0.54223,0.36553 0.16165,0.36553 -0.13693,0 -0.32171,-0.1177 -0.41062,-0.26155 z m 0.58903,-10.35461 c 0.17948,-0.18082 0.39297,-0.26212 0.47443,-0.18066 0.0815,0.0815 -0.0654,0.22941 -0.32632,0.32877 -0.37708,0.14359 -0.40747,0.11319 -0.14811,-0.14811 z m 1.32292,-0.79375 c 0.17947,-0.18082 0.39297,-0.26212 0.47443,-0.18066 0.0815,0.0815 -0.0654,0.22941 -0.32632,0.32877 -0.37708,0.14359 -0.40747,0.11319 -0.14811,-0.14811 z m 2.18722,-1.13918 c 0,-0.0728 0.23813,-0.25973 0.52917,-0.41549 0.29104,-0.15576 0.52916,-0.22367 0.52916,-0.15091 0,0.0728 -0.23812,0.25973 -0.52916,0.41549 -0.29104,0.15576 -0.52917,0.22367 -0.52917,0.15091 z"
         id="path2" /><path
         style="fill:#0000ff;fill-opacity:1"
         d="m 103.91688,174.05697 c -0.0816,-0.13195 0.09,-0.17759 0.38126,-0.10143 0.6178,0.16156 0.69589,0.34134 0.14827,0.34134 -0.20969,0 -0.44798,-0.10796 -0.52953,-0.23991 z m 1.70454,0.13848 c 0,-0.0558 0.23829,-0.16375 0.52954,-0.23991 0.29124,-0.0762 0.4628,-0.0305 0.38126,0.10143 -0.14242,0.23043 -0.9108,0.34726 -0.9108,0.13848 z m -3.85203,-1.36837 c -0.49319,-0.39513 -0.48994,-0.40001 0.0817,-0.12298 0.32742,0.15866 0.59531,0.34383 0.59531,0.41147 0,0.20246 -0.13721,0.14399 -0.67703,-0.28849 z m 6.49787,0.0429 c 0,-0.0572 0.18477,-0.17489 0.41061,-0.26155 0.23546,-0.0904 0.34167,-0.046 0.24897,0.10398 -0.15538,0.25141 -0.65958,0.37186 -0.65958,0.15757 z m -8.879121,-1.36582 c -0.49319,-0.39513 -0.489944,-0.40001 0.08172,-0.12298 0.327422,0.15867 0.595311,0.34383 0.595311,0.41147 0,0.20246 -0.137214,0.144 -0.677033,-0.28849 z m 10.995781,0.2978 c 0,-0.0728 0.23813,-0.25973 0.52917,-0.41549 0.29104,-0.15576 0.52917,-0.22367 0.52917,-0.15091 0,0.0728 -0.23813,0.25973 -0.52917,0.41549 -0.29104,0.15576 -0.52917,0.22367 -0.52917,0.15091 z m -13.030726,-1.36058 c -0.989129,-0.53661 -0.928921,-0.76011 0.06615,-0.24554 0.436563,0.22576 0.79375,0.46694 0.79375,0.53596 0,0.17026 -0.02843,0.16066 -0.859896,-0.29042 z m 14.882816,0.29722 c 0,-0.0728 0.35718,-0.317 0.79375,-0.54276 0.43656,-0.22575 0.79375,-0.35093 0.79375,-0.27817 0,0.0728 -0.35719,0.317 -0.79375,0.54275 -0.43657,0.22576 -0.79375,0.35094 -0.79375,0.27818 z m -16.552038,-1.35111 c -0.49319,-0.39512 -0.489943,-0.40001 0.08172,-0.12298 0.327422,0.15867 0.595313,0.34383 0.595313,0.41147 0,0.20247 -0.137215,0.144 -0.677035,-0.28849 z m -1.305467,-0.64383 c -0.09269,-0.14998 0.01351,-0.19434 0.248968,-0.10398 0.458369,0.17589 0.542234,0.36554 0.161649,0.36554 -0.136933,0 -0.321711,-0.1177 -0.410617,-0.26156 z m 21.032505,0.15757 c 0,-0.0572 0.18477,-0.17489 0.41061,-0.26155 0.23546,-0.0904 0.34167,-0.046 0.24897,0.10398 -0.15538,0.25141 -0.65958,0.37186 -0.65958,0.15757 z m -22.884589,-1.2159 c -0.09269,-0.14998 0.01351,-0.19434 0.248969,-0.10398 0.458369,0.17589 0.542233,0.36553 0.161648,0.36553 -0.136932,0 -0.32171,-0.1177 -0.410617,-0.26155 z m 27.911669,-1.60344 c 0.91773,-0.62294 1.44037,-0.80422 0.79375,-0.27531 -0.3638,0.29757 -0.78052,0.54186 -0.92604,0.54287 -0.14552,0.001 -0.086,-0.1194 0.13229,-0.26756 z m -31.368701,-0.39856 c -0.49319,-0.39513 -0.489944,-0.40001 0.08172,-0.12298 0.327422,0.15866 0.595312,0.34383 0.595312,0.41147 0,0.20246 -0.137215,0.14399 -0.677034,-0.28849 z m 12.450991,0.14689 c -0.71298,-0.18143 -0.72644,-0.20248 -0.13229,-0.20691 0.3638,-0.003 0.95911,0.0904 1.32292,0.20691 0.51831,0.16599 0.54694,0.21076 0.13229,0.2069 -0.29104,-0.003 -0.88636,-0.0958 -1.32292,-0.2069 z m 6.21771,0 c 0.3638,-0.11651 0.95911,-0.20962 1.32292,-0.20691 0.59414,0.004 0.58068,0.0255 -0.13229,0.20691 -0.43657,0.11108 -1.03188,0.20419 -1.32292,0.2069 -0.41466,0.004 -0.38603,-0.0409 0.13229,-0.2069 z m -8.069792,-0.52917 c -0.348916,-0.14994 -0.393979,-0.23235 -0.132291,-0.24194 0.218281,-0.008 0.575473,0.10088 0.793753,0.24194 0.48365,0.31256 0.0659,0.31256 -0.661462,0 z m 10.451042,0 c 0.21828,-0.14106 0.57547,-0.24994 0.79375,-0.24194 0.26169,0.01 0.21663,0.092 -0.13229,0.24194 -0.72736,0.31256 -1.14511,0.31256 -0.66146,0 z m -23.283333,-0.81739 c -0.439343,-0.35936 -0.483767,-0.44921 -0.132292,-0.26756 0.863009,0.44601 1.341457,0.81239 1.058333,0.81043 -0.14552,-0.001 -0.562239,-0.2453 -0.926041,-0.54287 z m 35.983333,0.27531 c 0.91773,-0.62294 1.44037,-0.80422 0.79375,-0.27531 -0.3638,0.29757 -0.78052,0.54186 -0.92604,0.54287 -0.14552,0.001 -0.086,-0.11939 0.13229,-0.26756 z M 97.683923,164.5073 c -0.238466,-0.15411 -0.2711,-0.2581 -0.08176,-0.26053 0.173312,-0.002 0.388699,0.11501 0.478635,0.26053 0.203016,0.32849 0.111423,0.32849 -0.396875,0 z m 14.746107,-0.0328 c 0.17948,-0.18082 0.39297,-0.26212 0.47444,-0.18066 0.0815,0.0815 -0.0654,0.22941 -0.32632,0.32877 -0.37709,0.14359 -0.40748,0.11319 -0.14812,-0.14811 z m -15.952308,-0.64323 c -0.49319,-0.39512 -0.489943,-0.40001 0.08172,-0.12298 0.327422,0.15867 0.595313,0.34383 0.595313,0.41147 0,0.20247 -0.137215,0.144 -0.677035,-0.28849 z m 16.816618,0.2978 c 0,-0.0728 0.23813,-0.25973 0.52917,-0.41549 0.29104,-0.15576 0.52916,-0.22367 0.52916,-0.15091 0,0.0728 -0.23812,0.25973 -0.52916,0.41549 -0.29104,0.15576 -0.52917,0.22367 -0.52917,0.15091 z m -28.987451,-1.09155 c -0.49319,-0.39512 -0.489944,-0.40001 0.08172,-0.12298 0.327422,0.15867 0.595312,0.34383 0.595312,0.41147 0,0.20247 -0.137215,0.144 -0.677034,-0.28849 z m 41.158281,0.2978 c 0,-0.0728 0.23813,-0.25973 0.52917,-0.41549 0.29104,-0.15576 0.52917,-0.22367 0.52917,-0.15091 0,0.0728 -0.23813,0.25973 -0.52917,0.41549 -0.29104,0.15576 -0.52917,0.22367 -0.52917,0.15091 z m -30.989996,-0.87851 c -0.329107,-0.41965 -0.319749,-0.429 0.0999,-0.0999 0.254662,0.19972 0.463021,0.40808 0.463021,0.46302 0,0.21777 -0.217272,0.0776 -0.562916,-0.36312 z m 20.935836,0.36312 c 0,-0.0549 0.20836,-0.2633 0.46302,-0.46302 0.41964,-0.3291 0.429,-0.31975 0.0999,0.0999 -0.34564,0.44073 -0.56291,0.58089 -0.56291,0.36312 z m -32.965767,-1.02458 -0.504028,-0.59531 0.595313,0.50403 c 0.559446,0.47366 0.715761,0.68659 0.504027,0.68659 -0.05021,0 -0.318097,-0.26789 -0.595312,-0.59531 z m 45.268887,0.0661 c 0.26339,-0.29105 0.53842,-0.52917 0.61118,-0.52917 0.0728,0 -0.0832,0.23812 -0.34659,0.52917 -0.26339,0.29104 -0.53843,0.52916 -0.61119,0.52916 -0.0728,0 0.0832,-0.23812 0.3466,-0.52916 z m -10.19751,-0.8599 c 1.09642,-1.16819 1.33397,-1.37824 1.33397,-1.17957 0,0.0425 -0.56555,0.60801 -1.25677,1.25677 l -1.25677,1.17957 z m -25.004521,-0.26458 -1.045884,-1.12448 1.124479,1.04588 c 0.618464,0.57524 1.124479,1.08125 1.124479,1.12448 0,0.20018 -0.230412,-1.3e-4 -1.203074,-1.04588 z m -1.476508,-1.71979 c -0.329107,-0.41965 -0.319749,-0.42901 0.0999,-0.0999 0.254661,0.19972 0.463021,0.40808 0.463021,0.46302 0,0.21776 -0.217272,0.0776 -0.562916,-0.36312 z m 27.814999,0.36312 c 0,-0.0549 0.20836,-0.2633 0.46302,-0.46302 0.41964,-0.32911 0.429,-0.31975 0.0999,0.0999 -0.34565,0.44072 -0.56292,0.58088 -0.56292,0.36312 z m -14.34891,-2.47311 c 0.47555,-0.0589 1.18993,-0.0577 1.5875,0.003 0.39758,0.0604 0.008,0.10855 -0.86463,0.10707 -0.87313,-0.001 -1.19842,-0.0509 -0.72287,-0.10977 z m -2.70147,-0.57732 c -0.0815,-0.13195 0.09,-0.17759 0.38126,-0.10143 0.6178,0.16156 0.6959,0.34134 0.14828,0.34134 -0.2097,0 -0.44799,-0.10796 -0.52954,-0.23991 z m 5.93788,0.13848 c 0,-0.0558 0.23829,-0.16375 0.52953,-0.23991 0.29124,-0.0762 0.46281,-0.0305 0.38126,0.10143 -0.14241,0.23043 -0.91079,0.34725 -0.91079,0.13848 z m 3.30729,-2.01524 c 0.56839,-0.58208 1.09297,-1.05833 1.16573,-1.05833 0.0728,0 -0.33276,0.47625 -0.90114,1.05833 -0.56839,0.58209 -1.09297,1.05834 -1.16573,1.05834 -0.0728,0 0.33275,-0.47625 0.90114,-1.05834 z m -11.922893,-0.0661 -0.777105,-0.8599 0.859896,0.77711 c 0.801542,0.72437 0.981512,0.94268 0.777105,0.94268 -0.04554,0 -0.432488,-0.38695 -0.859896,-0.85989 z"
         id="path1" /></g></g></svg>
