<?xml version="1.0" encoding="UTF-8" standalone="no"?>
<!-- Created with Inkscape (http://www.inkscape.org/) -->

<svg
   width="232.25249mm"
   height="232.19543mm"
   viewBox="0 0 232.25249 232.19546"
   version="1.1"
   id="svg1"
   xml:space="preserve"
   inkscape:export-filename="bitmap.svg"
   inkscape:export-xdpi="96"
   inkscape:export-ydpi="96"
   inkscape:version="1.3.2 (091e20e, 2023-11-25, custom)"
   sodipodi:docname="expressjs.svg"
   xmlns:inkscape="http://www.inkscape.org/namespaces/inkscape"
   xmlns:sodipodi="http://sodipodi.sourceforge.net/DTD/sodipodi-0.dtd"
   xmlns="http://www.w3.org/2000/svg"
   xmlns:svg="http://www.w3.org/2000/svg"><sodipodi:namedview
     id="namedview1"
     pagecolor="#ffffff"
     bordercolor="#000000"
     borderopacity="0.25"
     inkscape:showpageshadow="2"
     inkscape:pageopacity="0.0"
     inkscape:pagecheckerboard="0"
     inkscape:deskcolor="#d1d1d1"
     inkscape:document-units="mm"
     inkscape:zoom="0.44631734"
     inkscape:cx="224.05583"
     inkscape:cy="458.19416"
     inkscape:window-width="1366"
     inkscape:window-height="697"
     inkscape:window-x="-8"
     inkscape:window-y="-8"
     inkscape:window-maximized="1"
     inkscape:current-layer="layer1" /><defs
     id="defs1" /><g
     inkscape:label="Layer 1"
     inkscape:groupmode="layer"
     id="layer1"
     transform="translate(2.1553291,68.398096)"><g
       id="g24"
       transform="translate(56.910184,-5.3353298)"><path
         style="fill:#d0d0d0;fill-opacity:1"
         d="m 56.339443,169.02244 c 0.400182,-0.0606 1.055026,-0.0606 1.455208,0 0.400183,0.0606 0.07276,0.11023 -0.727604,0.11023 -0.800364,0 -1.127786,-0.0496 -0.727604,-0.11023 z m -7.53754,-0.2622 c 0.329118,-0.0633 0.805368,-0.0609 1.058333,0.005 0.252965,0.0662 -0.01631,0.118 -0.598397,0.11507 -0.582084,-0.003 -0.789055,-0.0571 -0.459936,-0.12041 z m 15.875,0 c 0.329118,-0.0633 0.805368,-0.0609 1.058333,0.005 0.252965,0.0662 -0.01631,0.118 -0.598397,0.11507 -0.582083,-0.003 -0.789055,-0.0571 -0.459936,-0.12041 z m -19.036549,-0.25819 c 0.190996,-0.0764 0.419199,-0.067 0.507118,0.0209 0.08792,0.0879 -0.06835,0.15046 -0.347265,0.13897 -0.308225,-0.0127 -0.37092,-0.0754 -0.159853,-0.15985 z m 22.208464,0.006 c 0.181901,-0.0734 0.479557,-0.0734 0.661459,0 0.181901,0.0734 0.03307,0.13345 -0.33073,0.13345 -0.363802,0 -0.51263,-0.06 -0.330729,-0.13345 z m -24.854297,-0.2701 c 0.190996,-0.0764 0.419199,-0.067 0.507118,0.0209 0.08792,0.0879 -0.06835,0.15045 -0.347266,0.13897 -0.308224,-0.0127 -0.370919,-0.0754 -0.159852,-0.15986 z m 28.045834,0 c 0.190996,-0.0764 0.419199,-0.067 0.507118,0.0209 0.08792,0.0879 -0.06835,0.15045 -0.347266,0.13897 -0.308224,-0.0127 -0.370919,-0.0754 -0.159852,-0.15986 z m 2.116666,-0.26458 c 0.190997,-0.0764 0.4192,-0.067 0.507118,0.0209 0.08792,0.0879 -0.06835,0.15045 -0.347265,0.13896 -0.308225,-0.0127 -0.370919,-0.0754 -0.159853,-0.15985 z m 5.027084,-0.79375 c 0.190996,-0.0764 0.419199,-0.067 0.507118,0.0209 0.08792,0.0879 -0.06835,0.15045 -0.347266,0.13896 -0.308224,-0.0127 -0.370919,-0.0754 -0.159852,-0.15985 z m -44.185418,-0.26458 c 0.190996,-0.0764 0.419199,-0.067 0.507118,0.0209 0.08792,0.0879 -0.06835,0.15046 -0.347265,0.13897 -0.308225,-0.0127 -0.37092,-0.0754 -0.159853,-0.15985 z m 45.772918,0 c 0.190996,-0.0764 0.419199,-0.067 0.507118,0.0209 0.08792,0.0879 -0.06835,0.15046 -0.347266,0.13897 -0.308224,-0.0127 -0.370919,-0.0754 -0.159852,-0.15985 z M 128.50455,144.5063 c 0,-0.0549 0.20836,-0.2633 0.46302,-0.46302 0.41964,-0.32911 0.429,-0.31975 0.0999,0.0999 -0.19972,0.25466 -0.40807,0.46302 -0.46302,0.46302 -0.0549,0 -0.0999,-0.045 -0.0999,-0.0999 z m -144.760837,-1.42146 c -0.329107,-0.41964 -0.319749,-0.429 0.0999,-0.0999 0.254662,0.19972 0.463021,0.40808 0.463021,0.46302 0,0.0549 -0.04495,0.0999 -0.09989,0.0999 -0.05494,0 -0.263301,-0.20836 -0.463021,-0.46302 z m -4.34852,-3.83646 -0.777106,-0.8599 0.859896,0.77711 c 0.472943,0.42741 0.859896,0.81436 0.859896,0.8599 0,0.0455 -0.03726,0.0828 -0.08279,0.0828 -0.04553,0 -0.432487,-0.38696 -0.859895,-0.8599 z m 155.194777,-0.0338 c 0,-0.0549 0.20835,-0.2633 0.46302,-0.46302 0.41964,-0.32911 0.429,-0.31975 0.0999,0.0999 -0.19972,0.25466 -0.40808,0.46302 -0.46302,0.46302 -0.0549,0 -0.0999,-0.045 -0.0999,-0.0999 z m 7.8052,-7.8376 c 0.26339,-0.29105 0.53842,-0.52917 0.61118,-0.52917 0.0728,0 -0.0832,0.23812 -0.34659,0.52917 -0.26339,0.29104 -0.53842,0.52916 -0.61118,0.52916 -0.0728,0 0.0832,-0.23812 0.34659,-0.52916 z m -173.468124,-2.84427 c -0.329107,-0.41965 -0.319749,-0.42901 0.0999,-0.0999 0.254662,0.19972 0.463021,0.40808 0.463021,0.46302 0,0.0549 -0.04495,0.0999 -0.0999,0.0999 -0.05494,0 -0.263301,-0.20836 -0.463021,-0.46302 z m 175.717084,0.36312 c 0,-0.0549 0.20836,-0.2633 0.46302,-0.46302 0.41965,-0.32911 0.42901,-0.31975 0.0999,0.0999 -0.19972,0.25466 -0.40808,0.46302 -0.46302,0.46302 -0.055,0 -0.0999,-0.045 -0.0999,-0.0999 z m -177.304584,-2.21521 c -0.329107,-0.41964 -0.319749,-0.429 0.0999,-0.0999 0.254662,0.19972 0.463021,0.40808 0.463021,0.46302 0,0.0549 -0.04495,0.0999 -0.09989,0.0999 -0.05494,0 -0.263301,-0.20836 -0.463021,-0.46302 z m -2.38125,-2.91041 c -0.329107,-0.41965 -0.319749,-0.42901 0.0999,-0.0999 0.254661,0.19972 0.463021,0.40808 0.463021,0.46302 0,0.0549 -0.04495,0.0999 -0.09989,0.0999 -0.05494,0 -0.263302,-0.20836 -0.463021,-0.46302 z M 59.497504,98.105707 c 2.428158,-0.04362 6.476283,-0.0437 8.995834,-1.73e-4 2.51955,0.04353 0.532876,0.07922 -4.414832,0.07931 -4.947709,9.6e-5 -7.009159,-0.03552 -4.581002,-0.07914 z m 68.428916,-2.09e-4 c 2.66521,-0.04319 6.95146,-0.04312 9.52501,1.57e-4 2.57354,0.04328 0.39291,0.07862 -4.84584,0.07853 -5.23875,-8.6e-5 -7.34437,-0.0355 -4.67917,-0.07869 z M 18.38827,97.858295 c 0.190996,-0.07643 0.419199,-0.06703 0.507118,0.02089 0.08792,0.08792 -0.06835,0.150453 -0.347265,0.138964 -0.308225,-0.01269 -0.37092,-0.07539 -0.159853,-0.159852 z m 20.68711,-8.121238 c 0,-0.05494 0.208359,-0.263301 0.463021,-0.463021 0.419644,-0.329107 0.429002,-0.319749 0.09989,0.0999 -0.19972,0.254662 -0.408079,0.463021 -0.463021,0.463021 -0.05494,0 -0.09989,-0.04495 -0.09989,-0.0999 z m -54.917687,-2.612084 -0.777106,-0.859896 0.859896,0.777105 c 0.472943,0.427408 0.859896,0.814361 0.859896,0.859896 0,0.04554 -0.03726,0.08279 -0.08279,0.08279 -0.04553,0 -0.432487,-0.386954 -0.859895,-0.859896 z m 28.790082,-1.449512 c 0.545704,-0.05708 1.438672,-0.05708 1.984375,0 0.545704,0.05708 0.09922,0.103786 -0.992187,0.103786 -1.091406,0 -1.537891,-0.0467 -0.992188,-0.103786 z M 30.079547,80.47664 c 0,-0.05494 0.208359,-0.263301 0.46302,-0.463021 0.419644,-0.329107 0.429003,-0.319749 0.0999,0.09989 -0.199719,0.254662 -0.408078,0.463021 -0.463021,0.463021 -0.05494,0 -0.09989,-0.04495 -0.09989,-0.0999 z M 170.59419,77.247195 c 0.0127,-0.308225 0.0754,-0.370919 0.15985,-0.159853 0.0764,0.190996 0.067,0.4192 -0.0209,0.507118 -0.0879,0.08792 -0.15045,-0.06835 -0.13896,-0.347265 z M -58.2704,67.193028 c 0.0127,-0.308225 0.07539,-0.370919 0.159852,-0.159853 0.07643,0.190997 0.06703,0.4192 -0.02089,0.507119 -0.08792,0.08792 -0.150453,-0.06835 -0.138964,-0.347266 z m -0.243696,-3.02066 c 0,-0.363802 0.06005,-0.51263 0.133452,-0.330729 0.0734,0.181901 0.0734,0.479557 0,0.661458 -0.0734,0.181901 -0.133452,0.03307 -0.133452,-0.330729 z m 230.981256,0 c 0,-0.363802 0.06,-0.51263 0.13345,-0.330729 0.0734,0.181901 0.0734,0.479557 0,0.661458 -0.0734,0.181901 -0.13345,0.03307 -0.13345,-0.330729 z m 0.29487,-3.175 c 0,-0.654844 0.0516,-0.922734 0.11466,-0.595312 0.0631,0.327421 0.0631,0.863203 0,1.190625 -0.0631,0.327421 -0.11466,0.05953 -0.11466,-0.595313 z M -58.753732,60.865076 c 0.0029,-0.582083 0.05712,-0.789054 0.120406,-0.459936 0.06329,0.329119 0.06088,0.805369 -0.0053,1.058334 -0.06622,0.252965 -0.118003,-0.01631 -0.115067,-0.598398 z m 45.772918,-1.852083 c 0.0029,-0.582083 0.05712,-0.789055 0.120406,-0.459936 0.06329,0.329118 0.06088,0.805369 -0.0053,1.058333 -0.06622,0.252965 -0.118003,-0.01631 -0.115066,-0.598397 z m -14.862502,-1.874132 c 0.0127,-0.308225 0.07539,-0.370919 0.159852,-0.159852 0.07643,0.190996 0.06703,0.419199 -0.02089,0.507118 -0.08792,0.08792 -0.150453,-0.06835 -0.138964,-0.347266 z m 14.816666,-0.264583 c 0.0127,-0.308225 0.07539,-0.37092 0.159853,-0.159853 0.07643,0.190996 0.06703,0.419199 -0.02089,0.507118 -0.08792,0.08792 -0.150453,-0.06835 -0.138965,-0.347265 z m 64.579223,-0.903993 c 0,-0.363803 0.06005,-0.512631 0.133452,-0.33073 0.0734,0.181901 0.0734,0.479558 0,0.661459 -0.0734,0.181901 -0.133452,0.03307 -0.133452,-0.330729 z M -59.005752,53.059868 c 0,-0.800365 0.0496,-1.127787 0.110222,-0.727604 0.06062,0.400182 0.06062,1.055026 0,1.455208 -0.06062,0.400182 -0.110222,0.07276 -0.110222,-0.727604 z m 231.981192,0.374826 c 0.0127,-0.308224 0.0754,-0.370919 0.15985,-0.159852 0.0764,0.190996 0.067,0.419199 -0.0209,0.507118 -0.0879,0.08792 -0.15045,-0.06835 -0.13896,-0.347266 z M -28.046802,52.133826 c 0.0015,-0.873125 0.05088,-1.198414 0.109766,-0.722866 0.05889,0.475549 0.05767,1.189924 -0.0027,1.5875 -0.06037,0.397577 -0.108551,0.0085 -0.107066,-0.864634 z m 201.022242,0.242535 c 0.0127,-0.308225 0.0754,-0.370919 0.15985,-0.159853 0.0764,0.190997 0.067,0.4192 -0.0209,0.507119 -0.0879,0.08792 -0.15045,-0.06835 -0.13896,-0.347266 z M 51.572181,51.736951 c 0,-0.509323 0.05445,-0.717682 0.121,-0.463021 0.06655,0.254662 0.06655,0.671381 0,0.926042 -0.06655,0.254661 -0.121,0.0463 -0.121,-0.463021 z M -59.06415,51.053444 c 0.0127,-0.308224 0.07539,-0.370919 0.159852,-0.159852 0.07643,0.190996 0.06703,0.419199 -0.02089,0.507118 -0.08792,0.08792 -0.150453,-0.06835 -0.138964,-0.347266 z M 51.267102,48.143027 c 0.0127,-0.308224 0.07539,-0.370919 0.159852,-0.159852 0.07643,0.190996 0.06703,0.419199 -0.02089,0.507118 -0.08792,0.08792 -0.150453,-0.06835 -0.138964,-0.347266 z M -58.753732,45.254659 c 0.0029,-0.582083 0.05712,-0.789054 0.120406,-0.459936 0.06329,0.329119 0.06088,0.805369 -0.0053,1.058334 -0.06622,0.252965 -0.118003,-0.01631 -0.115067,-0.598398 z m 109.75625,0.507118 c 0.0127,-0.308224 0.07539,-0.370919 0.159853,-0.159852 0.07643,0.190996 0.06703,0.419199 -0.02089,0.507118 -0.08792,0.08792 -0.150453,-0.06835 -0.138965,-0.347266 z M 172.76203,45.122368 c 0,-0.654844 0.0516,-0.922735 0.11466,-0.595313 0.0631,0.327422 0.0631,0.863203 0,1.190625 -0.0631,0.327422 -0.11466,0.05953 -0.11466,-0.595312 z M 36.450435,43.909694 c 0.0127,-0.308224 0.07539,-0.370919 0.159852,-0.159852 0.07643,0.190996 0.06703,0.419199 -0.02089,0.507118 -0.08792,0.08792 -0.150453,-0.06835 -0.138964,-0.347266 z m -94.964531,-1.962326 c 0,-0.363802 0.06005,-0.512631 0.133452,-0.33073 0.0734,0.181901 0.0734,0.479558 0,0.661459 -0.0734,0.181901 -0.133452,0.03307 -0.133452,-0.330729 z m 230.981256,0 c 0,-0.363802 0.06,-0.512631 0.13345,-0.33073 0.0734,0.181901 0.0734,0.479558 0,0.661459 -0.0734,0.181901 -0.13345,0.03307 -0.13345,-0.330729 z M -56.947484,30.415944 c 0.0127,-0.308225 0.07539,-0.370919 0.159853,-0.159853 0.07643,0.190996 0.06703,0.4192 -0.02089,0.507118 -0.08792,0.08792 -0.150453,-0.06835 -0.138965,-0.347265 z M 170.87966,30.305701 c 0,-0.363802 0.06,-0.512631 0.13345,-0.330729 0.0734,0.181901 0.0734,0.479557 0,0.661458 -0.0734,0.181901 -0.13345,0.03307 -0.13345,-0.330729 z m -0.28547,-1.477257 c 0.0127,-0.308225 0.0754,-0.370919 0.15985,-0.159853 0.0764,0.190996 0.067,0.4192 -0.0209,0.507118 -0.0879,0.08792 -0.15045,-0.06835 -0.13896,-0.347265 z m -177.5563109,0.05444 c 0,-0.05494 0.2083594,-0.263301 0.4630209,-0.463021 0.4196439,-0.329107 0.4290022,-0.319749 0.099895,0.0999 -0.1997193,0.254662 -0.4080787,0.463021 -0.4630208,0.463021 -0.054942,0 -0.099895,-0.04495 -0.099895,-0.0999 z M 8.8632701,20.59996 c 0.1909961,-0.07643 0.4191992,-0.06703 0.507118,0.02089 0.087919,0.08792 -0.068351,0.150453 -0.3472656,0.138964 C 8.714898,20.747117 8.6522033,20.684422 8.8632701,20.59996 Z M -15.296496,19.1932 c 0.568389,-0.582083 1.092966,-1.058333 1.165726,-1.058333 0.07276,0 -0.332754,0.47625 -0.901143,1.058333 -0.568389,0.582084 -1.092966,1.058334 -1.165726,1.058334 -0.07276,0 0.332754,-0.47625 0.901143,-1.058334 z m 53.700472,-1.124479 -1.312971,-1.389062 1.389063,1.31297 c 0.763984,0.722134 1.389062,1.347212 1.389062,1.389063 0,0.04185 -0.03424,0.07609 -0.07609,0.07609 -0.04185,0 -0.666929,-0.625078 -1.389062,-1.389063 z M 17.59452,8.164543 c 0.190996,-0.07643 0.419199,-0.067031 0.507118,0.020888 0.08792,0.087919 -0.06835,0.1504527 -0.347265,0.1389642 C 17.446148,8.3116997 17.383453,8.249005 17.59452,8.164543 Z M 11.751249,7.889742 c 0.469697,-0.05845 1.303134,-0.05941 1.852083,-0.00213 0.548949,0.057276 0.164652,0.1050982 -0.853994,0.106272 -1.018646,0.00117 -1.467786,-0.045688 -0.998089,-0.1041378 z m 137.886221,-24.61373 c -0.32911,-0.419644 -0.31975,-0.429002 0.0999,-0.0999 0.25466,0.19972 0.46302,0.408079 0.46302,0.463021 0,0.05494 -0.045,0.0999 -0.0999,0.0999 -0.0549,0 -0.2633,-0.208359 -0.46302,-0.463021 z m -3.175,-3.96875 c -0.32911,-0.419644 -0.31975,-0.429002 0.0999,-0.0999 0.25466,0.19972 0.46302,0.408079 0.46302,0.463021 0,0.05494 -0.045,0.0999 -0.0999,0.0999 -0.0549,0 -0.2633,-0.208359 -0.46302,-0.463021 z m -177.633966,-1.653646 c 0.263389,-0.291041 0.53842,-0.529166 0.611181,-0.529166 0.07276,0 -0.08321,0.238125 -0.346598,0.529166 -0.263389,0.291042 -0.538421,0.529167 -0.611181,0.529167 -0.07276,0 0.08321,-0.238125 0.346598,-0.529167 z m 176.046466,-0.198437 c -0.32911,-0.419644 -0.31975,-0.429003 0.0999,-0.0999 0.25466,0.199719 0.46302,0.408079 0.46302,0.463021 0,0.05494 -0.045,0.0999 -0.0999,0.0999 -0.0549,0 -0.2633,-0.20836 -0.46302,-0.463021 z m -173.9298,-2.182813 c 0.263389,-0.291041 0.538421,-0.529166 0.611181,-0.529166 0.07276,0 -0.08321,0.238125 -0.346597,0.529166 -0.263389,0.291042 -0.538421,0.529167 -0.611181,0.529167 -0.07276,0 0.08321,-0.238125 0.346597,-0.529167 z m 171.82685,-0.198437 -0.64143,-0.727604 0.7276,0.641433 c 0.40019,0.352788 0.72761,0.68021 0.72761,0.727604 0,0.04739 -0.0388,0.08617 -0.0862,0.08617 -0.0474,0 -0.37482,-0.327422 -0.72761,-0.727604 z m -163.624766,-8.003646 c 0.263389,-0.291042 0.53842,-0.529167 0.611181,-0.529167 0.07276,0 -0.08321,0.238125 -0.346598,0.529167 -0.263389,0.291041 -0.53842,0.529166 -0.611181,0.529166 -0.07276,0 0.08321,-0.238125 0.346598,-0.529166 z m 2.38125,-2.116667 c 0.263389,-0.291042 0.53842,-0.529167 0.611181,-0.529167 0.07276,0 -0.08321,0.238125 -0.346598,0.529167 -0.263389,0.291042 -0.53842,0.529167 -0.611181,0.529167 -0.07276,0 0.08321,-0.238125 0.346598,-0.529167 z m 150.911046,0.06615 c -0.32911,-0.419644 -0.31975,-0.429002 0.0999,-0.09989 0.25467,0.199719 0.46303,0.408079 0.46303,0.463021 0,0.05494 -0.045,0.09989 -0.0999,0.09989 -0.0549,0 -0.2633,-0.20836 -0.46302,-0.463021 z m -1.85208,-1.5875 c -0.32911,-0.419644 -0.31975,-0.429002 0.0999,-0.0999 0.25466,0.199719 0.46302,0.408079 0.46302,0.463021 0,0.05494 -0.045,0.09989 -0.0999,0.09989 -0.0549,0 -0.2633,-0.20836 -0.46302,-0.463021 z m -144.693341,-2.018124 c 0,-0.05494 0.208359,-0.263302 0.463021,-0.463021 0.419644,-0.329108 0.429002,-0.319749 0.0999,0.09989 -0.19972,0.254661 -0.408079,0.463021 -0.463021,0.463021 -0.05494,0 -0.0999,-0.04495 -0.0999,-0.09989 z m 48.369142,-22.305846 c 0.190996,-0.07643 0.419199,-0.06703 0.507118,0.02089 0.08792,0.08792 -0.06835,0.150452 -0.347266,0.138964 -0.308224,-0.0127 -0.370919,-0.07539 -0.159852,-0.159852 z m 36.777084,-1.322917 c 0.190996,-0.07643 0.419199,-0.06703 0.507118,0.02089 0.08792,0.08792 -0.06835,0.150453 -0.347266,0.138964 -0.308224,-0.0127 -0.370919,-0.07539 -0.159852,-0.159852 z m -25.416537,-0.259071 c 0.181901,-0.0734 0.479557,-0.0734 0.661458,0 0.181901,0.0734 0.03307,0.133452 -0.330729,0.133452 -0.363802,0 -0.51263,-0.06005 -0.330729,-0.133452 z m 22.225,0 c 0.181901,-0.0734 0.479557,-0.0734 0.661459,0 0.181901,0.0734 0.03307,0.133452 -0.33073,0.133452 -0.363802,0 -0.51263,-0.06005 -0.330729,-0.133452 z m -19.182292,-0.271739 c 0.254662,-0.06655 0.67138,-0.06655 0.926042,0 0.254661,0.06655 0.0463,0.121 -0.463021,0.121 -0.509323,0 -0.717682,-0.05445 -0.463021,-0.121 z m 16.144619,-9.7e-4 c 0.257431,-0.06708 0.614619,-0.06267 0.79375,0.0098 0.179132,0.07247 -0.03149,0.127362 -0.468056,0.12197 -0.436563,-0.0054 -0.583125,-0.06469 -0.325694,-0.131774 z m -8.599255,-0.272981 c 0.475549,-0.05889 1.189924,-0.05767 1.5875,0.0027 0.397576,0.06037 0.0085,0.10855 -0.864635,0.107065 -0.873125,-0.0015 -1.198414,-0.05088 -0.722865,-0.109765 z"
         id="path26" /><path
         style="fill:#a3a3a3;fill-opacity:1"
         d="m 51.315997,168.75751 c 0.402184,-0.0608 0.997496,-0.0592 1.322917,0.004 0.325421,0.0628 -0.0036,0.11256 -0.731242,0.11058 -0.727604,-0.002 -0.993858,-0.0534 -0.591675,-0.11419 z m 10.447404,-0.002 c 0.472943,-0.0587 1.246849,-0.0587 1.719792,0 0.472943,0.0587 0.08599,0.10671 -0.859896,0.10671 -0.945885,0 -1.332838,-0.048 -0.859896,-0.10671 z m -15.208506,-0.25654 c 0.257431,-0.0671 0.614618,-0.0627 0.79375,0.01 0.179131,0.0725 -0.03149,0.12736 -0.468056,0.12197 -0.436563,-0.005 -0.583125,-0.0647 -0.325694,-0.13178 z m 20.108334,0 c 0.257431,-0.0671 0.614618,-0.0627 0.79375,0.01 0.179131,0.0725 -0.03149,0.12736 -0.468057,0.12197 -0.436562,-0.005 -0.583124,-0.0647 -0.325693,-0.13178 z m 3.302256,-0.25645 c 0.181901,-0.0734 0.479557,-0.0734 0.661458,0 0.181901,0.0734 0.03307,0.13345 -0.330729,0.13345 -0.363802,0 -0.51263,-0.0601 -0.330729,-0.13345 z M -17.050037,142.2906 c -0.329107,-0.41965 -0.319749,-0.429 0.0999,-0.0999 0.254662,0.19972 0.463021,0.40808 0.463021,0.46302 0,0.055 -0.04495,0.0999 -0.0999,0.0999 -0.05494,0 -0.263301,-0.20836 -0.463021,-0.46302 z m -1.852083,-1.5875 c -0.329108,-0.41965 -0.319749,-0.429 0.0999,-0.0999 0.254661,0.19972 0.463021,0.40808 0.463021,0.46302 0,0.055 -0.04495,0.0999 -0.0999,0.0999 -0.05494,0 -0.263302,-0.20836 -0.463021,-0.46302 z m 151.37542,0.36312 c 0,-0.0549 0.20836,-0.2633 0.46302,-0.46302 0.41964,-0.3291 0.429,-0.31975 0.0999,0.0999 -0.19971,0.25466 -0.40807,0.46302 -0.46302,0.46302 -0.0549,0 -0.0999,-0.045 -0.0999,-0.0999 z m -154.409518,-3.14125 -0.504028,-0.59531 0.595312,0.50403 c 0.327422,0.27721 0.595313,0.54511 0.595313,0.59531 0,0.0502 -0.04108,0.0913 -0.09128,0.0913 -0.05021,0 -0.318097,-0.26789 -0.595312,-0.59532 z m 157.849098,-0.0661 c 0.34178,-0.3638 0.68094,-0.66146 0.7537,-0.66146 0.0728,0 -0.14734,0.29766 -0.48911,0.66146 -0.34178,0.3638 -0.68094,0.66146 -0.7537,0.66146 -0.0728,0 0.14734,-0.29766 0.48911,-0.66146 z m -163.661438,-5.75469 -0.777105,-0.8599 0.859896,0.77711 c 0.472943,0.42741 0.859896,0.81436 0.859896,0.8599 0,0.0455 -0.03726,0.0828 -0.08279,0.0828 -0.04554,0 -0.432488,-0.38696 -0.859896,-0.8599 z m 169.085398,0.33073 c 0.26339,-0.29104 0.53842,-0.52917 0.61118,-0.52917 0.0728,0 -0.0832,0.23813 -0.3466,0.52917 -0.26339,0.29104 -0.53842,0.52917 -0.61118,0.52917 -0.0728,0 0.0832,-0.23813 0.3466,-0.52917 z m -171.616044,-3.10885 c -0.329107,-0.41965 -0.319749,-0.42901 0.0999,-0.0999 0.254662,0.19972 0.463021,0.40808 0.463021,0.46302 0,0.0549 -0.04495,0.0999 -0.0999,0.0999 -0.05494,0 -0.263301,-0.20836 -0.463021,-0.46302 z m 174.129584,0.36312 c 0,-0.0549 0.20836,-0.2633 0.46302,-0.46302 0.41965,-0.32911 0.42901,-0.31975 0.0999,0.0999 -0.19972,0.25466 -0.40808,0.46302 -0.46302,0.46302 -0.0549,0 -0.0999,-0.045 -0.0999,-0.0999 z m 4.23334,-5.02708 c 0,-0.0549 0.20836,-0.2633 0.46302,-0.46302 0.41964,-0.32911 0.429,-0.31975 0.0999,0.0999 -0.19972,0.25466 -0.40808,0.46302 -0.46302,0.46302 -0.0549,0 -0.0999,-0.045 -0.0999,-0.0999 z M 10.831109,98.121235 c 0.254661,-0.06655 0.67138,-0.06655 0.926041,0 0.254662,0.06655 0.0463,0.121 -0.463021,0.121 -0.509322,0 -0.717682,-0.05445 -0.46302,-0.121 z m 3.96875,0 c 0.254661,-0.06655 0.67138,-0.06655 0.926041,0 0.254662,0.06655 0.0463,0.121 -0.46302,0.121 -0.509323,0 -0.717683,-0.05445 -0.463021,-0.121 z m -29.190339,-9.541054 -0.641433,-0.727604 0.727604,0.641433 c 0.400183,0.352788 0.727605,0.68021 0.727605,0.727604 0,0.04739 -0.03878,0.08617 -0.08617,0.08617 -0.04739,0 -0.374816,-0.327422 -0.727605,-0.727604 z m 55.84711,-0.992187 c 0.493655,-0.509323 0.957086,-0.926042 1.029847,-0.926042 0.07276,0 -0.271608,0.416719 -0.765264,0.926042 -0.493655,0.509323 -0.957086,0.926041 -1.029846,0.926041 -0.07276,0 0.271608,-0.416718 0.765263,-0.926041 z m -58.506667,-1.653646 c -0.329107,-0.419644 -0.319749,-0.429003 0.0999,-0.0999 0.254662,0.199719 0.463021,0.408079 0.463021,0.463021 0,0.05494 -0.04495,0.0999 -0.0999,0.0999 -0.05494,0 -0.263301,-0.20836 -0.463021,-0.463021 z m 12.4354172,-6.614584 c -0.3291075,-0.419644 -0.3197491,-0.429002 0.099895,-0.0999 0.2546615,0.19972 0.4630208,0.408079 0.4630208,0.463021 0,0.05494 -0.044953,0.0999 -0.099895,0.0999 -0.054942,0 -0.2633015,-0.208359 -0.4630208,-0.463021 z m 35.4879168,0.380231 c 0,-0.04554 0.386953,-0.432488 0.859895,-0.859896 l 0.859896,-0.777106 -0.777105,0.859896 c -0.427408,0.472943 -0.814361,0.859896 -0.859896,0.859896 -0.04554,0 -0.08279,-0.03726 -0.08279,-0.08279 z M -6.7312865,77.203098 c -0.3291075,-0.419644 -0.3197491,-0.429003 0.099895,-0.0999 0.2546615,0.199719 0.4630208,0.408078 0.4630208,0.463021 0,0.05494 -0.044953,0.09989 -0.099895,0.09989 -0.054942,0 -0.2633015,-0.208359 -0.4630208,-0.46302 z M 39.670693,70.059992 c 2.000911,-0.04495 5.27513,-0.04495 7.276041,0 2.000912,0.04495 0.363802,0.08172 -3.638021,0.08172 -4.001823,0 -5.638932,-0.03677 -3.63802,-0.08172 z m -97.910401,-3.903249 c 0.0054,-0.436562 0.06469,-0.583125 0.131773,-0.325694 0.06708,0.257431 0.06267,0.614619 -0.0098,0.79375 -0.07247,0.179132 -0.127362,-0.03149 -0.121969,-0.468056 z m 230.452088,0 c 0.005,-0.436562 0.0647,-0.583125 0.13177,-0.325694 0.0671,0.257431 0.0627,0.614619 -0.01,0.79375 -0.0725,0.179132 -0.12736,-0.03149 -0.12197,-0.468056 z m -230.716672,-3.175 c 0.0054,-0.436562 0.06469,-0.583125 0.131774,-0.325694 0.06708,0.257431 0.06267,0.614619 -0.0098,0.79375 -0.07248,0.179132 -0.127362,-0.03149 -0.12197,-0.468056 z m 230.981252,0 c 0.005,-0.436562 0.0647,-0.583125 0.13178,-0.325694 0.0671,0.257431 0.0627,0.614619 -0.01,0.79375 -0.0725,0.179132 -0.12736,-0.03149 -0.12197,-0.468056 z M -12.762066,61.901361 c 0.0127,-0.308224 0.07539,-0.370919 0.159852,-0.159852 0.07643,0.190996 0.06703,0.419199 -0.02089,0.507118 -0.08792,0.08792 -0.150453,-0.06835 -0.138964,-0.347266 z m -45.973703,-3.549826 c 0,-0.945886 0.04802,-1.332839 0.106712,-0.859896 0.05869,0.472943 0.05869,1.246849 0,1.719791 -0.05869,0.472943 -0.106712,0.08599 -0.106712,-0.859895 z m 231.510419,0 c 0,-0.945886 0.048,-1.332839 0.10671,-0.859896 0.0587,0.472943 0.0587,1.246849 0,1.719791 -0.0587,0.472943 -0.10671,0.08599 -0.10671,-0.859895 z M 3.2904835,56.565635 c 8.9131515,-0.03864 23.4983075,-0.03864 32.4114595,0 8.913151,0.03864 1.620572,0.07025 -16.20573,0.07025 -17.8263025,0 -25.1188807,-0.03161 -16.2057295,-0.07025 z m -31.3578875,-2.18285 c 0,-0.509323 0.05445,-0.717683 0.121,-0.463021 0.06655,0.254661 0.06655,0.67138 0,0.926041 -0.06655,0.254662 -0.121,0.0463 -0.121,-0.46302 z m 79.639585,-4.233334 c 0,-0.509323 0.05445,-0.717682 0.121,-0.463021 0.06655,0.254662 0.06655,0.671381 0,0.926042 -0.06655,0.254661 -0.121,0.0463 -0.121,-0.463021 z m -79.649389,-0.132292 c 0.0054,-0.436562 0.06469,-0.583124 0.131774,-0.325693 0.06708,0.257431 0.06267,0.614618 -0.0098,0.79375 -0.07248,0.179131 -0.127362,-0.03149 -0.12197,-0.468057 z m -30.663961,-1.984375 c 0,-0.800364 0.0496,-1.127786 0.110223,-0.727604 0.06062,0.400183 0.06062,1.055026 0,1.455209 -0.06062,0.400182 -0.110223,0.07276 -0.110223,-0.727605 z m 231.510419,0 c 0,-0.800364 0.0496,-1.127786 0.11023,-0.727604 0.0606,0.400183 0.0606,1.055026 0,1.455209 -0.0606,0.400182 -0.11023,0.07276 -0.11023,-0.727605 z M 51.28799,47.239034 c 0,-0.363802 0.06005,-0.51263 0.133452,-0.330729 0.0734,0.181901 0.0734,0.479558 0,0.661459 -0.0734,0.181901 -0.133452,0.03307 -0.133452,-0.33073 z m -79.131306,-0.683507 c 0.0127,-0.308224 0.07539,-0.370919 0.159852,-0.159852 0.07643,0.190996 0.06703,0.419199 -0.02089,0.507118 -0.08792,0.08792 -0.150453,-0.06835 -0.138964,-0.347266 z m 16.333669,-1.878483 c 0.190996,-0.07643 0.419199,-0.06703 0.507118,0.02089 0.08792,0.08792 -0.06835,0.150453 -0.347266,0.138964 -0.308224,-0.0127 -0.370919,-0.07539 -0.159852,-0.159852 z m 1.058333,0 c 0.190996,-0.07643 0.4192,-0.06703 0.5071184,0.02089 0.087919,0.08792 -0.06835,0.150453 -0.3472654,0.138964 -0.308225,-0.0127 -0.370919,-0.07539 -0.159853,-0.159852 z m 1.0583337,0 c 0.1909961,-0.07643 0.4191992,-0.06703 0.5071181,0.02089 0.087919,0.08792 -0.068351,0.150453 -0.3472657,0.138964 -0.3082245,-0.0127 -0.3709192,-0.07539 -0.1598524,-0.159852 z m 1.0583333,0 c 0.1909961,-0.07643 0.4191993,-0.06703 0.5071181,0.02089 0.087919,0.08792 -0.068351,0.150453 -0.3472656,0.138964 -0.3082245,-0.0127 -0.3709192,-0.07539 -0.1598525,-0.159852 z m 1.0583334,0 c 0.1909961,-0.07643 0.4191992,-0.06703 0.5071181,0.02089 0.087919,0.08792 -0.068351,0.150453 -0.3472657,0.138964 -0.3082245,-0.0127 -0.3709192,-0.07539 -0.1598524,-0.159852 z m 1.0583334,0 c 0.1909961,-0.07643 0.4191992,-0.06703 0.507118,0.02089 0.087919,0.08792 -0.068351,0.150453 -0.3472656,0.138964 -0.3082245,-0.0127 -0.3709192,-0.07539 -0.1598524,-0.159852 z m 1.0583333,0 c 0.1909961,-0.07643 0.4191992,-0.06703 0.5071181,0.02089 0.087919,0.08792 -0.068351,0.150453 -0.3472657,0.138964 -0.3082245,-0.0127 -0.3709192,-0.07539 -0.1598524,-0.159852 z m 1.0583334,0 c 0.1909961,-0.07643 0.4191992,-0.06703 0.507118,0.02089 0.087919,0.08792 -0.068351,0.150453 -0.3472656,0.138964 -0.3082245,-0.0127 -0.3709192,-0.07539 -0.1598524,-0.159852 z m 1.0583333,0 c 0.1909961,-0.07643 0.4191992,-0.06703 0.5071181,0.02089 0.087919,0.08792 -0.068351,0.150453 -0.3472656,0.138964 -0.3082245,-0.0127 -0.3709193,-0.07539 -0.1598525,-0.159852 z m 1.0583334,0 c 0.1909961,-0.07643 0.4191992,-0.06703 0.507118,0.02089 0.087919,0.08792 -0.068351,0.150453 -0.3472656,0.138964 -0.3082245,-0.0127 -0.3709192,-0.07539 -0.1598524,-0.159852 z m 1.05833333,0 c 0.1909961,-0.07643 0.41919923,-0.06703 0.50711807,0.02089 0.0879188,0.08792 -0.0683507,0.150453 -0.34726563,0.138964 -0.30822447,-0.0127 -0.37091917,-0.07539 -0.15985244,-0.159852 z m 1.05833336,0 c 0.1909961,-0.07643 0.41919923,-0.06703 0.50711806,0.02089 0.0879188,0.08792 -0.0683507,0.150453 -0.34726563,0.138964 -0.3082245,-0.0127 -0.37091921,-0.07539 -0.15985243,-0.159852 z m 1.05833331,0 c 0.1909961,-0.07643 0.4191993,-0.06703 0.5071181,0.02089 0.087919,0.08792 -0.068351,0.150453 -0.3472656,0.138964 -0.3082245,-0.0127 -0.37091924,-0.07539 -0.1598525,-0.159852 z m 1.0583334,0 c 0.1909961,-0.07643 0.4191992,-0.06703 0.5071181,0.02089 0.087919,0.08792 -0.068351,0.150453 -0.3472657,0.138964 -0.3082245,-0.0127 -0.3709192,-0.07539 -0.1598524,-0.159852 z m 1.0583334,0 c 0.1909961,-0.07643 0.4191992,-0.06703 0.507118,0.02089 0.087919,0.08792 -0.068351,0.150453 -0.3472656,0.138964 C 3.1586479,44.8242 3.0959532,44.761506 3.30702,44.677044 Z m 1.0583333,0 c 0.1909961,-0.07643 0.4191992,-0.06703 0.5071181,0.02089 0.087919,0.08792 -0.068351,0.150453 -0.3472657,0.138964 -0.3082245,-0.0127 -0.3709192,-0.07539 -0.1598524,-0.159852 z m 1.0583334,0 c 0.1909961,-0.07643 0.4191992,-0.06703 0.507118,0.02089 0.087919,0.08792 -0.068351,0.150453 -0.3472656,0.138964 -0.3082245,-0.0127 -0.3709192,-0.07539 -0.1598524,-0.159852 z m 1.0583333,0 c 0.1909961,-0.07643 0.4191992,-0.06703 0.5071181,0.02089 0.087919,0.08792 -0.068351,0.150453 -0.3472656,0.138964 C 6.3336479,44.8242 6.2709532,44.761506 6.48202,44.677044 Z m 1.0583334,0 c 0.1909961,-0.07643 0.4191992,-0.06703 0.507118,0.02089 0.087919,0.08792 -0.068351,0.150453 -0.3472656,0.138964 -0.3082245,-0.0127 -0.3709192,-0.07539 -0.1598524,-0.159852 z m 1.0583333,0 c 0.1909961,-0.07643 0.4191993,-0.06703 0.5071181,0.02089 0.087919,0.08792 -0.068351,0.150453 -0.3472656,0.138964 C 8.4503147,44.8242 8.38762,44.761506 8.5986867,44.677044 Z m 1.0583334,0 c 0.1909961,-0.07643 0.4191989,-0.06703 0.5071179,0.02089 0.08792,0.08792 -0.06835,0.150453 -0.3472655,0.138964 C 9.508648,44.8242 9.4459533,44.761506 9.6570201,44.677044 Z m 1.0583329,0 c 0.190997,-0.07643 0.4192,-0.06703 0.507119,0.02089 0.08792,0.08792 -0.06835,0.150453 -0.347266,0.138964 -0.308225,-0.0127 -0.370919,-0.07539 -0.159853,-0.159852 z m 1.058334,0 c 0.190996,-0.07643 0.419199,-0.06703 0.507118,0.02089 0.08792,0.08792 -0.06835,0.150453 -0.347266,0.138964 -0.308224,-0.0127 -0.370919,-0.07539 -0.159852,-0.159852 z m 1.058333,0 c 0.190996,-0.07643 0.419199,-0.06703 0.507118,0.02089 0.08792,0.08792 -0.06835,0.150453 -0.347265,0.138964 -0.308225,-0.0127 -0.37092,-0.07539 -0.159853,-0.159852 z m 1.058334,0 c 0.190996,-0.07643 0.419199,-0.06703 0.507118,0.02089 0.08792,0.08792 -0.06835,0.150453 -0.347266,0.138964 -0.308225,-0.0127 -0.370919,-0.07539 -0.159852,-0.159852 z m 1.058333,0 c 0.190996,-0.07643 0.419199,-0.06703 0.507118,0.02089 0.08792,0.08792 -0.06835,0.150453 -0.347266,0.138964 -0.308224,-0.0127 -0.370919,-0.07539 -0.159852,-0.159852 z m 1.058333,0 c 0.190996,-0.07643 0.419199,-0.06703 0.507118,0.02089 0.08792,0.08792 -0.06835,0.150453 -0.347265,0.138964 -0.308225,-0.0127 -0.37092,-0.07539 -0.159853,-0.159852 z m 1.058334,0 c 0.190996,-0.07643 0.419199,-0.06703 0.507118,0.02089 0.08792,0.08792 -0.06835,0.150453 -0.347266,0.138964 -0.308224,-0.0127 -0.370919,-0.07539 -0.159852,-0.159852 z m 1.058333,0 c 0.190996,-0.07643 0.419199,-0.06703 0.507118,0.02089 0.08792,0.08792 -0.06835,0.150453 -0.347266,0.138964 -0.308224,-0.0127 -0.370919,-0.07539 -0.159852,-0.159852 z m 1.058333,0 c 0.190996,-0.07643 0.4192,-0.06703 0.507118,0.02089 0.08792,0.08792 -0.06835,0.150453 -0.347265,0.138964 -0.308225,-0.0127 -0.370919,-0.07539 -0.159853,-0.159852 z m 1.058334,0 c 0.190996,-0.07643 0.419199,-0.06703 0.507118,0.02089 0.08792,0.08792 -0.06835,0.150453 -0.347266,0.138964 -0.308224,-0.0127 -0.370919,-0.07539 -0.159852,-0.159852 z m 1.058333,0 c 0.190996,-0.07643 0.419199,-0.06703 0.507118,0.02089 0.08792,0.08792 -0.06835,0.150453 -0.347266,0.138964 -0.308224,-0.0127 -0.370919,-0.07539 -0.159852,-0.159852 z m 1.058333,0 c 0.190996,-0.07643 0.4192,-0.06703 0.507118,0.02089 0.08792,0.08792 -0.06835,0.150453 -0.347265,0.138964 -0.308225,-0.0127 -0.370919,-0.07539 -0.159853,-0.159852 z m 1.058334,0 c 0.190996,-0.07643 0.419199,-0.06703 0.507118,0.02089 0.08792,0.08792 -0.06835,0.150453 -0.347266,0.138964 -0.308224,-0.0127 -0.370919,-0.07539 -0.159852,-0.159852 z m 1.058333,0 c 0.190996,-0.07643 0.419199,-0.06703 0.507118,0.02089 0.08792,0.08792 -0.06835,0.150453 -0.347266,0.138964 -0.308224,-0.0127 -0.370919,-0.07539 -0.159852,-0.159852 z m 1.058333,0 c 0.190997,-0.07643 0.4192,-0.06703 0.507118,0.02089 0.08792,0.08792 -0.06835,0.150453 -0.347265,0.138964 -0.308225,-0.0127 -0.370919,-0.07539 -0.159853,-0.159852 z m 1.058334,0 c 0.190996,-0.07643 0.419199,-0.06703 0.507118,0.02089 0.08792,0.08792 -0.06835,0.150453 -0.347266,0.138964 -0.308224,-0.0127 -0.370919,-0.07539 -0.159852,-0.159852 z m 1.058333,0 c 0.190996,-0.07643 0.419199,-0.06703 0.507118,0.02089 0.08792,0.08792 -0.06835,0.150453 -0.347265,0.138964 -0.308225,-0.0127 -0.37092,-0.07539 -0.159853,-0.159852 z m 1.058333,0 c 0.190997,-0.07643 0.4192,-0.06703 0.507119,0.02089 0.08792,0.08792 -0.06835,0.150453 -0.347266,0.138964 -0.308225,-0.0127 -0.370919,-0.07539 -0.159853,-0.159852 z m 1.058334,0 c 0.190996,-0.07643 0.419199,-0.06703 0.507118,0.02089 0.08792,0.08792 -0.06835,0.150453 -0.347266,0.138964 -0.308224,-0.0127 -0.370919,-0.07539 -0.159852,-0.159852 z m 1.058333,0 c 0.190996,-0.07643 0.419199,-0.06703 0.507118,0.02089 0.08792,0.08792 -0.06835,0.150453 -0.347265,0.138964 -0.308225,-0.0127 -0.37092,-0.07539 -0.159853,-0.159852 z m 1.058334,0 c 0.190996,-0.07643 0.419199,-0.06703 0.507118,0.02089 0.08792,0.08792 -0.06835,0.150453 -0.347266,0.138964 -0.308225,-0.0127 -0.370919,-0.07539 -0.159852,-0.159852 z m 1.058333,0 c 0.190996,-0.07643 0.419199,-0.06703 0.507118,0.02089 0.08792,0.08792 -0.06835,0.150453 -0.347266,0.138964 -0.308224,-0.0127 -0.370919,-0.07539 -0.159852,-0.159852 z m 1.058333,0 c 0.190996,-0.07643 0.419199,-0.06703 0.507118,0.02089 0.08792,0.08792 -0.06835,0.150453 -0.347265,0.138964 -0.308225,-0.0127 -0.37092,-0.07539 -0.159853,-0.159852 z m 1.058334,0 c 0.190996,-0.07643 0.419199,-0.06703 0.507118,0.02089 0.08792,0.08792 -0.06835,0.150453 -0.347266,0.138964 -0.308224,-0.0127 -0.370919,-0.07539 -0.159852,-0.159852 z M 172.47696,43.137993 c 0.005,-0.436563 0.0647,-0.583125 0.13178,-0.325694 0.0671,0.257431 0.0627,0.614619 -0.01,0.79375 -0.0725,0.179132 -0.12736,-0.03149 -0.12197,-0.468056 z M -58.514096,43.005701 c 0,-0.363802 0.06005,-0.51263 0.133452,-0.330729 0.0734,0.181901 0.0734,0.479557 0,0.661458 -0.0734,0.181901 -0.133452,0.03307 -0.133452,-0.330729 z M 172.20258,40.095284 c 0,-0.363802 0.06,-0.51263 0.13345,-0.330729 0.0734,0.181901 0.0734,0.479557 0,0.661458 -0.0734,0.181901 -0.13345,0.03307 -0.13345,-0.330729 z M -58.2704,39.940944 c 0.0127,-0.308225 0.07539,-0.370919 0.159852,-0.159852 0.07643,0.190996 0.06703,0.419199 -0.02089,0.507118 -0.08792,0.08792 -0.150453,-0.06835 -0.138964,-0.347266 z M -5.3746209,27.262992 c 0.4936553,-0.509323 0.9570862,-0.926041 1.0298467,-0.926041 0.07276,0 -0.2716081,0.416718 -0.7652633,0.926041 -0.4936552,0.509323 -0.9570862,0.926042 -1.0298466,0.926042 -0.07276,0 0.271608,-0.416719 0.7652632,-0.926042 z M -17.016288,20.945389 c 0,-0.05494 0.20836,-0.263302 0.463021,-0.463021 0.419644,-0.329107 0.429002,-0.319749 0.0999,0.0999 -0.199719,0.254661 -0.408079,0.463021 -0.463021,0.463021 -0.05494,0 -0.0999,-0.04495 -0.0999,-0.0999 z M 9.6570201,20.59996 c 0.1909961,-0.07643 0.4191989,-0.06703 0.5071179,0.02089 0.08792,0.08792 -0.06835,0.150453 -0.3472655,0.138964 -0.3082245,-0.0127 -0.3709192,-0.07539 -0.1598524,-0.159852 z m 3.9687499,0 c 0.190996,-0.07643 0.419199,-0.06703 0.507118,0.02089 0.08792,0.08792 -0.06835,0.150453 -0.347265,0.138964 -0.308225,-0.0127 -0.37092,-0.07539 -0.159853,-0.159852 z m 26.474194,-0.811447 c -0.329107,-0.419644 -0.319749,-0.429002 0.09989,-0.09989 0.254662,0.199719 0.463021,0.408079 0.463021,0.463021 0,0.05494 -0.04495,0.0999 -0.0999,0.0999 -0.05494,0 -0.263301,-0.20836 -0.463021,-0.463021 z m -54.205835,-1.753541 c 0,-0.05494 0.208359,-0.263301 0.463021,-0.463021 0.419644,-0.329107 0.429002,-0.319749 0.0999,0.0999 -0.19972,0.254662 -0.408079,0.463021 -0.463021,0.463021 -0.05494,0 -0.0999,-0.04495 -0.0999,-0.0999 z M 10.042394,7.8973465 c 0.257431,-0.067083 0.614619,-0.062672 0.79375,0.0098 0.179132,0.072476 -0.03149,0.1273619 -0.468056,0.1219698 -0.4365627,-0.00539 -0.5831248,-0.06469 -0.325694,-0.1317736 z m 4.7625,0 c 0.257431,-0.067083 0.614619,-0.062672 0.79375,0.0098 0.179132,0.072476 -0.03149,0.1273619 -0.468056,0.1219698 -0.436563,-0.00539 -0.583125,-0.06469 -0.325694,-0.1317736 z M 148.31455,-18.311488 c -0.32911,-0.419644 -0.31975,-0.429002 0.0999,-0.0999 0.25467,0.19972 0.46303,0.408079 0.46303,0.463021 0,0.05494 -0.045,0.0999 -0.0999,0.0999 -0.0549,0 -0.2633,-0.208359 -0.46302,-0.463021 z m -4.23333,-5.027083 c -0.32911,-0.419644 -0.31975,-0.429003 0.0999,-0.09989 0.25466,0.199719 0.46302,0.408079 0.46302,0.463021 0,0.05494 -0.045,0.0999 -0.0999,0.0999 -0.0549,0 -0.2633,-0.20836 -0.46302,-0.463021 z m -171.945425,-2.579688 c 0.341775,-0.363802 0.680939,-0.661458 0.7537,-0.661458 0.07276,0 -0.147342,0.297656 -0.489116,0.661458 -0.341775,0.363802 -0.680939,0.661459 -0.7537,0.661459 -0.07276,0 0.147342,-0.297657 0.489116,-0.661459 z m 169.313315,-0.330729 -0.64144,-0.727604 0.72761,0.641433 c 0.40018,0.352788 0.7276,0.68021 0.7276,0.727604 0,0.04739 -0.0388,0.08617 -0.0862,0.08617 -0.0474,0 -0.37481,-0.327422 -0.7276,-0.727604 z m -5.42058,-5.423958 -0.77711,-0.859896 0.8599,0.777105 c 0.47294,0.427408 0.8599,0.814361 0.8599,0.859896 0,0.04554 -0.0373,0.08279 -0.0828,0.08279 -0.0455,0 -0.43249,-0.386953 -0.8599,-0.859895 z m -158.071901,-0.06615 c 0.341774,-0.363802 0.680939,-0.661459 0.753699,-0.661459 0.07276,0 -0.147342,0.297657 -0.489116,0.661459 -0.341774,0.363802 -0.680939,0.661458 -0.753699,0.661458 -0.07276,0 0.147341,-0.297656 0.489116,-0.661458 z m 2.38125,-2.08427 c 0,-0.05494 0.208359,-0.263302 0.463021,-0.463021 0.419644,-0.329107 0.429002,-0.319749 0.0999,0.0999 -0.19972,0.254661 -0.408079,0.463021 -0.463021,0.463021 -0.05494,0 -0.0999,-0.04495 -0.0999,-0.0999 z M 133.2333,-34.186488 c -0.32911,-0.419644 -0.31975,-0.429002 0.0999,-0.0999 0.25467,0.199719 0.46303,0.408079 0.46303,0.463021 0,0.05494 -0.045,0.0999 -0.0999,0.0999 -0.0549,0 -0.2633,-0.20836 -0.46302,-0.463021 z m -5.02708,-4.233334 c -0.32911,-0.419643 -0.31975,-0.429002 0.0999,-0.09989 0.25466,0.199719 0.46302,0.408078 0.46302,0.46302 0,0.05494 -0.045,0.0999 -0.0999,0.0999 -0.0549,0 -0.2633,-0.208359 -0.46302,-0.463021 z M 43.788271,-62.214625 c 0.190996,-0.07643 0.419199,-0.06703 0.507118,0.02089 0.08792,0.08792 -0.06835,0.150453 -0.347266,0.138964 -0.308224,-0.0127 -0.370919,-0.07539 -0.159852,-0.159852 z m 26.049958,-0.0026 c 0.257431,-0.06708 0.614618,-0.06267 0.79375,0.0098 0.179131,0.07247 -0.03149,0.127361 -0.468057,0.121969 -0.436562,-0.0054 -0.583124,-0.06469 -0.325693,-0.131773 z m -23.018751,-0.264584 c 0.257431,-0.06708 0.614619,-0.06267 0.79375,0.0098 0.179132,0.07248 -0.03149,0.127362 -0.468056,0.12197 -0.436563,-0.0054 -0.583125,-0.06469 -0.325694,-0.131774 z m 19.843751,0 c 0.257431,-0.06708 0.614618,-0.06267 0.79375,0.0098 0.179131,0.07248 -0.03149,0.127362 -0.468057,0.12197 -0.436562,-0.0054 -0.583124,-0.06469 -0.325693,-0.131774 z m -15.35087,-0.270738 c 0.400183,-0.06062 1.055027,-0.06062 1.455209,0 0.400182,0.06062 0.07276,0.110223 -0.727604,0.110223 -0.800365,0 -1.127787,-0.0496 -0.727605,-0.110223 z m 10.186459,-0.0019 c 0.472943,-0.05869 1.246849,-0.05869 1.719792,0 0.472942,0.05869 0.08599,0.106712 -0.859896,0.106712 -0.945886,0 -1.332839,-0.04802 -0.859896,-0.106712 z"
         id="path25" /><path
         style="fill:#8c8c8c;fill-opacity:1"
         d="m 49.791005,168.6849 c -1.891771,-0.10818 -4.332552,-0.27978 -5.423958,-0.38133 -1.091406,-0.10155 -3.234531,-0.36284 -4.7625,-0.58063 -1.527969,-0.2178 -4.802188,-0.80223 -7.276042,-1.29875 -2.473854,-0.49651 -6.283854,-1.42841 -8.466667,-2.07088 -2.182812,-0.64248 -5.337969,-1.67089 -7.011458,-2.28537 -1.67349,-0.61447 -4.292865,-1.65589 -5.820834,-2.31426 -1.5279686,-0.65838 -3.7306249,-1.67039 -4.8947916,-2.24892 -1.1641667,-0.57853 -3.3072917,-1.71519 -4.7625001,-2.52592 -1.45520838,-0.81072 -4.3722397,-2.59818 -6.4822918,-3.97212 -2.1100521,-1.37394 -4.9671455,-3.34647 -6.3490975,-4.3834 -1.381951,-1.03693 -3.70367,-2.88955 -5.159375,-4.11693 -1.455705,-1.22738 -3.930904,-3.42053 -5.500442,-4.87366 -1.569538,-1.45313 -4.307975,-4.24094 -6.085417,-6.19512 -1.777441,-1.95419 -4.499983,-5.14409 -6.050094,-7.08868 -1.550111,-1.94458 -4.004289,-5.29631 -5.45373,-7.44827 -1.449441,-2.15197 -3.388388,-5.22149 -4.30877,-6.82116 -0.920383,-1.59967 -2.650064,-4.93342 -3.843737,-7.40833 -1.193672,-2.47491 -2.839586,-6.268142 -3.657585,-8.429397 -0.817999,-2.161255 -2.023968,-5.782547 -2.679932,-8.047315 -0.655964,-2.264768 -1.597502,-6.092406 -2.092306,-8.505862 -0.494804,-2.413457 -1.083162,-5.69779 -1.307461,-7.298519 -0.224299,-1.60073 -0.552712,-4.517761 -0.729806,-6.482292 -0.177095,-1.964532 -0.32058,-6.905625 -0.318856,-10.980209 0.0017,-4.074583 0.150124,-9.015677 0.329779,-10.980208 0.179655,-1.964532 0.500405,-4.7625 0.712778,-6.217709 0.212373,-1.455208 0.793149,-4.669896 1.290614,-7.14375 0.497465,-2.473854 1.336219,-5.986198 1.863898,-7.805208 0.527678,-1.819011 1.250978,-4.180738 1.607331,-5.248283 0.356354,-1.067545 1.265673,-3.508326 2.020709,-5.423959 0.755035,-1.9156317 2.408044,-5.5665609 3.673352,-8.1131755 1.265307,-2.54661468 3.095246,-5.939896 4.066529,-7.5406252 0.971284,-1.6007292 2.493544,-3.9819792 3.382801,-5.2916663 0.889256,-1.309688 2.508842,-3.571876 3.59908,-5.027084 1.090238,-1.455208 3.202156,-4.086301 4.693152,-5.846873 1.490995,-1.760572 4.177914,-4.684973 5.97093,-6.498668 1.793017,-1.813696 4.359827,-4.272062 5.704024,-5.463036 1.344196,-1.190973 3.963571,-3.372263 5.820833,-4.847311 1.857262,-1.475047 5.4009026,-4.020864 7.8747568,-5.657369 2.4738542,-1.636506 5.45041678,-3.510527 6.61458347,-4.164491 1.16416673,-0.653965 3.54541673,-1.903966 5.29166673,-2.77778 1.7462501,-0.873815 4.306094,-2.069316 5.688542,-2.656669 1.382448,-0.587353 3.823229,-1.560296 5.423958,-2.162095 1.600729,-0.6018 4.745771,-1.626417 6.988981,-2.276927 2.243211,-0.650511 6.053211,-1.587587 8.466667,-2.082391 2.413457,-0.494805 5.69779,-1.085954 7.298519,-1.313665 1.60073,-0.22771 4.517761,-0.553728 6.482292,-0.724482 1.964532,-0.170754 6.786563,-0.313589 10.715625,-0.317411 3.929063,-0.0038 8.870157,0.142954 10.980209,0.326169 2.110052,0.183215 5.357471,0.56396 7.216487,0.8461 1.859015,0.28214 5.097038,0.87005 7.195605,1.306467 2.098568,0.436416 5.65535,1.326353 7.90396,1.977637 2.24861,0.651283 5.856681,1.851091 8.017936,2.66624 2.161258,0.815148 6.310808,2.648896 9.221218,4.074996 2.91042,1.4261 6.70375,3.452956 8.42962,4.504124 1.72587,1.051168 4.52384,2.868946 6.21771,4.039507 1.69387,1.170561 4.59265,3.336431 6.44173,4.813044 1.84909,1.476614 4.96706,4.144158 6.92882,5.927876 1.96176,1.783718 5.03278,4.854838 6.82448,6.82471 1.79171,1.969873 4.55433,5.206903 6.13916,7.193401 1.58484,1.986497 4.21949,5.635876 5.85478,8.109731 1.63529,2.4738538 3.50832,5.4504163 4.16229,6.614583 0.65396,1.1641667 1.90396,3.54541675 2.77778,5.2916668 0.87381,1.74625 2.06931,4.3060938 2.65666,5.6885418 0.58736,1.3824479 1.5603,3.8232294 2.1621,5.4239584 0.6018,1.600729 1.62642,4.745771 2.27693,6.988981 0.65051,2.243211 1.58758,6.053211 2.08239,8.466667 0.4948,2.413456 1.08316,5.69779 1.30746,7.298519 0.2243,1.600729 0.55225,4.517761 0.72878,6.482292 0.17653,1.964531 0.32097,6.846094 0.32097,10.847917 0,4.001823 -0.14444,8.883385 -0.32097,10.847917 -0.17653,1.964531 -0.50448,4.881562 -0.72878,6.482292 -0.2243,1.600729 -0.81266,4.885062 -1.30746,7.298519 -0.49481,2.413456 -1.43634,6.241094 -2.09231,8.505862 -0.65596,2.264768 -1.8596,5.88606 -2.67475,8.047315 -0.81515,2.161255 -2.64889,6.310807 -4.07499,9.221217 -1.4261,2.91042 -3.45296,6.70375 -4.50413,8.42962 -1.05117,1.72587 -2.86974,4.52384 -4.04126,6.21771 -1.17153,1.69387 -3.25811,4.4982 -4.63685,6.23186 -1.37873,1.73365 -3.46684,4.23396 -4.64024,5.55625 -1.1734,1.32228 -3.66724,3.92391 -5.54187,5.78139 -1.87464,1.85748 -4.85687,4.60429 -6.62719,6.10402 -1.77033,1.49974 -4.4094,3.62588 -5.86461,4.72476 -1.4552,1.09888 -4.19364,3.01345 -6.08541,4.25459 -1.89177,1.24115 -4.57816,2.91104 -5.96976,3.71086 -1.39159,0.79982 -3.71331,2.04549 -5.15937,2.76817 -1.44606,0.72268 -3.87936,1.85273 -5.40733,2.51123 -1.52797,0.6585 -4.147346,1.70002 -5.820835,2.31449 -1.67349,0.61448 -4.8121,1.63727 -6.97469,2.27288 -2.162589,0.63561 -5.972589,1.56777 -8.466667,2.07146 -2.494077,0.50369 -5.844373,1.10027 -7.445102,1.32572 -1.600729,0.22545 -4.398698,0.53364 -6.217709,0.68486 -1.81901,0.15122 -5.926666,0.3163 -9.128125,0.36684 -3.201458,0.0505 -7.368646,0.003 -9.260417,-0.1048 z M 17.806528,98.026345 c 1.617288,-0.151506 4.296194,-0.55164 5.953125,-0.889187 1.656931,-0.337547 4.262758,-1.104489 5.790727,-1.704315 1.527969,-0.599826 3.77047,-1.669681 4.983336,-2.377455 1.212866,-0.707775 3.25274,-2.146324 4.533053,-3.196775 1.280313,-1.050451 2.974714,-2.645915 3.765336,-3.545474 0.790621,-0.899559 1.919187,-2.349937 2.507924,-3.223062 0.588736,-0.873125 1.371599,-2.183027 1.739695,-2.910893 0.368096,-0.727865 0.984541,-2.097084 1.369878,-3.042708 0.385338,-0.945624 0.993619,-2.871986 1.351738,-4.280806 0.358118,-1.408819 0.651124,-2.62921 0.651124,-2.711979 0,-0.08277 -3.192179,-0.150489 -7.093731,-0.150489 h -7.093731 l -0.350579,1.367888 c -0.192819,0.752339 -0.87058,2.406639 -1.506136,3.676224 -0.952142,1.901996 -1.543234,2.674211 -3.357879,4.386799 -1.211278,1.143155 -3.086104,2.578401 -4.16628,3.189436 -1.080176,0.611035 -3.035071,1.419344 -4.344211,1.796241 -1.30914,0.376897 -3.154609,0.797335 -4.101042,0.934307 -0.946433,0.136972 -3.044644,0.251398 -4.662692,0.254281 C 12.158136,85.60126 9.7768856,85.420186 8.4845165,85.195991 7.1921473,84.971796 5.3013169,84.544512 4.282671,84.246472 3.2640252,83.948432 1.454355,83.176418 0.26118182,82.530885 -0.93199139,81.885352 -2.7382719,80.695869 -3.7527748,79.887589 c -1.0145029,-0.80828 -2.5188072,-2.315884 -3.3428985,-3.350233 -0.8240912,-1.034349 -2.0288006,-2.936829 -2.677132,-4.227734 -0.6483317,-1.290905 -1.4671297,-3.441525 -1.8195527,-4.779156 -0.352423,-1.337631 -0.76448,-3.440964 -0.915683,-4.674073 -0.151202,-1.23311 -0.274913,-3.108344 -0.274913,-4.167188 v -1.92517 H 19.534152 51.851259 L 51.702426,52.06768 C 51.609129,49.123726 51.345907,46.186605 50.997002,44.196326 50.690877,42.450076 50.087813,39.671562 49.65686,38.021851 49.225907,36.37214 48.442548,33.931358 47.916062,32.597892 47.389577,31.264427 46.358898,29.042315 45.625665,27.659867 44.892433,26.277419 43.63166,24.193826 42.823948,23.029659 42.016236,21.865492 40.09824,19.65869 38.561734,18.125654 36.79484,16.36275 34.747041,14.657664 32.989963,13.486357 31.461995,12.46778 29.158655,11.183196 27.871431,10.631726 26.584207,10.080257 24.288903,9.3483868 22.770755,9.0053487 21.252607,8.6623107 18.614853,8.237728 16.909079,8.0618317 15.076902,7.872901 12.562462,7.8109424 10.764963,7.9104339 9.0914732,8.0030614 6.9483482,8.2042488 6.0024627,8.357517 5.0565773,8.5107852 3.361834,8.8638463 2.2363666,9.1420973 c -1.1254674,0.278251 -2.85187366,0.8233884 -3.8364584,1.2114167 -0.9845847,0.388028 -2.6235915,1.116686 -3.6422374,1.619241 -1.0186458,0.502554 -3.0427084,1.702305 -4.4979167,2.666112 -1.6773851,1.110958 -3.6627041,2.773609 -5.4239581,4.542417 -1.527969,1.534523 -3.513741,3.835085 -4.412828,5.112361 -0.899086,1.277275 -2.310372,3.643245 -3.136191,5.25771 -0.825819,1.614464 -1.96637,4.238599 -2.534557,5.831411 -0.568188,1.592812 -1.326493,4.34653 -1.685122,6.119374 -0.358629,1.772844 -0.789235,4.711634 -0.956903,6.530644 -0.172151,1.867643 -0.231052,4.631769 -0.135314,6.350001 0.09325,1.673489 0.410586,4.709583 0.7052,6.746875 0.294614,2.037291 0.759731,4.656666 1.033593,5.820833 0.273862,1.164167 0.878427,3.307292 1.343478,4.7625 0.465051,1.455209 1.368863,3.768085 2.008471,5.139727 0.639608,1.371641 1.925815,3.633828 2.858238,5.027083 0.932422,1.393255 2.508349,3.41854 3.502061,4.500634 0.993712,1.082094 2.677756,2.659675 3.74232,3.505736 1.064564,0.846061 2.9644545,2.146008 4.2219783,2.888771 1.2575239,0.742762 3.541673,1.864249 5.0758871,2.492192 1.619792,0.66297 4.17629774,1.430098 6.0967719,1.829452 1.8190105,0.378255 4.3788543,0.788487 5.6885418,0.911626 1.3096875,0.123139 3.3337499,0.239573 4.4979169,0.258743 1.164167,0.01917 3.439902,-0.08911 5.05719,-0.240612 z M -12.659886,43.165877 c 0.09705,-0.857789 0.472504,-2.69907 0.834349,-4.091736 0.361845,-1.392665 1.115889,-3.509441 1.675652,-4.703946 0.5597641,-1.194504 1.4067939,-2.737278 1.8822889,-3.428386 0.475495,-0.691108 1.6956285,-2.131485 2.7114078,-3.200836 1.0157793,-1.069352 2.650452,-2.478495 3.632606,-3.131429 0.98215394,-0.652935 2.44376876,-1.488412 3.2480329,-1.856617 0.8042641,-0.368204 2.6323184,-0.974822 4.0623428,-1.348039 2.1397609,-0.55845 3.2323701,-0.681952 6.1719196,-0.697642 2.795074,-0.01492 4.066138,0.102808 5.844585,0.541331 1.249991,0.308218 2.871562,0.787942 3.603491,1.066054 0.73193,0.278111 2.317122,1.088546 3.522649,1.800967 1.297824,0.766965 3.071322,2.15868 4.347969,3.411978 1.211049,1.188899 2.714739,3.018475 3.430612,4.174108 0.70098,1.131593 1.608544,2.878261 2.016809,3.881484 0.408265,1.003224 0.992924,2.717214 1.299242,3.808868 0.306319,1.091653 0.627301,2.738267 0.713294,3.659141 l 0.156351,1.674316 H 11.828689 -12.836336 Z m 87.307348,52.6242 c 0.897217,-1.309687 5.068831,-7.500938 9.270254,-13.758334 4.201423,-6.257395 9.068487,-13.490443 10.815697,-16.073437 1.74721,-2.582995 3.244155,-4.692681 3.326544,-4.68819 0.08239,0.0045 5.745733,8.338497 12.585213,18.520016 l 12.43542,18.511852 9.60916,8.17e-4 9.60917,8.18e-4 -0.60175,-0.859896 c -0.33096,-0.472943 -4.00901,-5.622396 -8.17345,-11.443229 -4.16443,-5.820834 -10.17813,-14.21474 -13.36376,-18.653126 -3.18563,-4.438385 -7.36795,-10.269557 -9.29403,-12.958158 -2.99744,-4.184096 -3.45164,-4.946471 -3.15265,-5.291667 0.19213,-0.221815 7.06778,-9.394652 15.27923,-20.384081 8.21145,-10.989429 15.02057,-20.1274765 15.13138,-20.3067713 0.1581,-0.2558204 -1.7324,-0.3259904 -8.78276,-0.3259904 H 120.3569 L 109.65736,23.095805 c -5.88474,8.258307 -10.866725,15.282995 -11.071068,15.610417 -0.204343,0.327422 -0.43219,0.595303 -0.506326,0.595292 -0.07414,-1.1e-5 -0.849168,-1.04007 -1.722293,-2.311243 -0.873125,-1.271172 -3.01625,-4.402448 -4.7625,-6.958392 -1.74625,-2.555943 -5.843092,-8.540572 -9.104093,-13.299174 L 76.561987,8.0807003 h -9.647575 c -7.682671,0 -9.593731,0.067359 -9.383201,0.3307291 0.145406,0.1819011 1.967096,2.6524476 4.048201,5.4901046 2.081105,2.837656 4.876677,6.647656 6.212381,8.466667 1.335705,1.81901 4.53143,6.164791 7.101612,9.657291 2.570182,3.4925 6.70627,9.121762 9.191308,12.50947 l 4.51825,6.159469 -0.466938,0.719698 C 87.879209,51.809962 80.884579,61.658826 72.592402,73.300493 64.300226,84.94216 56.938517,95.25563 56.233049,96.219314 c -0.705468,0.963685 -1.282669,1.828451 -1.282669,1.921703 0,0.09325 4.0648,0.13822 9.032889,0.09993 l 9.03289,-0.06962 z"
         id="path24" /></g></g></svg>
