<?xml version="1.0" encoding="UTF-8" standalone="no"?>
<!-- Created with Inkscape (http://www.inkscape.org/) -->

<svg
   width="374.60797mm"
   height="112.073mm"
   viewBox="0 0 374.60797 112.073"
   version="1.1"
   id="svg1"
   xml:space="preserve"
   inkscape:version="1.3.2 (091e20e, 2023-11-25, custom)"
   sodipodi:docname="mongoose.svg"
   xmlns:inkscape="http://www.inkscape.org/namespaces/inkscape"
   xmlns:sodipodi="http://sodipodi.sourceforge.net/DTD/sodipodi-0.dtd"
   xmlns="http://www.w3.org/2000/svg"
   xmlns:svg="http://www.w3.org/2000/svg"><sodipodi:namedview
     id="namedview1"
     pagecolor="#ffffff"
     bordercolor="#000000"
     borderopacity="0.25"
     inkscape:showpageshadow="2"
     inkscape:pageopacity="0.0"
     inkscape:pagecheckerboard="0"
     inkscape:deskcolor="#d1d1d1"
     inkscape:document-units="mm"
     inkscape:zoom="0.44631734"
     inkscape:cx="471.63751"
     inkscape:cy="252.0628"
     inkscape:window-width="1366"
     inkscape:window-height="697"
     inkscape:window-x="-8"
     inkscape:window-y="-8"
     inkscape:window-maximized="1"
     inkscape:current-layer="layer1" /><defs
     id="defs1" /><g
     inkscape:label="Layer 1"
     inkscape:groupmode="layer"
     id="layer1"
     transform="translate(19.491845,-81.898395)"><path
       style="fill:#d45500;stroke-width:7.84381"
       d="m 148.47923,192.26445 c -1.90552,-1.31009 -5.1135,-5.72939 -7.12877,-9.82064 -3.36107,-6.82317 -3.4227,-7.51648 -0.74517,-8.38034 1.60548,-0.51797 3.70607,0.76603 4.668,2.85288 4.98609,10.81828 17.58866,13.15587 24.43866,4.533 3.46431,-4.36093 7.60695,-18.67361 7.65103,-26.43378 0.005,-0.8861 -3.49747,1.24441 -7.7834,4.73543 -5.83214,4.75061 -9.23699,5.9329 -13.53439,4.6995 -13.48434,-3.87005 -18.76284,-17.69472 -17.74647,-46.47891 0.56424,-15.98811 1.18845,-18.757352 5.9391,-26.359959 4.67345,-7.479067 6.36791,-8.495056 14.16757,-8.495056 6.92943,0 9.71504,1.286684 12.78828,5.90711 4.84074,7.277728 6.17843,7.419822 6.17843,0.656882 0,-3.038941 1.0937,-5.250824 2.59631,-5.250824 2.28989,0 2.53194,5.417526 2.05067,45.899127 l -0.54564,45.89914 -5.25288,8.4011 c -4.51051,7.21383 -6.59716,8.51529 -14.76481,9.20949 -5.23155,0.44453 -11.071,-0.26394 -12.97652,-1.57365 z m 22.56848,-44.65215 c 13.20538,-22.87132 1.8664,-64.175326 -15.43755,-56.233356 -15.34961,7.04504 -17.15363,52.312796 -2.49734,62.665386 6.9701,4.92336 12.52973,2.92959 17.93489,-6.43203 z M 63.080968,163.01717 c -6.016259,-2.88196 -13.549296,-16.02215 -13.937826,-24.3125 -0.147077,-3.13807 -0.700751,0.7819 -1.230403,8.71117 -0.727556,10.89209 -1.664925,14.63009 -3.833932,15.28857 -2.610315,0.79283 -2.870929,-2.11146 -2.870929,-31.98944 0,-30.981478 -0.208517,-33.094825 -3.646101,-36.948019 -5.174826,-5.80054 -10.219345,-5.072215 -15.53868,2.243534 -4.480672,6.162225 -4.617665,7.142585 -5.156533,36.903765 -0.485436,26.81055 -0.889263,30.47085 -3.281064,29.74024 -2.320884,-0.70847 -2.849769,-5.83427 -3.547753,-34.3817 C 9.1837305,93.343642 8.3882198,89.816106 1.3434793,89.720254 -4.163739,89.640828 -10.917437,97.323164 -12.751856,105.7444 c -1.000112,4.59124 -1.81839,19.39498 -1.81839,32.89715 0,20.07143 -0.44885,24.54947 -2.460799,24.54947 -2.07801,0 -2.4608,-6.12591 -2.4608,-39.38089 0,-33.254967 0.382815,-39.380876 2.4608,-39.380876 1.353437,0 2.460799,1.772107 2.460799,3.938039 0,5.050079 1.479443,4.98519 5.0752201,-0.222273 1.5800277,-2.288282 5.7496617,-4.778102 9.26585651,-5.532819 C 4.9497347,81.500557 7.054084,82.465349 10.851065,87.692055 l 4.687157,6.452056 5.681363,-6.170062 c 7.549329,-8.198657 15.655214,-8.092192 20.883133,0.273867 2.214721,3.544214 4.038067,9.156022 4.051879,12.470614 0.0136,3.31449 0.74075,7.79858 1.615408,9.96451 1.302318,3.22499 1.594836,2.93257 1.615408,-1.61492 0.0136,-3.05423 1.566786,-8.68964 3.451043,-12.523104 7.285793,-14.822886 19.407852,-18.854094 28.885477,-9.606 7.142757,6.969725 10.269983,15.425094 11.411916,30.855154 1.138219,15.37976 -3.337354,34.65727 -9.528792,41.04294 -5.202764,5.36613 -14.215916,7.20163 -20.524089,4.17996 z m 13.290822,-7.63694 c 7.222503,-4.39448 11.045192,-17.43733 10.329017,-35.24211 -0.542166,-13.47845 -1.301688,-16.45686 -5.858203,-22.972235 -7.369957,-10.538149 -13.778083,-10.009168 -21.122143,1.74372 -5.60231,8.965505 -5.748103,9.712385 -5.095848,26.105355 0.697994,17.5422 3.576968,25.99321 10.370992,30.44336 4.468548,2.92691 6.459921,2.91322 11.376185,-0.0794 z m 121.20568,5.42367 c -8.77529,-6.49046 -12.65485,-17.83157 -12.65485,-36.99377 0,-24.242348 6.88522,-38.401309 20.04763,-41.226607 8.6919,-1.865779 17.86018,5.318792 21.23342,16.639252 l 2.59761,8.717325 2.97974,-7.84135 c 6.50419,-17.11593 20.2479,-23.06541 30.39957,-13.159641 7.93693,7.744701 10.89219,16.902901 11.35158,35.178211 0.27221,10.81945 1.11812,16.37153 2.56915,16.85843 1.18999,0.3989 3.35686,4.05979 4.81538,8.13427 4.81707,13.45732 21.62825,12.50216 23.80108,-1.35217 1.47403,-9.39882 -2.95507,-15.53802 -13.70162,-18.99184 -11.22954,-3.60909 -16.8526,-11.16526 -16.8526,-22.64636 0,-23.286996 26.73921,-30.516513 33.65946,-9.100547 3.09172,9.568007 3.0544,10.413317 -0.46007,10.413317 -1.59067,0 -3.62082,-2.62774 -4.5115,-5.83933 -4.54679,-16.39475 -26.0527,-8.888988 -22.5311,7.86357 0.9349,4.44737 8.00904,9.98992 15.53167,12.16896 3.35704,0.97243 8.34014,4.77958 11.0736,8.46042 l 4.96991,6.69239 v -12.74497 c 0,-46.280052 37.15917,-55.715992 42.4063,-10.76824 0.79476,6.80828 1.05258,13.00682 0.57291,13.77454 -0.47991,0.76801 -9.23891,1.39573 -19.46491,1.39573 -11.68721,0 -18.59271,1.00646 -18.59271,2.7097 0,1.4904 1.08081,6.84928 2.40175,11.90878 4.69373,17.97763 22.84788,21.15321 27.50081,4.81045 1.78691,-6.27614 7.82973,-8.91102 7.82973,-3.41402 0,5.72502 -10.98259,20.35204 -16.52206,22.00477 -8.18074,2.4407 -17.94743,-3.58012 -22.19516,-13.68256 l -3.56569,-8.48018 -1.9369,7.48334 c -5.1347,19.83814 -30.36014,20.07886 -35.01716,0.33439 -2.2644,-9.60065 -3.34532,-9.88295 -5.73274,-1.49743 -2.80378,9.84772 -9.57379,15.58822 -18.38393,15.58822 -8.90705,0 -15.37653,-5.59176 -19.37773,-16.74879 l -2.65832,-7.41249 -2.84817,7.49505 c -6.0799,15.99943 -17.75441,21.39065 -28.73438,13.26937 z m 21.21809,-13.50039 c 3.78915,-6.57124 4.5115,-10.15007 4.5115,-22.35246 0,-17.76112 -3.14293,-28.204205 -9.8205,-32.630534 -7.12194,-4.72105 -14.63403,-0.704524 -19.2693,10.302974 -7.02782,16.68926 -3.54763,44.34404 6.47103,51.42084 7.03223,4.96733 12.53797,2.91768 18.10727,-6.74082 z m 38.03485,8.07672 c 7.22253,-4.39448 11.04522,-17.43733 10.32901,-35.24211 -0.54192,-13.47845 -1.30165,-16.45686 -5.85818,-22.972235 -7.36996,-10.538149 -13.77812,-10.009168 -21.12217,1.74372 -5.60227,8.965505 -5.74805,9.712385 -5.09582,26.105355 0.69798,17.5422 3.57697,25.99321 10.37098,30.44336 4.46853,2.92691 6.45992,2.91322 11.37618,-0.0794 z m 92.7977,-40.63541 c 0,-11.65694 -8.33691,-25.064755 -15.58511,-25.064755 -5.29412,0 -12.61727,8.434833 -14.89401,17.155045 -1.28237,4.91166 -2.33155,9.55887 -2.33155,10.32719 0,0.76802 7.38237,1.39702 16.4053,1.39702 13.2527,0 16.40537,-0.7333 16.40537,-3.8145 z m -254.282637,9.06531 c 0,-33.254967 0.382814,-39.380876 2.460795,-39.380876 1.353434,0 2.460792,1.870537 2.460792,4.156836 0,2.2863 0.5537,3.732232 1.23041,3.213282 0.67671,-0.518963 3.91667,-3.136486 7.19989,-5.816518 7.46746,-6.095737 15.74544,-4.110291 21.13399,5.068938 3.57897,6.096728 3.8482,8.726752 3.95357,38.622088 0.10059,28.53969 -0.20375,32.18045 -2.75786,32.99104 -2.60637,0.82755 -2.87092,-1.9924 -2.87092,-30.59559 0,-30.91014 -0.0818,-31.60969 -4.32258,-36.947925 -5.0821,-6.397489 -8.92754,-6.829719 -15.1259,-1.700161 -6.7041,5.548003 -8.4406,14.525996 -8.4406,43.639326 0,21.47678 -0.438233,26.13045 -2.460792,26.13045 -2.078006,0 -2.460795,-6.12591 -2.460795,-39.38089 z"
       id="path1" /></g></svg>
