<?xml version="1.0" encoding="UTF-8" standalone="no"?>
<!-- Created with Inkscape (http://www.inkscape.org/) -->

<svg
   width="140.96725mm"
   height="135.67273mm"
   viewBox="0 0 140.96726 135.67274"
   version="1.1"
   id="svg1"
   xml:space="preserve"
   inkscape:export-filename="bitmap.svg"
   inkscape:export-xdpi="96"
   inkscape:export-ydpi="96"
   inkscape:version="1.3.2 (091e20e, 2023-11-25, custom)"
   sodipodi:docname="mongodb.svg"
   xmlns:inkscape="http://www.inkscape.org/namespaces/inkscape"
   xmlns:sodipodi="http://sodipodi.sourceforge.net/DTD/sodipodi-0.dtd"
   xmlns="http://www.w3.org/2000/svg"
   xmlns:svg="http://www.w3.org/2000/svg"><sodipodi:namedview
     id="namedview1"
     pagecolor="#ffffff"
     bordercolor="#000000"
     borderopacity="0.25"
     inkscape:showpageshadow="2"
     inkscape:pageopacity="0.0"
     inkscape:pagecheckerboard="0"
     inkscape:deskcolor="#d1d1d1"
     inkscape:document-units="mm"
     inkscape:zoom="0.44631734"
     inkscape:cx="-114.26847"
     inkscape:cy="267.74671"
     inkscape:window-width="1366"
     inkscape:window-height="697"
     inkscape:window-x="-8"
     inkscape:window-y="-8"
     inkscape:window-maximized="1"
     inkscape:current-layer="layer1"
     showguides="false" /><defs
     id="defs1" /><g
     inkscape:label="Layer 1"
     inkscape:groupmode="layer"
     id="layer1"
     transform="translate(-87.408001,65.632633)"><path
       style="fill:#37c837;fill-opacity:1;stroke-width:2.33687"
       d="m 154.80918,69.948784 c -0.86754,-0.126185 -3.99043,-0.514233 -6.93972,-0.862308 -29.95303,-3.535059 -54.908939,-27.25612 -59.621183,-56.671049 -6.5654,-40.98276 26.168653,-77.838163 69.319373,-78.046938 13.42863,-0.06497 23.88867,2.686791 37.0537,9.747872 7.54907,4.048956 18.90258,14.859197 23.1882,22.07863 5.69162,9.588005 7.68565,14.657219 9.44903,24.0215554 6.89874,36.6346496 -18.91873,72.3676336 -56.69419,78.4682396 -6.24691,1.008858 -13.50572,1.591209 -15.75521,1.263998 z M 160.558,41.929532 c 0.16537,-0.584434 0.48517,-2.691622 0.7109,-4.682637 0.35962,-3.172437 0.72575,-3.923945 2.96099,-6.078072 18.34968,-17.683714 18.23523,-42.825809 -0.28113,-61.768104 -1.76118,-1.80167 -3.744,-4.390153 -4.40627,-5.752186 -1.24023,-2.550558 -2.15374,-3.215748 -2.14509,-1.561955 0.002,0.517648 -1.95224,2.950046 -4.34429,5.405334 -18.51551,19.004922 -18.85726,44.28452 -0.83648,61.879498 3.62442,3.538773 4.92962,5.233804 4.93576,6.410017 0.0302,5.781429 2.33341,9.939319 3.40561,6.148105 z M 159.34068,27.10329 C 158.58192,24.794583 158.149,9.6339215 158.7124,5.1011901 c 0.46502,-3.7411178 0.59593,-2.6346663 1.09871,9.2860809 0.55577,13.177017 0.46728,15.569126 -0.47043,12.716019 z"
       id="path34" /></g></svg>
