<?xml version="1.0" encoding="UTF-8" standalone="no"?>
<!-- Created with Inkscape (http://www.inkscape.org/) -->

<svg
   width="483.6644mm"
   height="207.29576mm"
   viewBox="0 0 483.6644 207.29578"
   version="1.1"
   id="svg1"
   xml:space="preserve"
   inkscape:export-filename="bitmap.svg"
   inkscape:export-xdpi="96"
   inkscape:export-ydpi="96"
   inkscape:version="1.3.2 (091e20e, 2023-11-25, custom)"
   sodipodi:docname="npm.svg"
   xmlns:inkscape="http://www.inkscape.org/namespaces/inkscape"
   xmlns:sodipodi="http://sodipodi.sourceforge.net/DTD/sodipodi-0.dtd"
   xmlns="http://www.w3.org/2000/svg"
   xmlns:svg="http://www.w3.org/2000/svg"><sodipodi:namedview
     id="namedview1"
     pagecolor="#ffffff"
     bordercolor="#000000"
     borderopacity="0.25"
     inkscape:showpageshadow="2"
     inkscape:pageopacity="0.0"
     inkscape:pagecheckerboard="0"
     inkscape:deskcolor="#d1d1d1"
     inkscape:document-units="mm"
     inkscape:zoom="0.44631734"
     inkscape:cx="457.07388"
     inkscape:cy="455.9536"
     inkscape:window-width="1366"
     inkscape:window-height="697"
     inkscape:window-x="-8"
     inkscape:window-y="-8"
     inkscape:window-maximized="1"
     inkscape:current-layer="layer1" /><defs
     id="defs1" /><g
     inkscape:label="Layer 1"
     inkscape:groupmode="layer"
     id="layer1"
     transform="translate(58.531753,67.577858)"><g
       id="g20"
       transform="matrix(6.2818652,0,0,6.8996776,-476.60303,-325.2827)"
       style="opacity:1;fill:#c44e00;fill-opacity:1"><path
         style="fill:#c44e00;fill-opacity:1"
         d="m 104.99596,65.925274 c 0,-0.800365 0.0496,-1.127787 0.11023,-0.727605 0.0606,0.400183 0.0606,1.055026 0,1.455209 -0.0606,0.400182 -0.11023,0.07276 -0.11023,-0.727604 z m -0.0375,-2.116667 c 0,-0.363802 0.0601,-0.51263 0.13346,-0.330729 0.0734,0.181901 0.0734,0.479557 0,0.661458 -0.0734,0.181901 -0.13346,0.03307 -0.13346,-0.330729 z m 4.2538,-13.42394 -0.0622,-8.529147 -8.53281,-0.07361 -8.532815,-0.07361 8.541115,-0.06235 c 6.66832,-0.04868 8.56915,0.0107 8.66897,0.270813 0.0703,0.183239 0.0946,4.082536 0.0539,8.665104 l -0.0739,8.331942 z m 21.48343,2.046856 c 0,-3.56526 0.0374,-5.023776 0.0832,-3.241146 0.0458,1.78263 0.0458,4.699662 0,6.482292 -0.0458,1.78263 -0.0832,0.324115 -0.0832,-3.241146 z M 75.10171,41.650125 c 2.446716,-0.04371 6.375779,-0.04362 8.73125,1.82e-4 2.355471,0.04381 0.353612,0.07957 -4.448575,0.07947 -4.802188,-1.01e-4 -6.729392,-0.03594 -4.282675,-0.07965 z m 44.81171,-1.06e-4 c 3.51878,-0.04166 9.35285,-0.0417 12.96459,-9.1e-5 3.61173,0.04161 0.73273,0.07569 -6.39779,0.07574 -7.13052,5e-5 -10.08558,-0.03399 -6.5668,-0.07565 z"
         id="path24" /><path
         style="fill:#c44e00;fill-opacity:1"
         d="m 92.150531,67.314811 c 2.364714,-0.04385 6.234245,-0.04385 8.598959,0 2.36471,0.04385 0.42995,0.07973 -4.299479,0.07973 -4.729428,0 -6.664193,-0.03588 -4.29948,-0.07973 z M 83.570113,57.194023 c 0,-0.945885 0.04802,-1.332838 0.106712,-0.859896 0.05869,0.472943 0.05869,1.246849 0,1.719792 -0.05869,0.472943 -0.106712,0.08599 -0.106712,-0.859896 z m 42.777437,-4.815824 c -0.0725,-3.594588 -0.0404,-6.443929 0.0714,-6.331869 0.11183,0.112061 0.17119,3.053088 0.13191,6.535616 l -0.0714,6.331869 z m -42.79006,0.847074 c 0,-0.654844 0.0516,-0.922734 0.114662,-0.595312 0.06306,0.327421 0.06306,0.863203 0,1.190625 -0.06306,0.327422 -0.114662,0.05953 -0.114662,-0.595313 z m 21.45164,-1.058333 c 0,-1.236927 0.0456,-1.742943 0.10128,-1.124479 0.0557,0.618463 0.0557,1.630494 0,2.248958 -0.0557,0.618464 -0.10128,0.112448 -0.10128,-1.124479 z M 83.506315,50.425099 c 0.0127,-0.308224 0.07539,-0.370919 0.159852,-0.159852 0.07643,0.190996 0.06703,0.419199 -0.02089,0.507118 -0.08792,0.08792 -0.150453,-0.06835 -0.138964,-0.347266 z m 21.486035,-1.830034 c 0.002,-0.727605 0.0534,-0.993858 0.11419,-0.591675 0.0608,0.402183 0.0592,0.997496 -0.004,1.322917 -0.0628,0.325421 -0.11256,-0.0036 -0.11058,-0.731242 z M 83.527203,48.99194 c 0,-0.363802 0.06005,-0.512631 0.133452,-0.33073 0.0734,0.181902 0.0734,0.479558 0,0.661459 -0.0734,0.181901 -0.133452,0.03307 -0.133452,-0.330729 z m -2.886047,-3.099926 c 0.400182,-0.06062 1.055026,-0.06062 1.455208,0 0.400182,0.06062 0.07276,0.110223 -0.727604,0.110223 -0.800365,0 -1.127787,-0.0496 -0.727604,-0.110223 z m 21.298954,-0.0019 c 0.47295,-0.05869 1.24685,-0.05869 1.7198,0 0.47294,0.05869 0.086,0.106713 -0.8599,0.106713 -0.94588,0 -1.33284,-0.04802 -0.8599,-0.106713 z m 21.3026,0.0015 c 0.40219,-0.06082 0.9975,-0.05919 1.32292,0.0036 0.32542,0.0628 -0.004,0.112561 -0.73124,0.110574 -0.72761,-0.002 -0.99386,-0.05337 -0.59168,-0.114185 z m 8.46303,-0.0029 c 0.5457,-0.05708 1.43867,-0.05708 1.98438,0 0.5457,0.05708 0.0992,0.103786 -0.99219,0.103786 -1.09141,0 -1.53789,-0.0467 -0.99219,-0.103786 z"
         id="path23" /><path
         style="fill:#c44e00;fill-opacity:1"
         d="m 100.77579,60.89819 c 0,-1.236927 0.0456,-1.742943 0.10128,-1.124479 0.0557,0.618463 0.0557,1.630495 0,2.248958 -0.0557,0.618464 -0.10128,0.112448 -0.10128,-1.124479 z M 79.36651,52.431523 c 0,-3.56526 0.03745,-5.023776 0.08323,-3.241146 0.04578,1.78263 0.04578,4.699662 0,6.482292 -0.04577,1.78263 -0.08323,0.324115 -0.08323,-3.241146 z m 42.8625,0 c 0,-3.56526 0.0374,-5.023776 0.0832,-3.241146 0.0458,1.78263 0.0458,4.699662 0,6.482292 -0.0458,1.78263 -0.0832,0.324115 -0.0832,-3.241146 z m -38.692003,2.513542 c 0.0054,-0.436563 0.06469,-0.583125 0.131773,-0.325694 0.06708,0.257431 0.06267,0.614619 -0.0098,0.79375 -0.07248,0.179132 -0.127362,-0.03149 -0.12197,-0.468056 z m 17.253433,-4.7625 c 3.4e-4,-2.328334 0.0408,-3.245415 0.09,-2.037958 0.0491,1.207456 0.0489,3.112456 -6.1e-4,4.233333 -0.0495,1.120877 -0.0897,0.132958 -0.0893,-2.195375 z m -17.253433,1.322916 c 0.0054,-0.436562 0.06469,-0.583124 0.131773,-0.325693 0.06708,0.257431 0.06267,0.614618 -0.0098,0.79375 -0.07248,0.179131 -0.127362,-0.03149 -0.12197,-0.468057 z m -0.03069,-4.255382 c 0.0127,-0.308224 0.07539,-0.370919 0.159852,-0.159852 0.07643,0.190996 0.06703,0.419199 -0.02089,0.507118 -0.08792,0.08792 -0.150453,-0.06835 -0.138964,-0.347266 z"
         id="path22" /><path
         style="fill:#c44e00;fill-opacity:1"
         d="m 70.639077,50.314856 c 0,-4.729427 0.03588,-6.664193 0.07973,-4.299479 0.04385,2.364714 0.04385,6.234245 0,8.598959 -0.04385,2.364713 -0.07973,0.429948 -0.07973,-4.29948 z m 68.791083,0.132292 c -1.1e-4,-4.511146 0.036,-6.393811 0.0802,-4.1837 0.0442,2.210111 0.0443,5.901049 2e-4,8.202084 -0.0441,2.301035 -0.0803,0.492762 -0.0804,-4.018384 z m -37.48305,3.906971 c 0.62231,-0.05589 1.57481,-0.05511 2.11667,0.0017 0.54185,0.05685 0.0327,0.102583 -1.13148,0.101622 -1.16416,-9.61e-4 -1.6075,-0.04748 -0.98519,-0.103369 z"
         id="path21" /><path
         style="fill:#c44e00;fill-opacity:1"
         d="M 87.983344,65.131524 V 63.014857 H 77.267718 66.552093 V 50.182565 37.350273 h 38.496877 38.49688 v 12.832292 12.832292 h -19.31459 -19.31458 v 2.116667 2.116666 H 96.450011 87.983344 Z M 100.94793,60.89819 v -2.116667 h 4.23333 4.23333 v -8.602574 -8.602574 l -8.64037,0.06976 -8.64037,0.06976 0.0084,0.926041 c 0.0046,0.509323 0.02328,5.301589 0.04141,10.64948 l 0.03297,9.723438 h 4.365625 4.365625 z m 0,-10.715625 v -4.101042 h 1.98437 1.98438 v 4.101042 4.101042 h -1.98438 -1.98437 z m -21.431254,2.248958 v -6.35 h 1.984376 1.984375 v 6.35 6.35 h 2.248958 2.248959 v -8.602574 -8.602574 l -8.665105,0.06976 -8.665105,0.06976 -0.06981,8.532813 -0.06981,8.532812 h 4.501582 4.501582 z m 42.862504,0 v -6.35 h 1.98437 1.98438 v 6.35 6.35 h 2.24896 2.24896 v -6.361129 -6.36113 l 2.05052,0.07728 2.05052,0.07728 v 6.293303 6.293304 l 2.24896,-0.07559 2.24895,-0.07559 v -8.466667 -8.466667 l -12.89843,-0.06866 -12.89844,-0.06866 v 8.601476 8.601475 h 4.36562 4.36563 z"
         id="path20" /></g></g></svg>
