<?xml version="1.0" encoding="UTF-8" standalone="no"?>
<!-- Created with Inkscape (http://www.inkscape.org/) -->

<svg
   width="160.71785mm"
   height="144.97218mm"
   viewBox="0 0 160.71785 144.97219"
   version="1.1"
   id="svg1"
   xml:space="preserve"
   inkscape:export-filename="bitmap.svg"
   inkscape:export-xdpi="96"
   inkscape:export-ydpi="96"
   inkscape:version="1.3.2 (091e20e, 2023-11-25, custom)"
   sodipodi:docname="redux-toolkit.svg"
   xmlns:inkscape="http://www.inkscape.org/namespaces/inkscape"
   xmlns:sodipodi="http://sodipodi.sourceforge.net/DTD/sodipodi-0.dtd"
   xmlns="http://www.w3.org/2000/svg"
   xmlns:svg="http://www.w3.org/2000/svg"><sodipodi:namedview
     id="namedview1"
     pagecolor="#ffffff"
     bordercolor="#000000"
     borderopacity="0.25"
     inkscape:showpageshadow="2"
     inkscape:pageopacity="0.0"
     inkscape:pagecheckerboard="0"
     inkscape:deskcolor="#d1d1d1"
     inkscape:document-units="mm"
     inkscape:zoom="0.44631734"
     inkscape:cx="174.76354"
     inkscape:cy="155.7188"
     inkscape:window-width="1366"
     inkscape:window-height="697"
     inkscape:window-x="-8"
     inkscape:window-y="-8"
     inkscape:window-maximized="1"
     inkscape:current-layer="layer1" /><defs
     id="defs1" /><g
     inkscape:label="Layer 1"
     inkscape:groupmode="layer"
     id="layer1"
     transform="translate(-58.809452,-12.024675)"><g
       id="g16"
       transform="matrix(2.6536386,-0.08257053,0.08744996,2.5055743,-212.19198,-179.76813)"
       style="fill:#0000ff"><path
         style="fill:#0000ff;fill-opacity:1"
         d="m 155.06995,124.00552 c 0.0127,-0.30822 0.0754,-0.37092 0.15985,-0.15985 0.0764,0.191 0.067,0.4192 -0.0209,0.50712 -0.0879,0.0879 -0.15046,-0.0683 -0.13897,-0.34727 z m -41.275,-19.57916 c 0.0127,-0.30823 0.0754,-0.37092 0.15985,-0.15986 0.0764,0.191 0.067,0.4192 -0.0209,0.50712 -0.0879,0.0879 -0.15046,-0.0683 -0.13897,-0.34726 z m 0.0209,-2.22691 c 0,-0.36381 0.0601,-0.51263 0.13345,-0.33073 0.0734,0.1819 0.0734,0.47955 0,0.66145 -0.0734,0.18191 -0.13345,0.0331 -0.13345,-0.33072 z m 21.09114,-14.750525 c -0.32911,-0.419644 -0.31975,-0.429002 0.0999,-0.0999 0.25466,0.19972 0.46302,0.408079 0.46302,0.463021 0,0.05494 -0.045,0.0999 -0.0999,0.0999 -0.0549,0 -0.2633,-0.208359 -0.46302,-0.463021 z"
         id="path20" /><path
         style="fill:#0000ff;fill-opacity:1"
         d="m 115.31195,138.00204 c 0.191,-0.0764 0.4192,-0.067 0.50712,0.0209 0.0879,0.0879 -0.0683,0.15045 -0.34726,0.13896 -0.30823,-0.0127 -0.37092,-0.0754 -0.15986,-0.15985 z m 39.20795,-4.15249 c 0,-0.0549 0.20836,-0.2633 0.46302,-0.46302 0.41964,-0.32911 0.429,-0.31975 0.0999,0.0999 -0.19972,0.25467 -0.40808,0.46302 -0.46302,0.46302 -0.0549,0 -0.0999,-0.045 -0.0999,-0.0999 z m -22.88646,-7.57302 c 0.26339,-0.29104 0.53842,-0.52917 0.61118,-0.52917 0.0728,0 -0.0832,0.23813 -0.3466,0.52917 -0.26339,0.29104 -0.53842,0.52916 -0.61118,0.52916 -0.0728,0 0.0832,-0.23812 0.3466,-0.52916 z m -30.5078,-3.04271 c 0.005,-0.43656 0.0647,-0.58312 0.13178,-0.32569 0.0671,0.25743 0.0627,0.61461 -0.01,0.79375 -0.0725,0.17913 -0.12736,-0.0315 -0.12197,-0.46806 z m 17.36131,-5.34012 c 0.191,-0.0764 0.4192,-0.067 0.50712,0.0209 0.0879,0.0879 -0.0683,0.15046 -0.34726,0.13897 -0.30823,-0.0127 -0.37092,-0.0754 -0.15986,-0.15986 z m 33.50696,-8.08748 -1.04589,-1.12448 1.12448,1.04588 c 0.61847,0.57524 1.12448,1.08125 1.12448,1.12448 0,0.0432 -0.0354,0.0786 -0.0786,0.0786 -0.0432,0 -0.54925,-0.50602 -1.12448,-1.12448 z m -38.19896,-8.55486 c 0.0127,-0.30823 0.0754,-0.37092 0.15985,-0.15986 0.0764,0.191 0.067,0.4192 -0.0209,0.50712 -0.0879,0.0879 -0.15046,-0.0683 -0.13897,-0.34726 z m 29.74474,-1.697748 c 0.0899,-0.145521 0.21603,-0.264583 0.2802,-0.264583 0.0642,0 0.11667,0.119062 0.11667,0.264583 0,0.145521 -0.12609,0.264584 -0.28019,0.264584 -0.15411,0 -0.20662,-0.119063 -0.11668,-0.264584 z M 118.80115,88.341218 c 0,-0.05494 0.20836,-0.263302 0.46302,-0.463021 0.41964,-0.329108 0.429,-0.319749 0.0999,0.0999 -0.19972,0.254661 -0.40808,0.463021 -0.46302,0.463021 -0.0549,0 -0.0999,-0.04495 -0.0999,-0.0999 z m -2.38125,-2.67823 c 0.34177,-0.363802 0.68094,-0.661459 0.7537,-0.661459 0.0728,0 -0.14735,0.297657 -0.48912,0.661459 -0.34177,0.363802 -0.68094,0.661458 -0.7537,0.661458 -0.0728,0 0.14734,-0.297656 0.48912,-0.661458 z m 21.28231,-0.463021 -0.7771,-0.859896 0.85989,0.777105 c 0.47294,0.427408 0.8599,0.814361 0.8599,0.859896 0,0.04553 -0.0373,0.08279 -0.0828,0.08279 -0.0455,0 -0.43249,-0.386953 -0.8599,-0.859896 z m -8.89651,-4.347928 c 0.191,-0.07643 0.4192,-0.06703 0.50712,0.02089 0.0879,0.08792 -0.0683,0.150453 -0.34726,0.138964 -0.30823,-0.0127 -0.37092,-0.07539 -0.15986,-0.159852 z"
         id="path19" /><path
         style="fill:#0000ff;fill-opacity:1"
         d="m 104.35622,131.23747 -0.50403,-0.59532 0.59531,0.50403 c 0.32742,0.27722 0.59531,0.54511 0.59531,0.59531 0,0.0502 -0.0411,0.0913 -0.0913,0.0913 -0.0502,0 -0.3181,-0.26789 -0.59531,-0.59531 z m 27.93868,-5.59 c 0,-0.055 0.20836,-0.2633 0.46302,-0.46302 0.41964,-0.32911 0.429,-0.31975 0.0999,0.0999 -0.19972,0.25466 -0.40808,0.46302 -0.46302,0.46302 -0.0549,0 -0.0999,-0.045 -0.0999,-0.0999 z m 2.9313,-9.05028 c 0.0127,-0.30823 0.0754,-0.37092 0.15985,-0.15985 0.0764,0.19099 0.067,0.41919 -0.0209,0.50711 -0.0879,0.0879 -0.15046,-0.0684 -0.13897,-0.34726 z m -30.18339,-2.57429 c 0,-0.0455 0.38696,-0.43248 0.8599,-0.85989 l 0.85989,-0.77711 -0.7771,0.8599 c -0.42741,0.47294 -0.81436,0.8599 -0.8599,0.8599 -0.0455,0 -0.0828,-0.0373 -0.0828,-0.0828 z m 44.56565,-1.57085 -0.7771,-0.8599 0.85989,0.77711 c 0.47294,0.42741 0.8599,0.81436 0.8599,0.85989 0,0.0455 -0.0373,0.0828 -0.0828,0.0828 -0.0455,0 -0.43249,-0.38696 -0.8599,-0.8599 z m -46.02086,-2.05052 c 0.26339,-0.29104 0.53843,-0.52917 0.61119,-0.52917 0.0728,0 -0.0832,0.23813 -0.3466,0.52917 -0.26339,0.29104 -0.53842,0.52917 -0.61118,0.52917 -0.0728,0 0.0832,-0.23813 0.34659,-0.52917 z m 25.06928,-6.01034 c 0.40018,-0.0606 1.05502,-0.0606 1.4552,0 0.40019,0.0606 0.0728,0.11022 -0.7276,0.11022 -0.80036,0 -1.12779,-0.0496 -0.7276,-0.11022 z"
         id="path18" /><path
         style="fill:#0000ff;fill-opacity:1"
         d="m 140.9768,138.30982 c -0.0756,-0.0756 -0.60151,-0.19575 -1.16858,-0.26688 -0.56707,-0.0711 -1.32869,-0.184 -1.69249,-0.2508 -0.3638,-0.0668 -0.84005,-0.15842 -1.05833,-0.20358 -0.21828,-0.0452 -0.51594,-0.15161 -0.66146,-0.23654 -0.14552,-0.0849 -0.62177,-0.25046 -1.05833,-0.36786 -0.43657,-0.1174 -0.88305,-0.23804 -0.99219,-0.26809 -0.10914,-0.0301 -0.28774,-0.0836 -0.39688,-0.11905 -0.10914,-0.0354 -0.28773,-0.0503 -0.39687,-0.0331 -0.10914,0.0172 -0.19844,-0.0948 -0.19844,-0.24887 0,-0.15411 -0.12785,-0.20118 -0.28412,-0.10461 -0.15626,0.0966 -0.12762,-0.075 0.0636,-0.38126 0.19127,-0.30626 0.44387,-0.55685 0.56133,-0.55685 0.11747,0 0.502,-0.31122 0.85453,-0.6916 0.39096,-0.42185 0.97941,-0.71964 1.50872,-0.7635 0.47727,-0.0395 0.98683,0.002 1.13235,0.0922 0.14552,0.0903 0.35388,0.18084 0.46302,0.20126 0.10914,0.0204 0.2282,0.0611 0.26458,0.0904 0.0364,0.0293 0.24474,0.0968 0.46302,0.1499 0.21829,0.0531 0.69454,0.16932 1.05834,0.25823 0.3638,0.0889 1.25677,0.23795 1.98437,0.3312 0.72761,0.0933 1.62058,0.16604 1.98438,0.16174 0.3638,-0.004 1.36312,-0.0864 2.2207,-0.18249 0.85759,-0.0961 1.72079,-0.30875 1.91823,-0.47262 0.19744,-0.16386 0.35898,-0.22181 0.35898,-0.12878 0,0.093 0.59532,-0.13252 1.32292,-0.50123 0.72761,-0.3687 1.32292,-0.78743 1.32292,-0.9305 0,-0.14307 0.15524,-0.26012 0.34497,-0.26012 0.18973,0 0.72552,-0.39262 1.19063,-0.87249 0.4651,-0.47987 0.84565,-1.01566 0.84565,-1.19063 0,-0.17497 0.11906,-0.31813 0.26458,-0.31813 0.14552,0 0.26458,-0.1786 0.26458,-0.39688 0,-0.21828 0.0893,-0.39824 0.19844,-0.39991 0.10914,-0.002 0.41361,-0.45254 0.67659,-1.00193 0.26299,-0.5494 0.50446,-1.17311 0.53661,-1.38603 0.0322,-0.21292 0.13757,-0.51353 0.23427,-0.66803 0.0967,-0.1545 0.13848,-1.28559 0.0928,-2.51354 -0.0456,-1.22795 -0.14876,-2.47076 -0.22916,-2.76181 -0.0804,-0.29104 -0.17017,-0.55893 -0.1995,-0.59531 -0.0293,-0.0364 -0.0831,-0.18521 -0.11946,-0.33073 -0.0364,-0.14552 -0.0959,-0.32411 -0.13229,-0.39687 -0.0364,-0.0728 -0.081,-0.22222 -0.0992,-0.33213 -0.0182,-0.10991 -0.38618,-0.94335 -0.81775,-1.85208 -0.43158,-0.90874 -0.87806,-1.65225 -0.99219,-1.65225 -0.11413,0 -0.20751,-0.18233 -0.20751,-0.40518 0,-0.22285 -0.17859,-0.47371 -0.39687,-0.55747 -0.21829,-0.0838 -0.39688,-0.2692 -0.39688,-0.41209 0,-0.14288 -0.87668,-1.14217 -1.94818,-2.22065 -1.0715,-1.07847 -2.08354,-1.96086 -2.24896,-1.96086 -0.16543,0 -0.30078,-0.11906 -0.30078,-0.26458 0,-0.14553 -0.16585,-0.26459 -0.36856,-0.26459 -0.20272,0 -0.44,-0.18614 -0.5273,-0.41364 -0.0873,-0.22751 -0.27864,-0.33954 -0.42518,-0.24897 -0.14655,0.0906 -0.26646,0.0386 -0.26646,-0.11552 0,-0.15411 -0.16867,-0.2802 -0.37482,-0.2802 -0.20616,0 -0.41452,-0.0984 -0.46302,-0.21867 -0.0485,-0.12026 -0.9514,-0.65597 -2.00643,-1.19046 -1.05502,-0.53449 -1.91823,-0.90959 -1.91823,-0.83357 0,0.076 -0.29765,-0.0568 -0.66145,-0.29517 -0.36381,-0.23838 -0.66146,-0.3456 -0.66146,-0.23829 0,0.10732 -0.1518,0.0691 -0.33733,-0.0848 -0.18552,-0.15398 -0.63201,-0.3204 -0.99218,-0.36983 -0.36018,-0.0494 -0.78718,-0.17297 -0.94889,-0.27454 -0.16172,-0.10157 -0.75703,-0.25732 -1.32292,-0.34611 -0.56589,-0.0888 -1.38608,-0.21143 -1.82264,-0.27252 -0.43656,-0.0611 -1.89712,-0.17667 -3.24569,-0.25685 -1.95763,-0.1164 -2.53103,-0.0667 -2.84427,0.24654 -0.21578,0.21579 -0.39233,0.46887 -0.39233,0.56242 0,0.0936 -0.17009,0.34018 -0.37798,0.54807 -0.20789,0.20789 -0.50554,0.37798 -0.66146,0.37798 -0.15591,0 -0.28348,0.0992 -0.28348,0.22048 0,0.12127 -0.14883,0.24161 -0.33073,0.26743 -0.1819,0.0258 -0.93973,0.0961 -1.68406,0.15615 -1.19874,0.0967 -1.46407,0.0179 -2.32278,-0.6899 -0.5332,-0.4395 -1.21488,-1.28017 -1.51484,-1.86815 -0.29997,-0.58798 -0.48566,-1.32061 -0.41265,-1.62806 0.073,-0.30745 0.20165,-0.85626 0.28587,-1.21958 0.0842,-0.36332 0.27336,-0.70067 0.42032,-0.74965 0.14696,-0.049 0.2672,-0.26148 0.2672,-0.4722 0,-0.210724 0.20836,-0.460008 0.46302,-0.553967 0.25467,-0.09396 0.53448,-0.276731 0.6218,-0.406161 0.0873,-0.12943 0.32546,-0.268324 0.52917,-0.308653 0.20371,-0.04033 0.68723,-0.161727 1.07448,-0.269774 0.48165,-0.134385 1.06678,-0.03259 1.85208,0.322203 0.6314,0.285258 1.52516,0.895384 1.98615,1.355832 0.80516,0.80423 0.9145,0.83457 2.77812,0.77088 1.06699,-0.0365 2.53529,0.0197 3.26289,0.12483 0.72761,0.10513 1.68011,0.25274 2.11667,0.32802 0.43656,0.0753 1.03187,0.18672 1.32292,0.24765 0.29104,0.0609 0.76729,0.16615 1.05833,0.23382 0.29104,0.0677 0.85659,0.24974 1.25677,0.40459 0.40018,0.15484 0.7276,0.21036 0.7276,0.12339 0,-0.087 0.1786,-0.01 0.39688,0.17123 0.21828,0.18116 0.39687,0.25252 0.39687,0.15859 0,-0.0939 0.29766,0.0242 0.66146,0.26262 0.3638,0.23837 0.66146,0.35743 0.66146,0.26458 0,-0.0928 0.2774,0.0129 0.61643,0.23508 0.33904,0.22215 0.69623,0.32411 0.79375,0.22659 0.0975,-0.0975 0.17732,-0.0314 0.17732,0.14698 0,0.17836 0.11906,0.25071 0.26458,0.16077 0.14552,-0.0899 0.26459,-0.0176 0.26459,0.16077 0,0.17837 0.0722,0.25208 0.16048,0.16382 0.0883,-0.0883 0.29663,-0.0462 0.46302,0.0936 0.1664,0.13973 1.0507,0.72789 1.96511,1.30701 0.91442,0.57913 1.76488,1.05296 1.88992,1.05296 0.12505,0 0.29589,0.17859 0.37965,0.39687 0.0838,0.21828 0.25978,0.39688 0.39116,0.39688 0.13138,0 1.25507,1.0162 2.4971,2.25822 1.24202,1.24202 2.32515,2.43265 2.40696,2.64583 0.0818,0.21319 0.27154,0.38761 0.42163,0.38761 0.15009,0 0.27288,0.1786 0.27288,0.39688 0,0.21828 0.11907,0.39687 0.26459,0.39687 0.14552,0 0.26458,0.16867 0.26458,0.37483 0,0.20615 0.0893,0.41451 0.19844,0.46302 0.10914,0.0485 0.48704,0.68351 0.83977,1.41111 0.35273,0.7276 0.67099,1.48104 0.70723,1.67431 0.0362,0.19326 0.15407,0.55045 0.26185,0.79375 0.10778,0.2433 0.22113,0.53165 0.25189,0.64079 0.0308,0.10914 0.0807,0.22821 0.11105,0.26459 0.0303,0.0364 0.098,0.30427 0.15041,0.59531 0.0524,0.29104 0.18618,1.12448 0.29726,1.85208 0.11108,0.72761 0.20078,1.73964 0.19935,2.24896 -10e-4,0.50932 -0.0933,1.46182 -0.20413,2.11667 -0.11083,0.65484 -0.24342,1.42875 -0.29464,1.71979 -0.0512,0.29104 -0.11794,0.55893 -0.14825,0.59531 -0.0303,0.0364 -0.0779,0.15545 -0.10565,0.26459 -0.0278,0.10914 -0.2808,0.67468 -0.56224,1.25677 -0.28144,0.58208 -0.60101,1.09802 -0.71015,1.14652 -0.10914,0.0485 -0.19844,0.19489 -0.19844,0.32529 0,0.1304 -0.67862,0.89438 -1.50804,1.69774 -0.82942,0.80336 -1.54635,1.46065 -1.59317,1.46065 -0.0468,0 -0.5886,0.32631 -1.20394,0.72513 -0.61534,0.39882 -1.19165,0.82571 -1.28068,0.94864 -0.089,0.12293 -0.24232,0.2022 -0.34064,0.17615 -0.0983,-0.026 -0.68032,0.16194 -1.29333,0.41775 -0.61302,0.25582 -1.23364,0.50047 -1.37916,0.54367 -0.14552,0.0432 -0.6813,0.14695 -1.19062,0.23056 -0.50933,0.0836 -1.49745,0.26683 -2.19584,0.40715 -0.69838,0.14032 -1.72034,0.25512 -2.27101,0.25512 -0.55066,0 -1.0631,-0.0619 -1.13875,-0.13754 z m -28.00457,-0.21893 c -0.0772,-0.0796 -0.79158,-0.2144 -1.5875,-0.29951 -0.79592,-0.0851 -1.68525,-0.20054 -1.97629,-0.25651 -0.29104,-0.056 -0.55893,-0.12655 -0.59531,-0.15687 -0.0364,-0.0303 -0.15545,-0.0797 -0.26459,-0.10976 -0.10914,-0.0301 -0.55562,-0.15307 -0.99219,-0.27337 -0.43656,-0.12029 -1.04137,-0.37889 -1.34403,-0.57467 -0.30266,-0.19577 -0.63008,-0.27615 -0.72761,-0.17863 -0.0975,0.0975 -0.17731,0.0314 -0.17731,-0.14698 0,-0.17836 -0.11907,-0.25071 -0.26459,-0.16077 -0.14552,0.0899 -0.26458,0.0575 -0.26458,-0.072 0,-0.12952 -0.3238,-0.40443 -0.71957,-0.61093 -0.39576,-0.20649 -0.91801,-0.53779 -1.16055,-0.73623 -0.24255,-0.19844 -0.73865,-0.65845 -1.10246,-1.02225 -0.3638,-0.3638 -0.82381,-0.86108 -1.02225,-1.10506 -0.19844,-0.24398 -0.65091,-1.03412 -1.005506,-1.75587 -0.354591,-0.72175 -0.66713,-1.40157 -0.694531,-1.51071 -0.0274,-0.10914 -0.07959,-0.25797 -0.115967,-0.33073 -0.03638,-0.0728 -0.09591,-0.25135 -0.132291,-0.39688 -0.03638,-0.14552 -0.09014,-0.29434 -0.119463,-0.33072 -0.02932,-0.0364 -0.103645,-0.30428 -0.165158,-0.59532 -0.06151,-0.29104 -0.19689,-1.06494 -0.300837,-1.71979 -0.103948,-0.65484 -0.18384,-1.7264 -0.177536,-2.38125 0.0063,-0.65484 0.08166,-1.66687 0.167457,-2.24896 0.0858,-0.58208 0.276348,-1.44528 0.423444,-1.91823 0.147095,-0.47294 0.213481,-0.85989 0.147524,-0.85989 -0.06596,0 0.05561,-0.26789 0.270142,-0.59531 0.214535,-0.32743 0.411994,-0.71438 0.438798,-0.8599 0.0268,-0.14552 0.240973,-0.6813 0.475931,-1.19062 0.234963,-0.50933 0.517233,-0.96598 0.627283,-1.01479 0.11005,-0.0488 0.13279,-0.19764 0.0505,-0.33073 -0.0823,-0.13309 -0.0235,-0.24198 0.13064,-0.24198 0.15411,0 0.2802,-0.16586 0.2802,-0.36857 0,-0.20271 0.1786,-0.4371 0.39688,-0.52087 0.21828,-0.0838 0.39687,-0.27317 0.39687,-0.42091 0,-0.14774 0.88809,-1.15671 1.97353,-2.24215 1.08544,-1.08544 2.21654,-2.10358 2.51354,-2.26253 0.29701,-0.15896 0.54913,-0.19552 0.56026,-0.0813 0.0111,0.11426 0.0637,0.38634 0.11682,0.60462 0.0531,0.21828 0.16308,0.66476 0.24434,0.99219 0.0813,0.32742 0.19957,0.82884 0.2629,1.11426 0.0824,0.37145 -0.40643,1.04052 -1.7198,2.35388 -1.0092,1.00921 -1.83492,1.96631 -1.83492,2.12688 0,0.16058 -0.11906,0.29196 -0.26458,0.29196 -0.14552,0 -0.26459,0.17859 -0.26459,0.39687 0,0.21828 -0.1028,0.39688 -0.22845,0.39688 -0.12565,0 -0.53512,0.6846 -0.90994,1.52135 -0.37483,0.83674 -0.76397,1.87854 -0.86476,2.3151 -0.10079,0.43657 -0.19276,1.86532 -0.20436,3.175 -0.0116,1.30969 0.0831,2.61938 0.21046,2.91042 0.12736,0.29104 0.24184,0.59255 0.25441,0.67003 0.0126,0.0775 0.24929,0.64302 0.52606,1.25677 0.27676,0.61375 0.60418,1.11591 0.7276,1.11591 0.12342,0 0.2244,0.12683 0.2244,0.28184 0,0.15501 0.64708,0.92891 1.43795,1.71979 0.79088,0.79087 1.62431,1.43795 1.85209,1.43795 0.22777,0 0.41413,0.12609 0.41413,0.2802 0,0.15411 0.11906,0.20661 0.26458,0.11668 0.14552,-0.0899 0.26458,-0.0374 0.26458,0.11667 0,0.15411 0.0893,0.2661 0.19844,0.24887 0.10914,-0.0172 0.28774,-0.002 0.39688,0.0331 0.10914,0.0354 0.3175,0.0942 0.46302,0.13055 0.14552,0.0364 0.29435,0.0901 0.33073,0.11947 0.0364,0.0293 0.30427,0.11056 0.59531,0.18052 0.29104,0.07 0.94588,0.20659 1.45521,0.3036 0.50932,0.097 1.81901,0.17638 2.91041,0.17638 1.09141,0 2.46063,-0.0912 3.04271,-0.20274 0.58209,-0.11151 1.26435,-0.20528 1.51615,-0.20839 0.25179,-0.003 0.52791,-0.11906 0.61359,-0.2577 0.0857,-0.13863 0.27184,-0.18034 0.41368,-0.0927 0.14184,0.0877 0.43127,0.0155 0.64317,-0.16038 0.21191,-0.17586 0.38529,-0.24146 0.38529,-0.14576 0,0.0957 0.26789,0.0252 0.59531,-0.15666 0.32742,-0.18187 0.65484,-0.33776 0.7276,-0.34644 0.0728,-0.009 0.84667,-0.3657 1.7198,-0.7934 0.87312,-0.42769 1.62743,-0.87204 1.67624,-0.98744 0.0488,-0.11539 0.19764,-0.14251 0.33073,-0.0602 0.13309,0.0822 0.24198,0.0235 0.24198,-0.13065 0,-0.15411 0.1786,-0.2802 0.39688,-0.2802 0.21828,0 0.39687,-0.11906 0.39687,-0.26458 0,-0.14552 0.1786,-0.26458 0.39688,-0.26458 0.21828,0 0.39687,-0.12609 0.39687,-0.2802 0,-0.15411 0.11991,-0.20609 0.26646,-0.11552 0.14654,0.0906 0.33788,-0.0215 0.42518,-0.24897 0.0873,-0.2275 0.31185,-0.41365 0.49899,-0.41365 0.18714,0 0.40879,-0.17859 0.49255,-0.39687 0.0838,-0.21828 0.27832,-0.39688 0.43234,-0.39688 0.15402,0 0.70825,-0.38695 1.23162,-0.85989 0.52338,-0.47294 1.20477,-1.11869 1.51421,-1.43499 0.30943,-0.31631 0.89003,-0.93379 1.29022,-1.37219 0.40018,-0.4384 0.7276,-0.85808 0.7276,-0.93263 0,-0.0745 0.30053,-0.45981 0.66784,-0.85615 0.36732,-0.39633 0.73741,-0.99778 0.82244,-1.33654 0.085,-0.33877 0.24163,-0.61594 0.34802,-0.61594 0.10638,0 0.32302,-0.28442 0.48141,-0.63204 0.22983,-0.50443 0.19834,-0.73355 -0.15597,-1.13481 -0.24417,-0.27652 -0.49295,-0.67671 -0.55285,-0.88931 -0.0599,-0.2126 -0.14117,-1.01162 -0.18061,-1.77561 -0.0408,-0.79003 0.0414,-1.38906 0.19067,-1.38906 0.1443,0 0.18878,-0.11906 0.0988,-0.26458 -0.0899,-0.14553 -0.0513,-0.26459 0.0858,-0.26459 0.13714,0 0.30977,-0.2311 0.38364,-0.51356 0.0739,-0.28246 0.59377,-0.71129 1.15534,-0.95296 0.56157,-0.24167 1.49729,-0.44157 2.07937,-0.44424 0.58208,-0.003 1.41552,0.15743 1.85208,0.35575 0.43656,0.19833 0.98305,0.54004 1.21441,0.75936 0.23137,0.21933 0.51724,0.6369 0.63528,0.92794 0.11804,0.29105 0.26982,0.70776 0.3373,0.92605 0.0675,0.21828 0.12269,0.69453 0.12269,1.05833 0,0.3638 -0.0552,0.84005 -0.12269,1.05833 -0.0675,0.21828 -0.22087,0.62591 -0.34088,0.90583 -0.12,0.27993 -0.43564,0.72641 -0.70142,0.99219 -0.26577,0.26578 -0.60229,0.48323 -0.74781,0.48323 -0.14552,0 -0.26459,0.11906 -0.26459,0.26459 0,0.14552 -0.0893,0.25048 -0.19843,0.23325 -0.10914,-0.0172 -0.28774,-0.002 -0.39688,0.0331 -0.10914,0.0354 -0.3175,0.0942 -0.46302,0.13055 -0.14552,0.0364 -0.36556,0.081 -0.48898,0.0992 -0.12342,0.0182 -0.44874,0.53909 -0.72292,1.15755 -0.27419,0.61846 -0.64946,1.28181 -0.83393,1.47411 -0.18448,0.19229 -0.33542,0.51972 -0.33542,0.7276 0,0.20789 -0.11906,0.37798 -0.26458,0.37798 -0.14552,0 -0.26459,0.16585 -0.26459,0.36857 0,0.20271 -0.17859,0.4371 -0.39687,0.52086 -0.21828,0.0838 -0.39688,0.30598 -0.39688,0.49383 0,0.18784 -0.23812,0.49024 -0.52916,0.672 -0.29104,0.18176 -0.52917,0.44952 -0.52917,0.59502 0,0.1455 -0.78828,1.03746 -1.75173,1.98213 -0.96346,0.94468 -1.85224,1.71759 -1.97507,1.71759 -0.12283,0 -0.35077,0.23812 -0.50653,0.52916 -0.15576,0.29105 -0.45761,0.52917 -0.67077,0.52917 -0.21316,0 -0.38757,0.11906 -0.38757,0.26458 0,0.14553 -0.17859,0.26459 -0.39687,0.26459 -0.21828,0 -0.39688,0.11906 -0.39688,0.26458 0,0.14552 -0.17859,0.26458 -0.39687,0.26458 -0.21828,0 -0.39688,0.10616 -0.39688,0.23591 0,0.12974 -0.29765,0.3106 -0.66145,0.40191 -0.36381,0.0913 -0.66146,0.28984 -0.66146,0.44117 0,0.15134 -0.11907,0.20158 -0.26459,0.11164 -0.14552,-0.0899 -0.26458,-0.0304 -0.26458,0.13229 0,0.1627 -0.11906,0.22223 -0.26458,0.13229 -0.14552,-0.0899 -0.26459,-0.0176 -0.26459,0.16078 0,0.17836 -0.0746,0.24967 -0.16583,0.15846 -0.0912,-0.0912 -0.5377,0.0325 -0.99219,0.27488 -0.45449,0.2424 -0.91565,0.41624 -1.02479,0.38632 -0.10914,-0.0299 -0.19844,0.0647 -0.19844,0.21019 0,0.14552 -0.0893,0.25048 -0.19843,0.23325 -0.10914,-0.0172 -0.28774,-0.002 -0.39688,0.0331 -0.10914,0.0354 -0.3175,0.0942 -0.46302,0.13055 -0.14552,0.0364 -0.32411,0.0959 -0.39687,0.13229 -0.0728,0.0364 -0.25136,0.0959 -0.39688,0.1323 -0.14552,0.0364 -0.29435,0.0901 -0.33073,0.11946 -0.0364,0.0293 -0.24474,0.0968 -0.46302,0.1499 -0.21828,0.0531 -0.69453,0.16892 -1.05833,0.25735 -0.36381,0.0884 -1.06493,0.21763 -1.55806,0.28712 -0.49313,0.0695 -1.02084,0.20313 -1.17268,0.29697 -0.15184,0.0939 -0.58181,0.19696 -0.95548,0.22915 -0.37368,0.0322 -1.33425,0.14271 -2.13462,0.24561 -0.80036,0.1029 -1.51837,0.12195 -1.59558,0.0423 z m 4.71641,-11.84784 c -0.17459,-0.1079 -0.41242,-0.13749 -0.52851,-0.0657 -0.11608,0.0717 -0.21107,-0.0155 -0.21107,-0.19385 0,-0.17836 -0.0725,-0.25178 -0.16113,-0.16316 -0.0886,0.0886 -0.50192,-0.21196 -0.91842,-0.66798 -0.41651,-0.45601 -0.92686,-1.32679 -1.13411,-1.93505 -0.29798,-0.87452 -0.31476,-1.33852 -0.0802,-2.21735 0.2792,-1.04602 0.23745,-1.22642 -0.70964,-3.06621 -0.55346,-1.07514 -1.0088,-2.04886 -1.01187,-2.16381 -0.003,-0.11495 -0.13844,-0.44712 -0.30083,-0.73816 -0.1624,-0.29104 -0.31437,-0.61847 -0.33771,-0.72761 -0.0233,-0.10914 -0.0662,-0.2282 -0.0952,-0.26458 -0.029,-0.0364 -0.10579,-0.35446 -0.17063,-0.70684 -0.0648,-0.35238 -0.24917,-0.79886 -0.40962,-0.99219 -0.16044,-0.19332 -0.22838,-0.35149 -0.15097,-0.35149 0.0774,0 -0.0327,-0.62508 -0.24473,-1.38906 -0.21201,-0.76399 -0.43801,-1.68672 -0.50223,-2.05052 -0.0642,-0.36381 -0.18505,-1.19724 -0.26851,-1.85209 -0.0835,-0.65484 -0.14977,-2.20265 -0.14736,-3.43958 0.002,-1.23693 0.0634,-2.78474 0.13554,-3.439584 0.0721,-0.654844 0.24958,-1.663533 0.39433,-2.241531 0.14475,-0.577997 0.21127,-1.102824 0.14781,-1.16628 -0.0635,-0.06346 -0.005,-0.248361 0.12989,-0.410898 0.13489,-0.162537 0.30266,-0.649742 0.37282,-1.082677 0.0702,-0.432936 0.15224,-0.816922 0.18239,-0.853302 0.0302,-0.03638 0.0846,-0.185208 0.12098,-0.330729 0.0364,-0.145521 0.0959,-0.324114 0.13229,-0.396875 0.0364,-0.07276 0.0853,-0.221588 0.10859,-0.330729 0.0234,-0.109141 0.18287,-0.450673 0.3545,-0.758962 0.17162,-0.308288 0.23686,-0.63571 0.14496,-0.727604 -0.0919,-0.09189 -0.0211,-0.16708 0.15722,-0.16708 0.17836,0 0.25071,-0.119062 0.16077,-0.264583 -0.0899,-0.145521 -0.0304,-0.264583 0.13229,-0.264583 0.1627,0 0.22223,-0.119063 0.1323,-0.264584 -0.0899,-0.145521 -0.0397,-0.264583 0.11163,-0.264583 0.15134,0 0.34987,-0.297656 0.44117,-0.661458 0.0913,-0.363803 0.27217,-0.661459 0.40192,-0.661459 0.12974,0 0.2359,-0.178594 0.2359,-0.396875 0,-0.218281 0.11906,-0.396875 0.26458,-0.396875 0.14552,0 0.26459,-0.113213 0.26459,-0.251585 0,-0.138372 0.79916,-1.03134 1.77592,-1.984375 0.97675,-0.953034 1.81274,-1.73279 1.85775,-1.73279 0.045,0 0.5853,-0.326307 1.20065,-0.725128 0.61534,-0.39882 1.17833,-0.785773 1.25109,-0.859895 0.0728,-0.07412 0.25136,-0.163776 0.39688,-0.199231 0.14552,-0.03545 0.97896,-0.316628 1.85208,-0.624831 0.87313,-0.308202 2.12328,-0.62716 2.77813,-0.708795 0.65484,-0.08163 1.42875,-0.148426 1.71979,-0.148426 0.29104,0 1.06495,0.07564 1.71979,0.168093 0.65484,0.09245 1.42875,0.222947 1.71979,0.289993 0.29104,0.06705 0.55893,0.145892 0.59531,0.175216 0.0364,0.02932 0.18521,0.08308 0.33073,0.119463 0.14552,0.03638 0.35388,0.09513 0.46302,0.130551 0.10915,0.03542 0.28774,0.05031 0.39688,0.03307 0.10914,-0.01723 0.19844,0.09476 0.19844,0.248866 0,0.154109 0.11906,0.206613 0.26458,0.116676 0.14552,-0.08994 0.26458,-0.03041 0.26458,0.132292 0,0.162697 0.11907,0.222229 0.26459,0.132292 0.14552,-0.08994 0.26458,-0.0397 0.26458,0.111636 0,0.151336 0.29766,0.349864 0.66146,0.441172 0.3638,0.09131 0.66146,0.272171 0.66146,0.401916 0,0.129746 0.11716,0.235901 0.26036,0.235901 0.14321,0 1.00641,0.785202 1.91823,1.744893 0.91183,0.959691 1.80669,1.903687 1.98859,2.097768 0.18191,0.194081 0.33073,0.470519 0.33073,0.614308 0,0.143788 0.0893,0.301121 0.19844,0.349628 0.10914,0.04851 0.54828,0.802569 0.97586,1.675694 0.42759,0.873125 0.79966,1.676797 0.82683,1.785938 0.0272,0.10914 0.0734,0.228203 0.10271,0.264583 0.0293,0.03638 0.0946,0.283803 0.14499,0.549828 0.0504,0.266025 0.17835,0.682744 0.2843,0.926042 0.10595,0.243297 0.22722,0.561422 0.26949,0.706942 0.0423,0.145521 0.15246,0.56224 0.24486,0.926042 0.0924,0.363802 0.22269,1.018646 0.28953,1.455208 0.0668,0.436563 0.15478,1.176417 0.19541,1.644121 0.0422,0.486063 -0.0641,0.903316 -0.2482,0.973957 -0.17714,0.06797 -0.40316,0.04249 -0.50227,-0.05662 -0.0991,-0.09911 -0.28935,-0.195091 -0.42274,-0.213281 -0.1334,-0.01819 -0.2723,-0.05707 -0.30869,-0.08639 -0.0364,-0.02932 -0.30427,-0.110715 -0.59531,-0.18087 -0.29104,-0.07015 -0.66846,-0.140419 -0.83872,-0.156145 -0.17026,-0.01573 -0.39799,-0.455233 -0.50606,-0.976682 -0.10808,-0.52145 -0.21854,-1.067153 -0.24546,-1.212674 -0.0269,-0.145521 -0.0762,-0.324115 -0.10949,-0.396875 -0.0333,-0.07276 -0.10401,-0.310885 -0.15713,-0.529167 -0.0531,-0.218281 -0.15175,-0.641508 -0.21919,-0.940505 -0.0674,-0.298997 -0.33091,-1.013372 -0.5855,-1.5875 -0.25459,-0.574128 -0.44449,-1.133166 -0.42202,-1.242307 0.0225,-0.109141 -0.0852,-0.198438 -0.23933,-0.198438 -0.15411,0 -0.20662,-0.119062 -0.11668,-0.264583 0.0899,-0.145521 0.0503,-0.264583 -0.088,-0.264583 -0.13834,0 -0.32623,-0.297656 -0.41754,-0.661458 -0.0913,-0.363803 -0.28281,-0.661459 -0.42555,-0.661459 -0.14275,0 -0.25955,-0.18233 -0.25955,-0.405179 0,-0.222848 -0.17859,-0.473711 -0.39687,-0.557474 -0.21828,-0.08376 -0.39688,-0.28187 -0.39688,-0.440239 0,-0.158369 -0.31993,-0.621881 -0.71096,-1.030026 -0.39102,-0.408145 -0.86136,-0.742082 -1.04518,-0.742082 -0.18383,0 -0.42944,-0.157332 -0.54581,-0.349628 -0.11637,-0.192295 -0.76415,-0.61335 -1.43951,-0.935676 -0.67535,-0.322327 -1.50879,-0.662929 -1.85208,-0.756892 -0.34329,-0.09396 -1.27901,-0.169638 -2.07937,-0.168166 -0.80037,0.0015 -1.98812,0.09042 -2.63944,0.19767 -0.65133,0.107247 -1.33594,0.320898 -1.52136,0.474782 -0.18541,0.153883 -0.33712,0.201488 -0.33712,0.10579 0,-0.0957 -0.26789,-0.02545 -0.59531,0.156106 -0.32742,0.181557 -0.68461,0.304808 -0.79375,0.273892 -0.10914,-0.03092 -0.19844,0.06988 -0.19844,0.223987 0,0.154109 -0.11906,0.206614 -0.26458,0.116677 -0.14552,-0.08994 -0.26459,-0.0397 -0.26459,0.111636 0,0.151336 -0.29765,0.349864 -0.66145,0.441173 -0.36381,0.09131 -0.66146,0.265674 -0.66146,0.387478 0,0.121805 -0.32634,0.377873 -0.7252,0.56904 -0.39885,0.191167 -0.8816,0.673914 -1.07277,1.07277 -0.19116,0.398857 -0.46014,0.725195 -0.59772,0.725195 -0.13758,0 -0.25015,0.178593 -0.25015,0.396875 0,0.218281 -0.11906,0.396875 -0.26458,0.396875 -0.14552,0 -0.26458,0.178593 -0.26458,0.396875 0,0.218281 -0.1168,0.396875 -0.25955,0.396875 -0.14274,0 -0.33425,0.297656 -0.42555,0.661458 -0.0913,0.363802 -0.2792,0.661458 -0.41753,0.661458 -0.13834,0 -0.17794,0.119063 -0.088,0.264583 0.0899,0.145521 0.0374,0.264584 -0.11667,0.264584 -0.15411,0 -0.25491,0.0893 -0.22399,0.198437 0.0309,0.109141 -0.0923,0.466328 -0.27389,0.79375 -0.18156,0.327422 -0.25181,0.595313 -0.15611,0.595313 0.0957,0 0.0427,0.158172 -0.11772,0.351495 -0.16044,0.193322 -0.32729,0.580275 -0.37078,0.859895 -0.0435,0.279621 -0.16137,0.640115 -0.26196,0.801099 -0.10059,0.160984 -0.25798,0.815828 -0.34974,1.455209 -0.0918,0.63938 -0.20519,1.579229 -0.25204,2.088552 -0.0469,0.509328 -0.0939,1.938078 -0.10462,3.175008 -0.0107,1.23692 0.0374,2.78474 0.10693,3.43958 0.0695,0.65484 0.17872,1.48828 0.24271,1.85208 0.064,0.3638 0.1923,0.95912 0.28514,1.32292 0.0928,0.3638 0.23249,1.01864 0.31033,1.45521 0.0778,0.43656 0.26398,0.94258 0.41364,1.12448 0.14966,0.1819 0.1843,0.33073 0.077,0.33073 -0.10732,0 -9e-5,0.29765 0.23828,0.66145 0.23838,0.36381 0.36142,0.66146 0.27344,0.66146 -0.088,0 0.0863,0.39846 0.38727,0.88545 0.30098,0.487 0.46944,0.96325 0.37435,1.05834 -0.0951,0.0951 -0.0269,0.17288 0.15142,0.17288 0.17836,0 0.25071,0.11906 0.16077,0.26458 -0.0899,0.14552 -0.0635,0.26459 0.0587,0.26459 0.12221,0 0.35702,0.35718 0.5218,0.79375 0.24474,0.64838 0.46129,0.80113 1.18249,0.83404 0.48558,0.0222 1.00194,0.0634 1.14746,0.0917 0.14552,0.0283 0.50271,0.15319 0.79375,0.27757 0.29104,0.12438 0.74465,0.47006 1.00801,0.76817 0.26337,0.29812 0.7201,1.05863 1.01497,1.69003 0.37274,0.79815 0.47564,1.36256 0.33765,1.85208 -0.10916,0.38725 -0.17895,0.79339 -0.15507,0.90253 0.0239,0.10914 -0.0827,0.19844 -0.2368,0.19844 -0.15411,0 -0.20661,0.11906 -0.11668,0.26458 0.0899,0.14552 0.0455,0.26458 -0.0988,0.26458 -0.1443,0 -0.33794,0.23813 -0.43031,0.52917 -0.0924,0.29104 -0.3286,0.52917 -0.52495,0.52917 -0.19635,0 -0.39708,0.12024 -0.44607,0.2672 -0.049,0.14697 -0.38633,0.33209 -0.74965,0.41138 -0.36332,0.0793 -0.9883,0.17426 -1.38885,0.21103 -0.40054,0.0368 -0.87111,-0.0214 -1.0457,-0.12934 z"
         id="path17" /><path
         style="fill:#0000ff;fill-opacity:1"
         d="m 139.38904,138.00204 c 0.19099,-0.0764 0.4192,-0.067 0.50712,0.0209 0.0879,0.0879 -0.0684,0.15045 -0.34727,0.13896 -0.30822,-0.0127 -0.37092,-0.0754 -0.15985,-0.15985 z m 5.82083,0 c 0.191,-0.0764 0.4192,-0.067 0.50712,0.0209 0.0879,0.0879 -0.0684,0.15045 -0.34727,0.13896 -0.30822,-0.0127 -0.37092,-0.0754 -0.15985,-0.15985 z m -12.24222,-1.91765 c -0.0837,-0.13546 -0.0511,-0.30882 0.0726,-0.38523 0.12365,-0.0764 0.22481,0.0344 0.22481,0.2463 0,0.21188 -0.0327,0.38523 -0.0726,0.38523 -0.0399,0 -0.14108,-0.11083 -0.22481,-0.2463 z m 10.10902,-0.98726 c 0.1819,-0.0734 0.47956,-0.0734 0.66146,0 0.1819,0.0734 0.0331,0.13346 -0.33073,0.13346 -0.3638,0 -0.51263,-0.0601 -0.33073,-0.13346 z m -30.29479,-0.54668 c 0.5457,-0.0571 1.43867,-0.0571 1.98437,0 0.5457,0.0571 0.0992,0.10379 -0.99219,0.10379 -1.0914,0 -1.53789,-0.0467 -0.99218,-0.10379 z m 41.87031,-1.13017 c 0.56839,-0.58209 1.09297,-1.05834 1.16573,-1.05834 0.0728,0 -0.33276,0.47625 -0.90115,1.05834 -0.56839,0.58208 -1.09296,1.05833 -1.16572,1.05833 -0.0728,0 0.33275,-0.47625 0.90114,-1.05833 z m -18.98826,0.23175 c 0.17947,-0.18082 0.39297,-0.26212 0.47443,-0.18065 0.0815,0.0815 -0.0654,0.2294 -0.32632,0.32876 -0.37709,0.14359 -0.40748,0.1132 -0.14811,-0.14811 z m 16.21013,-1.95154 c 0.49366,-0.50933 0.95709,-0.92605 1.02985,-0.92605 0.0728,0 -0.27161,0.41672 -0.76526,0.92605 -0.49366,0.50932 -0.95709,0.92604 -1.02985,0.92604 -0.0728,0 0.27161,-0.41672 0.76526,-0.92604 z m -18.12395,-2.24896 c 0.56838,-0.58209 1.09296,-1.05834 1.16572,-1.05834 0.0728,0 -0.33275,0.47625 -0.90114,1.05834 -0.56839,0.58208 -1.09297,1.05833 -1.16573,1.05833 -0.0728,0 0.33276,-0.47625 0.90115,-1.05833 z m 1.98437,-2.21656 c 0,-0.055 0.20836,-0.2633 0.46302,-0.46302 0.41965,-0.32911 0.429,-0.31975 0.0999,0.0999 -0.19972,0.25466 -0.40808,0.46302 -0.46302,0.46302 -0.055,0 -0.0999,-0.045 -0.0999,-0.0999 z m -17.24753,-0.8746 c 0.191,-0.0764 0.4192,-0.067 0.50712,0.0209 0.0879,0.0879 -0.0683,0.15045 -0.34726,0.13896 -0.30823,-0.0127 -0.37092,-0.0754 -0.15986,-0.15985 z m 13.27878,0.0808 c 0,-0.055 0.20836,-0.2633 0.46302,-0.46302 0.41965,-0.32911 0.429,-0.31975 0.0999,0.0999 -0.19972,0.25466 -0.40808,0.46302 -0.46302,0.46302 -0.055,0 -0.0999,-0.045 -0.0999,-0.0999 z m -10.2116,-7.11 -0.50402,-0.59532 0.59531,0.50403 c 0.32742,0.27722 0.59531,0.54511 0.59531,0.59531 0,0.0502 -0.0411,0.0913 -0.0913,0.0913 -0.0502,0 -0.3181,-0.26789 -0.59532,-0.59531 z M 139.111,112.5956 c 0.32912,-0.0633 0.80537,-0.0609 1.05834,0.005 0.25296,0.0662 -0.0163,0.118 -0.5984,0.11507 -0.58208,-0.003 -0.78906,-0.0571 -0.45994,-0.12041 z m -36.58173,-0.8712 c 0.26339,-0.29105 0.53842,-0.52917 0.61118,-0.52917 0.0728,0 -0.0832,0.23812 -0.3466,0.52917 -0.26338,0.29104 -0.53842,0.52916 -0.61118,0.52916 -0.0728,0 0.0832,-0.23812 0.3466,-0.52916 z m 49.33715,-1.78594 -1.71215,-1.78594 1.78594,1.71215 c 0.98227,0.94168 1.78594,1.74535 1.78594,1.78594 0,0.0406 -0.0332,0.0738 -0.0738,0.0738 -0.0406,0 -0.84426,-0.80368 -1.78594,-1.78594 z m -3.99485,0.79375 c -0.32911,-0.41965 -0.31975,-0.429 0.0999,-0.0999 0.25466,0.19972 0.46302,0.40808 0.46302,0.46302 0,0.0549 -0.045,0.0999 -0.0999,0.0999 -0.0549,0 -0.26331,-0.20836 -0.46302,-0.46302 z m -42.96105,-1.38906 c 0.26339,-0.29105 0.53842,-0.52917 0.61118,-0.52917 0.0728,0 -0.0832,0.23812 -0.3466,0.52917 -0.26338,0.29104 -0.53842,0.52916 -0.61118,0.52916 -0.0728,0 0.0832,-0.23812 0.3466,-0.52916 z m 16.25185,-3.63803 -0.64143,-0.7276 0.7276,0.64143 c 0.40019,0.35279 0.72761,0.68021 0.72761,0.72761 0,0.0474 -0.0388,0.0862 -0.0862,0.0862 -0.0474,0 -0.37482,-0.32742 -0.72761,-0.72761 z m 12.935,-1.04063 c 0.191,-0.0764 0.4192,-0.067 0.50712,0.0209 0.0879,0.0879 -0.0684,0.15045 -0.34727,0.13896 -0.30822,-0.0127 -0.37092,-0.0754 -0.15985,-0.15985 z m -2.11667,-0.26459 c 0.191,-0.0764 0.4192,-0.067 0.50712,0.0209 0.0879,0.0879 -0.0684,0.15046 -0.34726,0.13897 -0.30823,-0.0127 -0.37092,-0.0754 -0.15986,-0.15986 z m -21.83513,-1.27446 c 0.002,-0.72761 0.0534,-0.99386 0.11419,-0.59168 0.0608,0.40219 0.0592,0.9975 -0.004,1.32292 -0.0628,0.32542 -0.11257,-0.004 -0.11058,-0.73124 z m 23.42263,-1.90054 c 0.191,-0.0764 0.4192,-0.067 0.50712,0.0209 0.0879,0.0879 -0.0684,0.15046 -0.34726,0.13897 -0.30823,-0.0127 -0.37092,-0.0754 -0.15986,-0.15986 z m -4.90769,-0.2737 c 0.40219,-0.0608 0.9975,-0.0592 1.32292,0.004 0.32542,0.0628 -0.004,0.11256 -0.73124,0.11058 -0.72761,-0.002 -0.99386,-0.0534 -0.59168,-0.11419 z m -1.81471,-1.1992 -0.50403,-0.595313 0.59531,0.504028 c 0.32743,0.277216 0.59532,0.545105 0.59532,0.595315 0,0.0502 -0.0411,0.0913 -0.0913,0.0913 -0.0502,0 -0.31809,-0.26789 -0.59531,-0.59531 z m -16.49043,-0.08819 c 0.0127,-0.308224 0.0754,-0.370919 0.15985,-0.159852 0.0764,0.190996 0.067,0.419199 -0.0209,0.507112 -0.0879,0.0879 -0.15045,-0.06835 -0.13896,-0.34726 z m 33.07292,-1.058333 c 0.0127,-0.308224 0.0754,-0.370919 0.15985,-0.159852 0.0764,0.190996 0.067,0.419199 -0.0209,0.507118 -0.0879,0.08792 -0.15045,-0.06835 -0.13896,-0.347266 z M 139.9887,98.07631 c 0.0127,-0.308224 0.0754,-0.370919 0.15985,-0.159852 0.0764,0.190996 0.067,0.419199 -0.0209,0.507118 -0.0879,0.08792 -0.15046,-0.06835 -0.13897,-0.347266 z m -29.36875,-0.264583 c 0.0127,-0.308224 0.0754,-0.370919 0.15985,-0.159852 0.0764,0.190996 0.067,0.419199 -0.0209,0.507118 -0.0879,0.08792 -0.15046,-0.06835 -0.13897,-0.347266 z m 8.31349,-9.899826 c 0.26339,-0.291042 0.53842,-0.529167 0.61118,-0.529167 0.0728,0 -0.0832,0.238125 -0.3466,0.529167 -0.26339,0.291042 -0.53842,0.529167 -0.61118,0.529167 -0.0728,0 0.0832,-0.238125 0.3466,-0.529167 z m 16.12294,-0.595313 -0.77711,-0.859895 0.8599,0.777105 c 0.47294,0.427408 0.85989,0.814361 0.85989,0.859896 0,0.04554 -0.0372,0.08279 -0.0828,0.08279 -0.0455,0 -0.43248,-0.386953 -0.85989,-0.859896 z m -18.50419,-1.521354 c 0.71666,-0.727604 1.36255,-1.322916 1.43531,-1.322916 0.0728,0 -0.45406,0.595312 -1.17073,1.322916 -0.71666,0.727604 -1.36255,1.322917 -1.43531,1.322917 -0.0728,0 0.45407,-0.595313 1.17073,-1.322917 z m 21.03437,-0.396875 c -0.64268,-0.654843 -1.10897,-1.190625 -1.03621,-1.190625 0.0728,0 0.65812,0.535782 1.3008,1.190625 0.64268,0.654844 1.10898,1.190625 1.03622,1.190625 -0.0728,0 -0.65813,-0.535781 -1.30081,-1.190625 z m -9.98802,-1.11555 c 0.40019,-0.06062 1.05503,-0.06062 1.45521,0 0.40018,0.06062 0.0728,0.110223 -0.7276,0.110223 -0.80037,0 -1.12779,-0.0496 -0.72761,-0.110223 z"
         id="path16" /></g></g></svg>
