<?xml version="1.0" encoding="UTF-8" standalone="no"?>
<!-- Created with Inkscape (http://www.inkscape.org/) -->

<svg
   width="181.0761mm"
   height="184.32326mm"
   viewBox="0 0 181.0761 184.32326"
   version="1.1"
   id="svg1"
   xml:space="preserve"
   inkscape:export-filename="bitmap.svg"
   inkscape:export-xdpi="96"
   inkscape:export-ydpi="96"
   inkscape:version="1.3.2 (091e20e, 2023-11-25, custom)"
   sodipodi:docname="vscode.svg"
   xmlns:inkscape="http://www.inkscape.org/namespaces/inkscape"
   xmlns:sodipodi="http://sodipodi.sourceforge.net/DTD/sodipodi-0.dtd"
   xmlns="http://www.w3.org/2000/svg"
   xmlns:svg="http://www.w3.org/2000/svg"><sodipodi:namedview
     id="namedview1"
     pagecolor="#ffffff"
     bordercolor="#000000"
     borderopacity="0.25"
     inkscape:showpageshadow="2"
     inkscape:pageopacity="0.0"
     inkscape:pagecheckerboard="0"
     inkscape:deskcolor="#d1d1d1"
     inkscape:document-units="mm"
     inkscape:zoom="0.44631734"
     inkscape:cx="280.06978"
     inkscape:cy="332.7229"
     inkscape:window-width="1366"
     inkscape:window-height="697"
     inkscape:window-x="-8"
     inkscape:window-y="-8"
     inkscape:window-maximized="1"
     inkscape:current-layer="layer1" /><defs
     id="defs1" /><g
     inkscape:label="Layer 1"
     inkscape:groupmode="layer"
     id="layer1"
     transform="translate(-31.045533,-13.042353)"><g
       id="g1"
       transform="matrix(3.0523246,0,0,3.1263479,-198.86361,-358.99488)"
       style="opacity:0.783934;fill:#0000ff;fill-opacity:1"><path
         style="fill:#0000ff;fill-opacity:1"
         d="m 76.980856,141.29011 c -0.329108,-0.41964 -0.319749,-0.429 0.0999,-0.0999 0.254661,0.19972 0.46302,0.40808 0.46302,0.46302 0,0.21776 -0.217272,0.0776 -0.562915,-0.36313 z m 25.962914,-9.16187 c 0,-0.0549 0.20836,-0.2633 0.46302,-0.46302 0.41965,-0.32911 0.429,-0.31975 0.0999,0.0999 -0.34565,0.44073 -0.56292,0.58089 -0.56292,0.36313 z m 30.39334,-6.18396 c -0.32911,-0.41965 -0.31975,-0.429 0.0999,-0.0999 0.44073,0.34565 0.58089,0.56292 0.36313,0.56292 -0.0549,0 -0.26331,-0.20836 -0.46302,-0.46302 z m -20.47146,-2.97656 c 0.26339,-0.29105 0.53842,-0.52917 0.61118,-0.52917 0.0728,0 -0.0832,0.23812 -0.3466,0.52917 -0.26339,0.29104 -0.53842,0.52916 -0.61118,0.52916 -0.0728,0 0.0832,-0.23812 0.3466,-0.52916 z"
         id="path6" /><path
         style="fill:#0000ff;fill-opacity:1"
         d="m 125.3628,175.0578 c 0.17947,-0.18082 0.39297,-0.26211 0.47443,-0.18065 0.0815,0.0815 -0.0654,0.2294 -0.32632,0.32876 -0.37708,0.14359 -0.40747,0.1132 -0.14811,-0.14811 z m -18.87229,-6.91248 -0.50403,-0.59531 0.59531,0.50403 c 0.55945,0.47366 0.71576,0.68659 0.50403,0.68659 -0.0502,0 -0.3181,-0.26789 -0.59531,-0.59531 z m -30.427086,-7.9375 -0.504028,-0.59531 0.595313,0.50403 c 0.559447,0.47366 0.715761,0.68659 0.504028,0.68659 -0.05021,0 -0.318097,-0.26789 -0.595313,-0.59531 z m 21.819515,0.13229 c -0.329107,-0.41964 -0.319749,-0.429 0.0999,-0.0999 0.254661,0.19972 0.463021,0.40808 0.463021,0.46302 0,0.21776 -0.217272,0.0776 -0.562916,-0.36313 z M 78.99898,153.92397 c 0.263389,-0.29105 0.53842,-0.52917 0.611181,-0.52917 0.07276,0 -0.08321,0.23812 -0.346598,0.52917 -0.263389,0.29104 -0.53842,0.52916 -0.611181,0.52916 -0.07276,0 0.08321,-0.23812 0.346598,-0.52916 z m 42.10144,-13.90086 c -0.0907,-0.23646 -0.15744,-0.56901 -0.14821,-0.73901 0.009,-0.17 0.13084,-0.0239 0.27027,0.32463 0.13942,0.34855 0.20611,0.68111 0.1482,0.73902 -0.0579,0.0579 -0.17953,-0.0882 -0.27026,-0.32464 z m -1.0542,-2.10589 c -0.26184,-0.68235 -0.19956,-2.46404 0.0924,-2.64451 0.15536,-0.096 0.19081,0.0227 0.0873,0.29238 -0.11821,0.30803 -0.0747,0.3925 0.13532,0.26271 0.21586,-0.13342 0.30832,0.11369 0.30549,0.81649 -0.005,1.2172 -0.36138,1.94841 -0.62058,1.27293 z m 1.46016,-0.662 c 0,-0.36381 0.0601,-0.51263 0.13345,-0.33073 0.0734,0.1819 0.0734,0.47955 0,0.66146 -0.0734,0.1819 -0.13345,0.0331 -0.13345,-0.33073 z m -0.57094,-1.69149 c 0,-0.0572 0.17859,-0.17252 0.39687,-0.25628 0.21828,-0.0838 0.39688,-0.037 0.39688,0.10399 0,0.14095 -0.1786,0.25628 -0.39688,0.25628 -0.21828,0 -0.39687,-0.0468 -0.39687,-0.10399 z m -0.43462,-0.825 c -0.0825,-0.21499 -0.25658,-0.32502 -0.38686,-0.2445 -0.13027,0.0805 -0.23686,0.0302 -0.23686,-0.11177 0,-0.14198 0.14883,-0.3182 0.33073,-0.3916 0.2221,-0.0896 0.23024,-0.14031 0.0248,-0.15434 -0.35242,-0.0241 -0.15245,-1.07922 0.20453,-1.07922 0.12855,0 0.21371,-0.80367 0.18925,-1.78594 l -0.0445,-1.78594 -0.17563,1.5875 c -0.16597,1.50021 -0.17849,1.44928 -0.22766,-0.92604 -0.0286,-1.38245 -0.11819,-4.01132 -0.19905,-5.84195 l -0.14701,-3.32841 0.68373,-0.448 c 0.37606,-0.2464 0.68374,-0.3262 0.68374,-0.17732 0,0.14888 0.21117,0.27068 0.46926,0.27068 0.2581,0 1.83568,0.65673 3.50573,1.4594 2.40236,1.15463 3.02996,1.56778 3.00529,1.97838 -0.0172,0.28544 0.0741,0.45393 0.20275,0.37441 0.12866,-0.0795 0.15293,-0.27565 0.0539,-0.43585 -0.12176,-0.197 -0.0161,-0.22419 0.32641,-0.084 0.27853,0.114 0.71478,0.26718 0.96944,0.3404 0.25467,0.0732 0.46302,0.2425 0.46302,0.37617 0,0.13367 -0.2509,0.10875 -0.55757,-0.0554 -0.41593,-0.2226 -0.63437,-0.22098 -0.85989,0.006 -0.22751,0.22935 -0.187,0.26086 0.16369,0.12734 0.35424,-0.13486 0.42678,-0.0751 0.30243,0.24891 -0.0928,0.24184 -0.0301,0.42633 0.1449,0.42633 0.16968,0 0.23492,-0.11906 0.14499,-0.26458 -0.23177,-0.37501 0.22203,-0.32864 0.64735,0.0661 0.24028,0.22302 0.29919,0.22897 0.1809,0.0183 -0.0965,-0.17185 -0.0544,-0.38723 0.0935,-0.47864 0.1479,-0.0914 0.2689,-0.0331 0.2689,0.12963 0,0.16269 0.11906,0.22222 0.26458,0.13229 0.14553,-0.0899 0.26459,-0.0176 0.26459,0.16077 0,0.17836 0.0752,0.24911 0.16708,0.15722 0.29214,-0.29215 1.15583,0.34267 1.15583,0.84954 0,0.26811 0.20836,0.64513 0.46303,0.83783 0.3939,0.29807 0.41365,0.295 0.13229,-0.0205 -0.39649,-0.44463 -0.42782,-0.79422 -0.0712,-0.79422 0.14275,0 0.33404,0.29684 0.4251,0.65963 0.0911,0.3628 0.27214,0.59376 0.40241,0.51325 0.44253,-0.2735 0.63797,1.06887 0.55152,3.78806 l -0.0862,2.71198 h -6.33242 c -3.48284,0 -6.42173,3.8e-4 -6.53087,8.5e-4 -0.10914,4.6e-4 -0.25939,-2.17243 -0.3339,-4.82865 l -0.13546,-4.82949 -0.12912,4.93609 c -0.071,2.71485 -0.0398,4.88072 0.0693,4.81303 0.10914,-0.0677 0.19844,-0.007 0.19844,0.1355 0,0.14221 0.0664,0.43152 0.1475,0.64293 0.0819,0.21347 -0.0402,0.45639 -0.2746,0.54634 -0.24773,0.0951 -0.48406,5.1e-4 -0.5721,-0.22892 z M 78.866688,134.2449 c 0,-0.0549 0.208359,-0.2633 0.463021,-0.46302 0.419644,-0.3291 0.429002,-0.31975 0.0999,0.0999 -0.345644,0.44073 -0.562916,0.58089 -0.562916,0.36312 z m 26.590622,-4.39802 c 0.26339,-0.29104 0.53842,-0.52916 0.61118,-0.52916 0.0728,0 -0.0832,0.23812 -0.34659,0.52916 -0.26339,0.29104 -0.53842,0.52917 -0.61118,0.52917 -0.0728,0 0.0832,-0.23813 0.34659,-0.52917 z m 3.04271,-2.72862 c 0,-0.0455 0.38695,-0.43249 0.8599,-0.8599 l 0.85989,-0.7771 -0.7771,0.85989 c -0.72437,0.80155 -0.94269,0.98152 -0.94269,0.77711 z m 3.30729,-3.09221 c 0.26339,-0.29104 0.53842,-0.52917 0.61118,-0.52917 0.0728,0 -0.0832,0.23813 -0.34659,0.52917 -0.26339,0.29104 -0.53842,0.52917 -0.61118,0.52917 -0.0728,0 0.0832,-0.23813 0.34659,-0.52917 z m 7.14375,-4.37383 -0.79375,-0.65063 0.74322,-10e-4 c 0.42263,-7.5e-4 0.67349,0.11151 0.58157,0.26024 -0.0889,0.14385 -0.007,0.20463 0.18283,0.13507 0.18945,-0.0696 0.52306,-0.009 0.74134,0.13532 0.35278,0.23272 0.35278,0.29075 0,0.52234 -0.53151,0.34891 -0.54476,0.34526 -1.45521,-0.40103 z"
         id="path5" /><path
         style="fill:#0000ff;fill-opacity:1"
         d="m 118.53934,177.66717 c 0.85042,-0.4234 1.85619,-1.44023 1.64043,-1.65847 -0.0937,-0.0948 -0.17656,-1.14379 -0.18413,-2.33114 -0.008,-1.18734 -0.0477,-4.27725 -0.0892,-6.86646 -0.0543,-3.39024 0.0142,-4.81557 0.24459,-5.09323 0.22526,-0.27142 0.23207,-0.38557 0.023,-0.38557 -0.21522,0 -0.29586,-3.25961 -0.29292,-11.8401 0.002,-6.55495 0.10391,-11.68258 0.22776,-11.4872 0.17846,0.28153 0.25792,0.26377 0.39282,-0.0878 0.28401,-0.74012 0.20021,-2.29995 -0.11316,-2.10628 -0.16945,0.10473 -0.24877,-0.0212 -0.19844,-0.31511 0.0603,-0.35213 -0.0647,-0.47649 -0.44533,-0.44299 -0.51712,0.0455 -0.51768,0.0382 -0.0244,-0.32425 0.43446,-0.31921 0.54497,-0.31717 0.79375,0.0146 0.40562,0.54098 0.96415,0.10792 0.77815,-0.60334 -0.0838,-0.32058 -0.22818,-0.53586 -0.32078,-0.4784 -0.0926,0.0575 -0.11025,-2.11677 -0.0392,-4.83162 l 0.12912,-4.93609 0.13546,4.82949 c 0.0745,2.65622 0.22476,4.82911 0.3339,4.82865 0.10914,-4.7e-4 3.05163,-8.5e-4 6.53886,-8.5e-4 h 6.34042 l 0.0865,-2.57969 c 0.0476,-1.41883 0.11142,6.43155 0.14188,17.44528 0.0346,12.51188 -0.0414,20.27959 -0.20266,20.70364 -0.14192,0.37328 -0.43958,0.67869 -0.66146,0.67869 -0.22188,0 -0.40343,0.12609 -0.40343,0.28019 0,0.15411 -0.121,0.20542 -0.26889,0.11401 -0.1479,-0.0914 -0.21267,-0.25718 -0.14393,-0.36839 0.0687,-0.11121 -0.0524,-0.2022 -0.26909,-0.2022 -0.27118,0 -0.3088,0.0853 -0.12065,0.2734 0.34856,0.34857 0.35759,0.78 0.0119,0.56632 -0.15639,-0.0967 -0.19006,0.0247 -0.0837,0.30173 0.1093,0.28483 0.21858,0.3411 0.2836,0.14604 0.12933,-0.38798 0.59085,-0.42271 0.59085,-0.0445 0,0.15009 -0.20835,0.35268 -0.46302,0.4502 -0.25466,0.0975 -0.87257,0.45504 -1.37314,0.79448 -0.50057,0.33944 -1.05627,0.56109 -1.23488,0.49255 -0.17861,-0.0685 -0.39693,0.0635 -0.48516,0.29342 -0.0882,0.22992 -0.23132,0.34714 -0.31798,0.26048 -0.0867,-0.0867 -0.33158,0.0164 -0.54427,0.22914 -0.21269,0.21269 -0.48268,0.3274 -0.59998,0.2549 -0.1173,-0.0725 -0.35932,0.0442 -0.53782,0.25924 -0.17849,0.21507 -0.44342,0.31757 -0.58872,0.22777 -0.1453,-0.0898 -0.35209,-0.021 -0.45953,0.1528 -0.10744,0.17384 -0.3739,0.34227 -0.59215,0.37431 -0.21824,0.032 -0.68257,0.23685 -1.03184,0.45516 -0.90054,0.56287 -2.1871,1.13951 -2.42098,1.08509 -0.10915,-0.0254 -0.19844,0.0612 -0.19844,0.19253 0,0.13128 -0.35719,0.36321 -0.79375,0.5154 -0.48193,0.168 -0.79375,0.17817 -0.79375,0.0259 0,-0.32015 -0.97864,-0.32923 -1.17538,-0.0109 -0.0815,0.13195 0.11979,0.1779 0.44741,0.10211 0.57544,-0.13311 0.5732,-0.12115 -0.0658,0.35212 -0.3638,0.26946 -1.01865,0.51848 -1.45521,0.55338 -0.79358,0.0634 -0.79361,0.0634 -0.14714,-0.25848 z m 3.45443,-1.5099 c 0,-0.14095 -0.17859,-0.18775 -0.39687,-0.10398 -0.21828,0.0838 -0.39688,0.19908 -0.39688,0.25628 0,0.0572 0.1786,0.10398 0.39688,0.10398 0.21828,0 0.39687,-0.11533 0.39687,-0.25628 z m 3.70417,-2.12497 c 0,-0.14552 -0.11906,-0.26458 -0.26459,-0.26458 -0.14552,0 -0.26458,0.11906 -0.26458,0.26458 0,0.14552 0.11906,0.26458 0.26458,0.26458 0.14553,0 0.26459,-0.11906 0.26459,-0.26458 z m 3.70416,-1.56017 c 0.21829,-0.20325 0.25051,-0.28704 0.0716,-0.1862 -0.1789,0.10084 -0.546,0.0652 -0.8158,-0.0792 -0.36512,-0.1954 -0.49054,-0.17116 -0.49054,0.0948 0,0.2038 0.18002,0.30207 0.41893,0.2287 0.34336,-0.10546 0.33615,-0.0604 -0.04,0.24982 -0.2524,0.20817 -0.38323,0.45416 -0.29074,0.54665 0.0925,0.0925 0.299,0.0212 0.45891,-0.15845 0.1599,-0.17964 0.46933,-0.49291 0.68761,-0.69616 z m 1.32292,-0.3959 c 0,-0.0572 -0.17859,-0.17252 -0.39687,-0.25628 -0.21828,-0.0838 -0.39688,-0.037 -0.39688,0.10399 0,0.14095 0.1786,0.25628 0.39688,0.25628 0.21828,0 0.39687,-0.0468 0.39687,-0.10399 z m -9.50254,-32.4675 c -0.13943,-0.34855 -0.26105,-0.49463 -0.27027,-0.32463 -0.0224,0.41291 0.28581,1.19631 0.41847,1.06365 0.0579,-0.0579 -0.009,-0.39047 -0.1482,-0.73902 z m 0.41735,-2.68424 c -0.0734,-0.1819 -0.13345,-0.0331 -0.13345,0.33073 0,0.3638 0.0601,0.51263 0.13345,0.33073 0.0734,-0.18191 0.0734,-0.47956 0,-0.66146 z m 0.0894,-1.51305 c 0,-0.14096 -0.1786,-0.18775 -0.39688,-0.10399 -0.21828,0.0838 -0.39687,0.19909 -0.39687,0.25628 0,0.0572 0.17859,0.10399 0.39687,0.10399 0.21828,0 0.39688,-0.11533 0.39688,-0.25628 z m -7.1775,40.00992 c -0.32911,-0.41964 -0.31975,-0.429 0.0999,-0.0999 0.44073,0.34564 0.58089,0.56291 0.36313,0.56291 -0.0549,0 -0.2633,-0.20836 -0.46302,-0.46302 z m -12.17083,-11.1125 c -0.32911,-0.41964 -0.31975,-0.429 0.0999,-0.0999 0.25466,0.19972 0.46302,0.40808 0.46302,0.46302 0,0.21776 -0.21727,0.0776 -0.56291,-0.36313 z m -5.291671,-4.7625 c -0.329107,-0.41964 -0.319749,-0.429 0.09989,-0.0999 0.254661,0.19972 0.463021,0.40808 0.463021,0.46302 0,0.21776 -0.217272,0.0776 -0.562916,-0.36313 z m -1.058333,-1.05833 c -0.329108,-0.41965 -0.319749,-0.429 0.0999,-0.0999 0.254661,0.19972 0.46302,0.40808 0.46302,0.46302 0,0.21777 -0.217272,0.0776 -0.562915,-0.36312 z m -18.09021,-3.50573 c 0.263389,-0.29104 0.538421,-0.52917 0.611181,-0.52917 0.07276,0 -0.08321,0.23813 -0.346597,0.52917 -0.263389,0.29104 -0.538421,0.52917 -0.611181,0.52917 -0.07276,0 0.08321,-0.23813 0.346597,-0.52917 z m 4.101042,-3.80406 c 0,-0.0549 0.208359,-0.2633 0.463021,-0.46302 0.419644,-0.32911 0.429002,-0.31975 0.09989,0.0999 -0.345644,0.44073 -0.562916,0.58089 -0.562916,0.36313 z m 22.489582,-0.42927 c -0.23847,-0.15411 -0.2711,-0.2581 -0.0818,-0.26054 0.17331,-0.002 0.3887,0.11502 0.47864,0.26054 0.20301,0.32848 0.11142,0.32848 -0.39688,0 z m -20.265762,-2.97657 -0.504028,-0.59531 0.595312,0.50403 c 0.559447,0.47366 0.715762,0.6866 0.504028,0.6866 -0.05021,0 -0.318097,-0.26789 -0.595312,-0.59532 z m -3.315902,-3.0427 c -0.335893,-0.4283 -0.32344,-0.43392 0.16604,-0.0749 0.291042,0.21348 0.578776,0.42184 0.63941,0.46302 0.06063,0.0412 -0.01408,0.0749 -0.166041,0.0749 -0.151956,0 -0.43969,-0.20836 -0.639409,-0.46302 z m -1.058334,-1.05834 c -0.329107,-0.41964 -0.319749,-0.429 0.0999,-0.0999 0.440729,0.34564 0.580887,0.56291 0.363126,0.56291 -0.05494,0 -0.263301,-0.20836 -0.463021,-0.46302 z m 29.402498,-1.09617 c 0,-0.12995 0.19544,-0.31127 0.4343,-0.40293 0.36313,-0.13935 0.3795,-0.10063 0.0999,0.23627 -0.38103,0.45912 -0.53419,0.5069 -0.53419,0.16666 z m -31.965118,-1.21893 c -0.316322,-0.3638 -0.486622,-0.65964 -0.378443,-0.65741 0.288046,0.006 1.032029,0.51628 0.759603,0.52106 -0.126959,0.002 -0.08262,0.18265 0.09854,0.40093 0.559062,0.67363 0.130567,0.43729 -0.479703,-0.26458 z m 34.346368,-0.49677 c 0,-0.0549 0.20836,-0.2633 0.46302,-0.46302 0.41965,-0.32911 0.429,-0.31975 0.0999,0.0999 -0.34565,0.44073 -0.56292,0.58089 -0.56292,0.36313 z M 76.321187,140.3938 c 0.03336,-0.17282 0.263117,-0.34394 0.510583,-0.38026 0.247466,-0.0363 0.381613,0.0445 0.298104,0.17963 -0.08351,0.13512 -0.2525,0.18346 -0.375537,0.10742 -0.123036,-0.076 -0.284473,-0.0155 -0.358749,0.13459 -0.07428,0.15007 -0.107756,0.13145 -0.0744,-0.0414 z m 13.261126,-0.75733 c -0.08994,-0.14552 -0.04446,-0.26459 0.101062,-0.26459 0.145521,0 0.338168,0.11907 0.428105,0.26459 0.08994,0.14552 0.04446,0.26458 -0.101062,0.26458 -0.145521,0 -0.338168,-0.11906 -0.428105,-0.26458 z m 6.482292,-1.15823 c 0,-0.0549 0.208359,-0.2633 0.463021,-0.46302 0.419643,-0.32911 0.429002,-0.31975 0.09989,0.0999 -0.345643,0.44073 -0.562915,0.58089 -0.562915,0.36313 z m -8.598959,-0.42927 c -0.08994,-0.14552 -0.04446,-0.26459 0.101062,-0.26459 0.145521,0 0.338168,0.11907 0.428105,0.26459 0.08994,0.14552 0.04446,0.26458 -0.101062,0.26458 -0.145521,0 -0.338168,-0.11906 -0.428105,-0.26458 z M 75.97582,137.67565 c -0.217301,-0.26184 -0.225018,-0.42574 -0.02584,-0.54884 0.156193,-0.0965 0.251271,-0.0178 0.211285,0.17489 -0.03999,0.19271 0.08498,0.31768 0.277695,0.27769 0.192717,-0.04 0.274987,0.0493 0.182822,0.19844 -0.217924,0.35261 -0.276164,0.34339 -0.645962,-0.10218 z m 10.651979,-0.2765 c 0,-0.21188 0.101161,-0.32272 0.224802,-0.2463 0.123641,0.0764 0.156302,0.24977 0.07258,0.38523 -0.213949,0.34618 -0.297382,0.3072 -0.297382,-0.13893 z m -9.859955,-0.37522 c -0.204618,-0.38233 -0.1458,-0.60408 0.256897,-0.96851 0.287251,-0.25996 0.591273,-0.40366 0.675605,-0.31932 0.08433,0.0843 -0.09651,0.28703 -0.401861,0.45046 -0.450934,0.24133 -0.503126,0.39441 -0.277935,0.81518 0.152491,0.28493 0.217725,0.51806 0.144964,0.51806 -0.07276,0 -0.251712,-0.22314 -0.39767,-0.49587 z m 40.198846,-0.40186 c 0,-0.0572 0.18478,-0.17489 0.41061,-0.26156 0.23546,-0.0904 0.34167,-0.046 0.24897,0.10399 -0.15538,0.2514 -0.65958,0.37185 -0.65958,0.15757 z m -17.727085,-1.08665 c 0.493655,-0.50932 0.957085,-0.92604 1.029845,-0.92604 0.0728,0 -0.271607,0.41672 -0.765262,0.92604 -0.493655,0.50933 -0.957086,0.92605 -1.029847,0.92605 -0.07276,0 0.271608,-0.41672 0.765264,-0.92605 z m -14.585833,0.19844 c -0.329107,-0.41964 -0.319749,-0.429 0.09989,-0.0999 0.254662,0.19972 0.463021,0.40808 0.463021,0.46302 0,0.21776 -0.217272,0.0776 -0.562916,-0.36313 z m -6.448542,-0.85989 c 0.263389,-0.29105 0.524156,-0.52917 0.579483,-0.52917 0.05533,0 -0.02685,0.23812 -0.182608,0.52917 -0.155761,0.29104 -0.416528,0.52916 -0.579483,0.52916 -0.162955,0 -0.08078,-0.23812 0.182608,-0.52916 z m 4.416842,0.27629 c 0.04459,-0.18834 -0.08433,-0.40253 -0.286484,-0.47598 -0.223286,-0.0811 -0.295782,-0.0174 -0.184695,0.16233 0.114607,0.18544 0.03633,0.23965 -0.209701,0.14524 -0.470978,-0.18073 -0.463031,-1.07802 0.0095,-1.07802 0.18274,0 0.258429,0.11945 0.168197,0.26545 -0.09625,0.15573 0.0099,0.19869 0.256878,0.10392 0.638679,-0.24509 1.097038,0.44613 0.580248,0.87503 -0.338014,0.28053 -0.400016,0.28091 -0.333991,0.002 z m -3.255408,-1.0039 c 0.171816,-0.32742 0.3975,-0.60442 0.501521,-0.61555 0.10402,-0.0111 0.398054,-0.0602 0.653409,-0.10907 0.255355,-0.0488 0.397156,0.0198 0.315114,0.15254 -0.08204,0.13274 -0.281593,0.24135 -0.443447,0.24135 -0.161855,0 -0.52934,0.20836 -0.816635,0.46302 -0.50687,0.4493 -0.513094,0.44538 -0.209962,-0.13229 z m 22.254186,-0.69521 c 0,-0.0549 0.20836,-0.2633 0.46303,-0.46302 0.41964,-0.3291 0.429,-0.31975 0.0999,0.0999 -0.34564,0.44073 -0.56292,0.58089 -0.56292,0.36312 z m 18.33819,-3.0751 0.0206,-3.30729 0.15449,2.64583 c 0.14634,2.50635 0.16193,2.56214 0.2956,1.05833 l 0.14112,-1.5875 0.05,1.78594 c 0.0275,0.98227 -0.0603,1.78594 -0.19516,1.78594 -0.13485,0 -0.29963,0.20836 -0.36618,0.46302 -0.0665,0.25466 -0.11175,-1.02526 -0.10045,-2.84427 z m -12.78194,-1.95198 c 0,-0.0549 0.20836,-0.2633 0.46303,-0.46302 0.41964,-0.32911 0.429,-0.31975 0.0999,0.0999 -0.34564,0.44072 -0.56292,0.58088 -0.56292,0.36312 z m 26.38722,-1.73098 c -0.11509,-0.44009 -0.0807,-0.54339 0.11569,-0.34706 0.15375,0.15376 0.22748,0.43573 0.16386,0.62661 -0.0661,0.19816 -0.18599,0.0782 -0.27955,-0.27955 z m -13.61154,-0.94725 c 0.002,-0.7276 0.0534,-0.99386 0.11418,-0.59167 0.0608,0.40218 0.0592,0.99749 -0.004,1.32291 -0.0628,0.32542 -0.11256,-0.004 -0.11057,-0.73124 z m 12.94182,0.87313 c -0.3926,-0.39261 -0.41533,-1.00542 -0.0373,-1.00542 0.15411,0 0.20339,0.12428 0.10952,0.27617 -0.0939,0.1519 -0.0268,0.44955 0.14907,0.66146 0.38533,0.46429 0.22449,0.51356 -0.22129,0.0678 z m -23.01353,-0.61727 c 0.39577,-0.41633 0.76703,-0.70375 0.82502,-0.6387 0.058,0.065 -0.26582,0.40568 -0.71958,0.75696 l -0.82503,0.63871 z m 19.36344,-1.34365 c 0.12435,-0.32406 0.0518,-0.38377 -0.30243,-0.24891 -0.35069,0.13352 -0.3912,0.10201 -0.16369,-0.12734 0.21724,-0.21901 0.44944,-0.22604 0.8251,-0.025 0.28754,0.15388 0.57813,0.22445 0.64577,0.15681 0.0676,-0.0677 0.12298,0.0596 0.12298,0.28271 0,0.27918 -0.0853,0.32044 -0.2734,0.13229 -0.35017,-0.35017 -0.77956,-0.35688 -0.56444,-0.009 0.0899,0.14552 0.0247,0.26458 -0.14499,0.26458 -0.175,0 -0.23771,-0.18449 -0.1449,-0.42633 z m -1.07713,-0.75265 c 0,-0.21188 0.10116,-0.32272 0.2248,-0.2463 0.12365,0.0764 0.15631,0.24977 0.0726,0.38523 -0.21394,0.34618 -0.29738,0.3072 -0.29738,-0.13893 z m -13.65717,-2.27283 c 0.61347,-0.63385 1.18204,-1.08582 1.26349,-1.00437 0.0814,0.0814 -0.42048,0.60006 -1.1154,1.15246 l -1.26349,1.00437 z m 4.99857,-1.19941 c -0.084,-0.2189 -0.54151,-0.56695 -1.01668,-0.77345 -0.47517,-0.20649 -0.67165,-0.38011 -0.43661,-0.3858 0.23503,-0.006 0.73768,0.23376 1.11699,0.53212 0.55112,0.43351 0.79745,0.48479 1.22631,0.25528 0.74326,-0.39779 0.67415,-0.15497 -0.10032,0.35249 -0.56276,0.36873 -0.65476,0.37099 -0.78969,0.0194 z"
         id="path4" /><path
         style="fill:#0000ff;fill-opacity:1"
         d="m 117.69429,177.56124 c 0.1819,-0.0734 0.47956,-0.0734 0.66146,0 0.1819,0.0734 0.0331,0.13345 -0.33073,0.13345 -0.3638,0 -0.51263,-0.0601 -0.33073,-0.13345 z m 1.48035,-0.57321 c 0.24083,-0.26612 0.43788,-0.62331 0.43788,-0.79375 0,-0.3674 0.43425,-0.41295 0.64749,-0.0679 0.0823,0.13309 -10e-6,0.30228 -0.18282,0.37598 -0.18281,0.0737 -0.0546,0.14341 0.28498,0.15489 0.65723,0.0222 0.67753,0.57638 0.0276,0.7521 -0.30953,0.0837 -0.30645,0.0503 0.0165,-0.17928 0.31627,-0.22482 0.24911,-0.27092 -0.33073,-0.22702 -0.40018,0.0303 -0.7276,0.14819 -0.7276,0.26197 0,0.11378 -0.13752,0.20687 -0.30559,0.20687 -0.18284,0 -0.1297,-0.19436 0.13229,-0.48385 z m -3.79545,-0.85468 c 0,-0.15411 0.11906,-0.20661 0.26458,-0.11668 0.14552,0.0899 0.26458,0.21603 0.26458,0.2802 0,0.0642 -0.11906,0.11668 -0.26458,0.11668 -0.14552,0 -0.26458,-0.12609 -0.26458,-0.2802 z m 5.82083,0.17622 c 0,-0.0572 0.1786,-0.17252 0.39688,-0.25628 0.21828,-0.0838 0.39687,-0.037 0.39687,0.10398 0,0.14095 -0.17859,0.25628 -0.39687,0.25628 -0.21828,0 -0.39688,-0.0468 -0.39688,-0.10398 z m -8.04176,-2.50162 -0.50113,-0.70169 0.61873,0.58796 c 0.34029,0.32338 0.5658,0.63914 0.50113,0.70169 -0.0647,0.0626 -0.3431,-0.20203 -0.61873,-0.58796 z m 6.73973,0.07 c 0.0127,-0.30823 0.0754,-0.37092 0.15986,-0.15985 0.0764,0.19099 0.067,0.4192 -0.0209,0.50711 -0.0879,0.0879 -0.15046,-0.0684 -0.13897,-0.34726 z m 5.27078,0.15434 c 0,-0.14552 0.11906,-0.26458 0.26458,-0.26458 0.14553,0 0.26459,0.11906 0.26459,0.26458 0,0.14552 -0.11906,0.26458 -0.26459,0.26458 -0.14552,0 -0.26458,-0.11906 -0.26458,-0.26458 z m 3.32287,-1.21222 c 0.36591,-0.29815 0.39313,-0.38148 0.0947,-0.28981 -0.23891,0.0734 -0.41893,-0.0249 -0.41893,-0.2287 0,-0.26599 0.12542,-0.29023 0.49054,-0.0948 0.2698,0.14439 0.6369,0.18716 0.8158,0.095 0.17889,-0.0921 0.0276,0.0783 -0.3362,0.37876 -0.3638,0.30043 -0.77351,0.54889 -0.91046,0.55213 -0.13696,0.003 -0.0179,-0.18243 0.26458,-0.41259 z m -8.56296,-0.50757 c 0.005,-0.43656 0.0647,-0.58313 0.13178,-0.3257 0.0671,0.25743 0.0627,0.61462 -0.01,0.79375 -0.0725,0.17914 -0.12736,-0.0315 -0.12197,-0.46805 z m -7.05173,-0.11401 c -0.0837,-0.13547 -0.0511,-0.30882 0.0726,-0.38524 0.12365,-0.0764 0.22481,0.0344 0.22481,0.2463 0,0.44613 -0.0834,0.48511 -0.29738,0.13894 z m 17.05432,-0.27456 c 0,-0.14096 0.1786,-0.18775 0.39688,-0.10399 0.21828,0.0838 0.39687,0.19909 0.39687,0.25628 0,0.0572 -0.17859,0.10399 -0.39687,0.10399 -0.21828,0 -0.39688,-0.11533 -0.39688,-0.25628 z m 2.55339,-1.19049 c -0.0971,-0.25295 -0.0574,-0.36563 0.0955,-0.27115 0.34574,0.21368 0.33671,-0.21775 -0.0119,-0.56632 -0.18815,-0.18815 -0.15053,-0.2734 0.12065,-0.2734 0.21673,0 0.33782,0.091 0.26909,0.2022 -0.0687,0.11121 -0.004,0.27699 0.14393,0.36839 0.14789,0.0914 0.26889,0.0401 0.26889,-0.11401 0,-0.1541 0.10853,-0.28019 0.24118,-0.28019 0.13264,0 0.20612,0.20836 0.16329,0.46302 -0.0428,0.25466 -0.22975,0.42697 -0.41537,0.38291 -0.18561,-0.0441 -0.42112,0.0552 -0.52334,0.22062 -0.12612,0.20406 -0.23925,0.16161 -0.35195,-0.13207 z m -22.52756,-0.1377 c -0.0966,-0.15639 0.03,-0.19155 0.31512,-0.0874 0.43076,0.15733 0.42571,0.1128 -0.0524,-0.46149 -0.48265,-0.57975 -0.48489,-0.60114 -0.0255,-0.2433 0.27703,0.21577 0.54492,0.36255 0.59531,0.32617 0.30781,-0.22221 0.36855,-0.003 0.0916,0.33072 -0.38173,0.45996 -0.69517,0.50586 -0.92417,0.13533 z m -0.86651,-0.5322 c -0.18176,-0.29104 -0.50805,-0.52917 -0.7251,-0.52917 -0.21705,0 -0.39464,-0.12579 -0.39464,-0.27954 0,-0.15426 0.35574,-0.0694 0.79375,0.18934 0.43657,0.25788 0.79375,0.6218 0.79375,0.80871 0,0.46231 -0.0814,0.42938 -0.46776,-0.18934 z m -2.78814,-2.53605 c -0.40829,-0.35142 -0.64642,-0.63499 -0.52916,-0.63015 0.29325,0.0121 1.50346,1.03819 1.37515,1.16593 -0.057,0.0567 -0.43769,-0.18436 -0.84599,-0.53578 z m -0.0154,-0.84531 c -0.0893,-0.14457 0.0148,-0.40998 0.23151,-0.58981 0.43019,-0.35702 0.52002,-0.077 0.1584,0.49369 -0.13817,0.21805 -0.29123,0.25579 -0.38991,0.0961 z m -1.22661,-0.81295 c 0,-0.14123 -0.20836,-0.22465 -0.46302,-0.18538 -0.43709,0.0674 -0.84688,-0.27425 -0.85585,-0.71354 -0.002,-0.10914 0.12204,-0.19844 0.27615,-0.19844 0.15411,0 0.20661,0.11907 0.11668,0.26459 -0.0899,0.14552 -0.0672,0.27369 0.0505,0.28482 1.12045,0.10597 1.59132,0.36234 1.15769,0.63034 -0.1552,0.0959 -0.28218,0.0589 -0.28218,-0.0824 z m -2.415,-1.56038 c -0.32129,-0.40967 -0.3146,-0.42518 0.0581,-0.13459 0.23167,0.18064 0.51865,0.24017 0.63773,0.1323 0.11909,-0.10788 0.13087,-0.0473 0.0262,0.13458 -0.24601,0.42749 -0.28921,0.41957 -0.72201,-0.13229 z m 1.73146,-0.16057 c -0.0918,-0.23911 -0.33268,-0.43474 -0.53539,-0.43474 -0.20272,0 -0.36857,-0.11906 -0.36857,-0.26458 0,-0.14552 -0.12609,-0.26459 -0.2802,-0.26459 -0.15411,0 -0.19411,0.1393 -0.0889,0.30955 0.12788,0.20692 0.0482,0.25461 -0.24049,0.14385 -0.2375,-0.0911 -0.50498,-0.0473 -0.5944,0.0974 -0.0907,0.14681 -0.52456,-0.0908 -0.98164,-0.53769 -0.83631,-0.81765 -0.88027,-1.216 -0.10121,-0.91705 0.23911,0.0918 0.43474,0.33268 0.43474,0.5354 0,0.20271 0.12709,0.36856 0.28242,0.36856 0.15608,0 0.21173,-0.22269 0.1244,-0.49783 -0.096,-0.30251 -0.0121,-0.55382 0.21387,-0.64054 0.23028,-0.0884 0.35921,0.0194 0.33862,0.28289 -0.0204,0.26082 0.2809,0.51824 0.77822,0.66492 0.78252,0.2308 1.62662,1.14795 1.32974,1.44482 -0.0794,0.0794 -0.21946,-0.0512 -0.31122,-0.29035 z m -1.92855,-0.89776 c 0.32911,-0.41965 0.31975,-0.429 -0.0999,-0.0999 -0.25466,0.19972 -0.46302,0.40808 -0.46302,0.46302 0,0.21777 0.21727,0.0776 0.56291,-0.36312 z m -22.060308,0.28779 c 0.181901,-0.0734 0.479557,-0.0734 0.661459,0 0.181901,0.0734 0.03307,0.13345 -0.33073,0.13345 -0.363802,0 -0.51263,-0.0601 -0.330729,-0.13345 z m -1.786917,-1.01644 c -0.341236,-0.36323 -0.55836,-0.66041 -0.4825,-0.66041 0.262552,0 1.36154,1.06221 1.232497,1.19126 -0.07126,0.0713 -0.408762,-0.16762 -0.749997,-0.53085 z m 25.599415,0.10242 c -1.08234,-0.54807 -1.29837,-1.02742 -0.46302,-1.02742 0.29104,0 0.52917,-0.11906 0.52917,-0.26458 0,-0.38278 -0.9894,-0.32579 -1.14844,0.0661 -0.0994,0.2449 -0.19091,0.25194 -0.35277,0.0271 -0.28122,-0.39061 -1.82192,-0.31556 -2.24693,0.10945 -0.41022,0.41023 -0.925868,0.4191 -1.172412,0.0202 -0.129704,-0.20986 -0.0096,-0.25927 0.381625,-0.15696 0.313997,0.0821 0.504187,0.0413 0.422637,-0.0906 -0.0816,-0.13195 -0.434716,-0.2399 -0.78481,-0.2399 -0.365745,0 -0.757011,-0.22512 -0.919735,-0.52917 -0.155761,-0.29104 -0.204903,-0.52917 -0.109204,-0.52917 0.0957,0 0.02578,-0.17859 -0.15538,-0.39687 -0.181157,-0.21828 -0.456617,-0.39688 -0.612133,-0.39688 -0.155516,0 -0.05164,0.18516 0.230834,0.41147 0.504612,0.40428 0.504287,0.40702 -0.01854,0.1568 -0.799858,-0.3828 -1.628701,-1.35988 -1.162526,-1.37043 0.266097,-0.006 0.232627,-0.11381 -0.117779,-0.37927 -0.305157,-0.23119 -0.410587,-0.50205 -0.27994,-0.71919 0.164072,-0.27271 0.113011,-0.27002 -0.235176,0.0124 -0.244613,0.19839 -0.376925,0.49605 -0.294027,0.66146 0.0829,0.16541 -0.153256,-0.0295 -0.524786,-0.43313 -0.37153,-0.40363 -0.738323,-0.73105 -0.815095,-0.7276 -0.07677,0.003 -0.213695,0.006 -0.304274,0.006 -0.09058,0 -0.01647,-0.17859 0.164688,-0.39687 0.258723,-0.31174 0.2596,-0.39688 0.0041,-0.39688 -0.178908,0 -0.260095,-0.16989 -0.180416,-0.37753 0.173838,-0.45301 -0.478331,-1.06258 -0.874733,-0.81759 -0.154269,0.0953 -0.216442,0.27698 -0.138163,0.40364 0.07828,0.12666 -0.0923,0.21262 -0.379071,0.19101 -0.425782,-0.0321 -0.46322,-0.11123 -0.204156,-0.43165 0.249642,-0.30876 0.246358,-0.34978 -0.01541,-0.19249 -0.206896,0.12432 -0.657657,-0.13154 -1.192372,-0.67681 -1.0022,-1.02199 -2.779564,-2.59649 -2.93103,-2.59649 -0.335775,0 -2.555811,-2.52773 -2.453713,-2.7938 0.08231,-0.21451 -0.068,-0.27431 -0.452218,-0.1799 -0.316534,0.0778 -0.48596,0.0442 -0.376502,-0.0746 0.2099,-0.22785 -0.518852,-1.18502 -0.902228,-1.18502 -0.123378,0 -0.849066,-0.59403 -1.612639,-1.32006 -2.422092,-2.30302 -3.432554,-3.17785 -3.670529,-3.17785 -0.12723,0 -0.231327,-0.18562 -0.231327,-0.41249 0,-0.22687 -0.106587,-0.34662 -0.236859,-0.26611 -0.231059,0.14281 -0.681026,-0.5844 -0.600447,-0.9704 0.02225,-0.10658 -0.256504,-0.26832 -0.619453,-0.35941 -0.362949,-0.0911 -0.659908,-0.27881 -0.659908,-0.41714 0,-0.13834 0.110836,-0.18302 0.246301,-0.0993 0.135466,0.0837 0.316485,0.0387 0.402266,-0.10014 0.08846,-0.14314 -0.113915,-0.20342 -0.467606,-0.13928 -1.216881,0.22066 -1.578409,-1.60519 -0.575938,-2.90871 0.390984,-0.5084 0.399137,-0.5084 0.806448,0 0.404969,0.50547 0.407724,0.50523 0.174341,-0.0156 -0.19511,-0.43539 -0.0015,-0.76359 1.092735,-1.85208 0.731426,-0.7276 1.227819,-1.14432 1.103096,-0.92604 -0.162008,0.28353 -0.0756,0.26464 0.302564,-0.0661 0.291134,-0.25466 0.675815,-0.46302 0.854846,-0.46302 0.17903,0 0.258365,-0.10864 0.176299,-0.24143 -0.343631,-0.556 1.174672,-0.0436 1.87251,0.63196 0.417457,0.40412 0.630029,0.66541 0.472381,0.58063 -0.157647,-0.0848 -0.286632,0.0197 -0.286632,0.23221 0,0.3315 0.06346,0.3289 0.447133,-0.0183 0.376123,-0.34038 0.494812,-0.3472 0.747357,-0.0429 0.165124,0.19896 0.211961,0.45001 0.104083,0.55789 -0.107878,0.10788 -0.07708,0.15799 0.06844,0.11136 0.394451,-0.12641 2.813326,1.62176 2.637536,1.9062 -0.08331,0.1348 0.0333,0.17419 0.259139,0.0875 0.225839,-0.0867 0.410617,-0.0313 0.410617,0.12291 0,0.15426 0.427652,0.48341 0.950338,0.73144 0.522686,0.24803 1.01189,0.61137 1.087119,0.80741 0.07523,0.19605 0.536169,0.54597 1.02431,0.77761 0.488142,0.23164 0.964455,0.66353 1.058473,0.95975 0.132258,0.41671 0.221053,0.45752 0.392368,0.18032 0.177449,-0.28711 0.256032,-0.26808 0.395674,0.0958 0.09584,0.24974 0.294148,0.37998 0.44069,0.28941 0.146542,-0.0906 0.342426,-0.0573 0.435297,0.074 0.09287,0.13126 1.001684,0.89066 2.019585,1.68754 1.968441,1.54103 2.442047,1.92133 3.475013,2.7904 0.35809,0.30127 1.238693,0.89658 1.956894,1.32292 0.77758,0.46158 1.30794,0.96581 1.31107,1.24647 0.003,0.25923 0.19068,0.54248 0.41733,0.62945 0.22664,0.087 0.35177,0.3153 0.27806,0.50739 -0.0856,0.2231 0.006,0.29565 0.25274,0.20084 0.21273,-0.0816 0.54504,-0.0171 0.73848,0.14347 0.19343,0.16054 0.43004,0.21355 0.52579,0.1178 0.0958,-0.0958 0.1741,-0.0543 0.1741,0.0921 0,0.14641 0.30933,0.40715 0.6874,0.57941 0.43552,0.19843 0.63303,0.4549 0.53902,0.69989 -0.1581,0.41201 0.56046,0.92392 1.04875,0.74715 0.15993,-0.0579 0.66595,0.27844 1.12448,0.74744 0.45852,0.46899 0.83368,0.74782 0.83368,0.61962 0,-0.1282 0.16804,-0.003 0.37341,0.27759 0.20538,0.28087 0.32428,0.59017 0.26422,0.68735 -0.06,0.0972 0.1291,0.11437 0.42034,0.0382 0.70204,-0.18358 0.70231,0.48181 3.6e-4,0.92018 -0.29104,0.18176 -0.52916,0.45316 -0.52916,0.60311 0,0.14996 0.26057,0.0299 0.57905,-0.26682 0.73008,-0.68017 1.23131,-0.67363 2.06678,0.027 l 0.66146,0.55469 -0.70269,-0.41805 c -0.64484,-0.38363 -0.69747,-0.38244 -0.63922,0.0145 0.0349,0.23788 0.32357,0.45167 0.64146,0.47509 0.31789,0.0234 0.7363,0.2591 0.9298,0.52373 0.19351,0.26464 0.48896,0.39641 0.65655,0.29283 0.1676,-0.10358 0.30472,-0.0424 0.30472,0.13596 0,0.17837 0.0627,0.26159 0.13937,0.18494 0.0766,-0.0767 0.63353,0.31236 1.23753,0.86446 0.93835,0.85775 1.04812,1.06413 0.75428,1.41818 -0.18914,0.2279 -0.5079,0.41436 -0.70836,0.41436 -0.20047,0 -0.36448,0.11906 -0.36448,0.26458 0,0.14552 -0.29766,0.26459 -0.66146,0.26459 -0.48507,0 -0.66146,0.14111 -0.66146,0.52916 0,0.30467 0.17639,0.52917 0.41578,0.52917 0.40097,0 1.17172,0.59671 1.17172,0.90714 0,0.0832 -2.17289,0.13822 -4.82864,0.12236 -4.18148,-0.025 -4.96163,-0.0962 -5.82084,-0.53125 z m 9.94635,-3.32289 c 0.20785,-0.20785 -0.84952,-1.40869 -1.24038,-1.40869 -0.14508,0 -0.48151,-0.19705 -0.74763,-0.43789 -0.26612,-0.24083 -0.48386,-0.31494 -0.48386,-0.16468 0,0.15025 0.17152,0.41554 0.38115,0.58951 0.20963,0.17398 0.31595,0.48622 0.23628,0.69386 -0.0797,0.20764 -0.006,0.37753 0.16363,0.37753 0.16968,0 0.23492,-0.11906 0.14498,-0.26458 -0.0899,-0.14552 0.008,-0.26459 0.21811,-0.26459 0.2099,0 0.44391,0.23813 0.52001,0.52917 0.13952,0.53352 0.47781,0.68026 0.80771,0.35036 z m -16.731905,-0.6933 c -0.339589,-0.33959 -0.683962,-0.0771 -0.432551,0.32966 0.09739,0.15758 0.298278,0.21159 0.446423,0.12003 0.180712,-0.11168 0.176146,-0.25968 -0.01387,-0.44969 z m 1.560036,-0.0256 c 0,-0.44861 -0.715545,-0.76577 -0.933183,-0.41363 -0.08601,0.13917 -0.0828,0.3721 0.0071,0.51762 0.244488,0.39559 0.926041,0.31905 0.926041,-0.10399 z m 12.766149,-0.34801 c -0.1819,-0.0667 -0.33073,-0.30978 -0.33073,-0.54019 0,-0.23041 -0.0653,-0.3536 -0.14517,-0.27376 -0.0798,0.0798 -0.0648,0.46559 0.0335,0.85722 0.13595,0.54165 0.24984,0.63619 0.4759,0.39502 0.22069,-0.23542 0.21206,-0.34824 -0.0335,-0.43829 z m -13.824482,-0.60634 c 0,-0.14552 -0.18562,-0.26458 -0.41249,-0.26458 -0.226869,0 -0.338905,0.11906 -0.248968,0.26458 0.08994,0.14552 0.275557,0.26459 0.41249,0.26459 0.136932,0 0.248968,-0.11907 0.248968,-0.26459 z m 2.116662,0 c 0,-0.14552 -0.178589,-0.26458 -0.39687,-0.26458 -0.218282,0 -0.396875,0.11906 -0.396875,0.26458 0,0.14552 0.178593,0.26459 0.396875,0.26459 0.218281,0 0.39687,-0.11907 0.39687,-0.26459 z m 7.67292,-3.19178 c 0,0.17193 0.11386,0.24222 0.25303,0.15622 0.13916,-0.086 0.18679,-0.32898 0.10584,-0.53994 -0.11086,-0.2889 -0.27125,-0.31716 -0.6499,-0.11451 -0.2765,0.14798 -0.50272,0.3985 -0.50272,0.55672 0,0.18864 0.13663,0.17428 0.39688,-0.0417 0.29575,-0.24545 0.39687,-0.24973 0.39687,-0.0168 z m -17.197915,-13.2124 c 0,-0.14552 -0.12609,-0.26459 -0.280199,-0.26459 -0.154109,0 -0.206613,0.11907 -0.116676,0.26459 0.08994,0.14552 0.216026,0.26458 0.280198,0.26458 0.06417,0 0.116677,-0.11906 0.116677,-0.26458 z m -13.917879,-3.39549 c 0.07495,-0.12127 -0.03185,-0.22049 -0.23733,-0.22049 -0.205478,0 -0.312277,0.0992 -0.237329,0.22049 0.07495,0.12127 0.181745,0.22049 0.237329,0.22049 0.05558,0 0.162383,-0.0992 0.23733,-0.22049 z m 5.59747,-2.93192 c -0.08226,-0.13309 -0.02858,-0.28231 0.119288,-0.3316 0.147864,-0.0493 0.02954,-0.23906 -0.262935,-0.42171 -0.463501,-0.28946 -0.531778,-0.2667 -0.531778,0.17726 0,0.42424 0.224009,0.6645 0.743219,0.79715 0.04497,0.0115 0.01446,-0.088 -0.06779,-0.2211 z m 35.451504,28.04152 c -0.0837,-0.13546 -0.0511,-0.30882 0.0726,-0.38523 0.12365,-0.0764 0.22481,0.0344 0.22481,0.2463 0,0.44613 -0.0834,0.48511 -0.29738,0.13893 z m 0.5152,-0.81635 c -0.0914,-0.14789 -0.29542,-0.18903 -0.45337,-0.0914 -0.16738,0.10345 -0.21141,0.0549 -0.10554,-0.11642 0.20056,-0.32451 0.95845,-0.13437 0.95845,0.24046 0,0.3153 -0.19432,0.29944 -0.39954,-0.0326 z m -17.06296,-0.26026 c -0.34318,-0.22178 -0.33716,-0.25703 0.0445,-0.26054 0.24276,-0.002 0.65948,-0.0867 0.92605,-0.18768 0.45396,-0.172 0.45652,-0.15524 0.0405,0.26458 -0.5164,0.52117 -0.49484,0.51726 -1.01108,0.18364 z m 17.19791,-0.54479 c 0,-0.1541 0.11907,-0.20661 0.26459,-0.11667 0.14552,0.0899 0.26458,0.21602 0.26458,0.2802 0,0.0642 -0.11906,0.11667 -0.26458,0.11667 -0.14552,0 -0.26459,-0.12609 -0.26459,-0.2802 z m -2.90636,-0.43179 c -0.004,-0.33138 0.44875,-0.69659 0.9607,-0.77448 0.3932,-0.0598 0.27587,0.76425 -0.12797,0.89887 -0.16919,0.0564 -0.30944,-0.0562 -0.31167,-0.25024 -0.003,-0.26453 -0.0682,-0.2535 -0.26053,0.0441 -0.15411,0.23847 -0.2581,0.2711 -0.26053,0.0818 z m 1.67164,-0.21405 c 0,-0.19053 0.15875,-0.2855 0.35278,-0.21105 0.19403,0.0745 0.35278,0.16943 0.35278,0.21105 0,0.0416 -0.15875,0.1366 -0.35278,0.21105 -0.19403,0.0745 -0.35278,-0.0205 -0.35278,-0.21105 z m -25.869491,-4.4895 c 0.282475,-0.21365 0.625644,-0.39225 0.762598,-0.39688 0.136954,-0.005 0.01789,0.1664 -0.264583,0.38005 -0.282475,0.21365 -0.625644,0.39225 -0.762598,0.39687 -0.136954,0.005 -0.01789,-0.16639 0.264583,-0.38004 z m 2.231735,-0.008 c -0.02136,-0.14552 -0.07873,-0.47294 -0.127477,-0.7276 -0.04875,-0.25466 0.01286,-0.46302 0.136921,-0.46302 0.372464,0 0.467965,0.36503 0.242275,0.92604 -0.117083,0.29104 -0.230357,0.41011 -0.251719,0.26458 z M 79.984868,153.2421 c 0.251196,-0.26226 0.513672,-0.41989 0.583279,-0.35028 0.06961,0.0696 -0.135917,0.28418 -0.456721,0.47684 -0.557294,0.33467 -0.562932,0.32904 -0.126558,-0.12656 z m 0.998487,-0.77292 c 0,-0.21828 0.115325,-0.39688 0.256279,-0.39688 0.140954,0 0.187747,0.1786 0.103984,0.39688 -0.08376,0.21828 -0.199088,0.39687 -0.256279,0.39687 -0.05719,0 -0.103984,-0.17859 -0.103984,-0.39687 z m 1.852083,-0.52917 c -0.363517,-0.43801 -0.920647,-0.55167 -0.663331,-0.13532 0.09256,0.14977 -0.01319,0.19446 -0.247449,0.10457 -0.225004,-0.0864 -0.343223,-0.26358 -0.26271,-0.39385 0.242713,-0.39272 0.798421,-0.26832 1.305782,0.29231 0.263389,0.29104 0.415483,0.52917 0.337987,0.52917 -0.0775,0 -0.289122,-0.1786 -0.470279,-0.39688 z m 23.018752,0.13229 c -0.23847,-0.15411 -0.2711,-0.25809 -0.0818,-0.26053 0.17331,-0.002 0.3887,0.11501 0.47863,0.26053 0.20302,0.32849 0.11143,0.32849 -0.39687,0 z m -1.45521,-5.95302 c 0.29104,-0.23888 0.49645,-0.55384 0.45647,-0.6999 -0.04,-0.14607 0.0358,-0.19851 0.16845,-0.11653 0.13264,0.082 0.38004,-0.0183 0.54978,-0.22281 0.23755,-0.28624 0.22922,-0.39867 -0.0362,-0.48828 -0.18963,-0.064 -0.11672,-0.08 0.16202,-0.0354 0.27874,0.0445 0.85343,-0.21066 1.27707,-0.56714 0.6832,-0.57487 0.72674,-0.76322 0.15897,-0.68767 -0.22843,0.0304 -0.11995,-0.68093 0.14412,-0.945 0.11335,-0.11335 0.18207,-0.087 0.15271,0.0585 -0.1143,0.56653 0.0295,0.77496 0.27387,0.39688 0.21573,-0.33382 0.25713,-0.31816 0.26053,0.0985 0.003,0.41701 0.0688,0.44165 0.41345,0.15565 0.327,-0.27139 0.34031,-0.3836 0.0661,-0.55752 -0.18879,-0.11975 -0.22419,-0.21774 -0.0787,-0.21774 0.82085,0 0.88565,0.45141 0.14358,1.00005 -0.43099,0.31864 -0.87773,0.58313 -0.99276,0.58775 -0.11504,0.005 -0.59116,0.39275 -1.05806,0.8625 -0.46689,0.46976 -1.2408,1.06974 -1.71979,1.3333 -0.68487,0.37684 -0.75786,0.38642 -0.34172,0.0449 z m 5.42275,-4.36648 c -0.20919,-0.12928 -0.28802,-0.32738 -0.17518,-0.44022 0.11284,-0.11284 0.31593,-0.03 0.45131,0.18405 0.13538,0.21407 0.2617,0.27015 0.28071,0.12463 0.019,-0.14552 0.0622,-0.38364 0.0961,-0.52917 0.0338,-0.14552 0.0796,-0.41266 0.10177,-0.59365 0.0417,-0.34015 0.91522,-0.33633 1.03249,0.005 0.15128,0.43972 0.0432,0.50257 -0.33073,0.19226 -0.33028,-0.27411 -0.39688,-0.24058 -0.39688,0.19979 0,0.69928 -0.56972,1.16052 -1.05954,0.85779 z m -0.79254,-0.62831 c 0,-0.0549 0.20836,-0.2633 0.46302,-0.46302 0.41964,-0.32911 0.429,-0.31975 0.0999,0.0999 -0.34564,0.44072 -0.56291,0.58088 -0.56291,0.36312 z m -15.081252,-0.79784 c 0,-0.0572 0.184778,-0.17489 0.410617,-0.26155 0.235459,-0.0904 0.341662,-0.046 0.248968,0.10398 -0.155378,0.25141 -0.659585,0.37186 -0.659585,0.15757 z m 6.085412,-0.68976 c 0,-0.14552 0.11907,-0.26459 0.26459,-0.26459 0.14552,0 0.26458,0.11907 0.26458,0.26459 0,0.14552 -0.11906,0.26458 -0.26458,0.26458 -0.14552,0 -0.26459,-0.11906 -0.26459,-0.26458 z m -3.902599,-0.17523 c -0.181902,-0.0734 -0.33073,-0.30915 -0.33073,-0.5239 0,-0.21474 0.101522,-0.32769 0.225605,-0.25101 0.124082,0.0767 0.446516,-0.0221 0.71652,-0.21953 0.691274,-0.50547 1.695606,-0.0477 1.695606,0.77279 0,0.14552 -0.103329,0.10147 -0.22962,-0.0979 -0.185404,-0.29267 -0.284971,-0.2672 -0.51707,0.13229 -0.265471,0.45694 -0.288065,0.44677 -0.295495,-0.13294 -0.0063,-0.49477 -0.08325,-0.5653 -0.363119,-0.33303 -0.19529,0.16208 -0.452385,0.20642 -0.571323,0.0985 -0.118937,-0.10788 -0.141484,0.0122 -0.05011,0.26688 0.09138,0.25466 0.140115,0.45362 0.108302,0.44213 -0.03181,-0.0115 -0.20667,-0.0809 -0.388571,-0.15434 z m 17.299769,-0.27414 c -0.093,-0.093 0.0395,-0.40736 0.29444,-0.69851 0.44573,-0.50895 0.44321,-0.52192 -0.0656,-0.33652 -0.42455,0.15471 -0.46379,0.12696 -0.19844,-0.14035 0.25723,-0.25913 0.40128,-0.26262 0.64823,-0.0157 0.38745,0.38746 0.83659,0.4219 0.60449,0.0464 -0.0922,-0.14913 -0.0516,-0.23842 0.0902,-0.19844 0.2508,0.0707 0.3107,-0.0428 0.3107,-0.58875 0,-0.36495 -0.68754,-0.33153 -1.36107,0.0661 -0.44812,0.26459 -0.5841,0.26459 -0.67992,0 -0.0912,-0.25181 -1.60483,-0.33073 -6.34374,-0.33073 -5.095,0 -6.19927,0.0643 -6.08784,0.35473 0.0749,0.19509 0.0389,0.51206 -0.08,0.70436 -0.3647,0.59011 -1.147205,-0.40252 -0.946789,-1.20103 0.09048,-0.36051 0.07274,-0.64055 -0.03943,-0.62231 -0.521932,0.0849 -0.638185,-0.0625 -0.33623,-0.42637 0.181157,-0.21828 0.463626,-0.39505 0.627709,-0.39283 0.16409,0.002 0.119739,0.11947 -0.09854,0.26054 -0.218281,0.14106 -0.303389,0.2583 -0.189128,0.26053 0.11426,0.002 0.521898,-0.20179 0.905858,-0.45337 0.51535,-0.33767 0.72663,-0.37188 0.80703,-0.13068 0.12894,0.38682 1.54931,-0.35213 1.76693,-0.91925 0.19866,-0.51769 -0.23484,-0.41481 -0.77715,0.18443 -0.26339,0.29104 -0.56676,0.52917 -0.67415,0.52917 -0.34903,0 -0.52376,-0.82775 -0.2701,-1.27951 0.22832,-0.40664 0.26084,-0.4049 0.4256,0.0227 0.21683,0.5628 0.54262,0.59778 0.74145,0.0796 0.0983,-0.25626 0.02,-0.33461 -0.23627,-0.23628 -0.70582,0.27085 -0.39357,-0.34425 0.67814,-1.33583 0.59892,-0.55414 1.19327,-0.90076 1.3638,-0.79537 0.17804,0.11004 0.23008,0.07 0.12662,-0.0974 -0.24226,-0.39199 4.50557,-4.70042 5.13658,-4.66119 0.27586,0.0172 0.43447,-0.0774 0.35248,-0.21003 -0.18867,-0.30527 0.41186,-1.05153 0.70192,-0.87226 0.11898,0.0735 0.29111,0.0127 0.38252,-0.1352 0.0914,-0.1479 0.0173,-0.2689 -0.16458,-0.2689 -0.18193,0 -0.10097,-0.16804 0.1799,-0.37342 0.28087,-0.20537 0.61968,-0.30604 0.75291,-0.2237 0.13323,0.0823 0.17041,0.0335 0.0826,-0.10856 -0.18108,-0.29298 0.74354,-1.18628 0.98154,-0.94828 0.0851,0.0851 0.15465,-0.0438 0.15465,-0.28632 0,-0.24254 0.11541,-0.44097 0.25648,-0.44097 0.14106,0 0.95883,-0.70455 1.81727,-1.56565 1.91331,-1.91927 3.10883,-2.27166 4.15558,-1.22491 l 0.64983,0.64984 -0.0585,6.56046 c -0.0411,4.60455 -0.0827,5.37897 -0.13971,2.59752 -0.0447,-2.17961 -0.1859,-4.06763 -0.31386,-4.19559 -0.43499,-0.43499 -0.86465,0.93428 -0.9724,3.0989 -0.12944,2.60041 -0.43803,4.02414 -0.85293,3.93516 -0.16964,-0.0364 -0.30843,0.11244 -0.30843,0.33072 0,0.21829 -0.11906,0.39688 -0.26458,0.39688 -0.14552,0 -0.26459,0.61912 -0.26459,1.37583 0,1.01685 0.0774,1.29839 0.29683,1.07901 0.16325,-0.16325 0.48044,-0.22636 0.70486,-0.14024 0.28981,0.11121 0.34528,0.055 0.19146,-0.19385 -0.14952,-0.24194 -0.11487,-0.28757 0.11194,-0.14739 0.41039,0.25363 0.0509,0.64554 -0.73019,0.79596 -0.31729,0.0611 -0.7139,0.19577 -0.88135,0.29927 -0.18137,0.11209 -0.23271,0.0721 -0.12698,-0.099 0.25751,-0.41667 -0.35051,-0.70441 -0.7141,-0.33793 -0.23476,0.23662 -0.18226,0.26442 0.22149,0.11729 l 0.52917,-0.19284 -0.52917,0.63562 c -0.34475,0.41411 -0.37601,0.51747 -0.0897,0.2966 0.67639,-0.52178 0.81125,0.0686 0.14682,0.64273 -1.14198,0.98681 -2.23574,1.67192 -2.40266,1.505 z m 0.6595,-0.54282 c 0.32911,-0.41965 0.31975,-0.429 -0.0999,-0.0999 -0.44073,0.34565 -0.58089,0.56292 -0.36313,0.56292 0.0549,0 0.2633,-0.20836 0.46302,-0.46302 z m -13.60044,-1.70335 c 0.0584,-0.82827 0.0526,-0.83269 -0.34605,-0.26359 -0.22298,0.31834 -0.331959,0.69766 -0.24218,0.84292 0.30287,0.49005 0.52855,0.26779 0.58823,-0.57933 z m 3.51252,-1.5378 c 0,-0.14552 -0.11906,-0.26458 -0.26458,-0.26458 -0.14552,0 -0.26458,0.11906 -0.26458,0.26458 0,0.14552 0.11906,0.26459 0.26458,0.26459 0.14552,0 0.26458,-0.11907 0.26458,-0.26459 z m 0.79375,-0.92604 c 0,-0.21828 -0.11906,-0.39687 -0.26458,-0.39687 -0.14552,0 -0.26458,0.17859 -0.26458,0.39687 0,0.21828 0.11906,0.39688 0.26458,0.39688 0.14552,0 0.26458,-0.1786 0.26458,-0.39688 z m -1.0125,-1.32219 c -0.0476,-0.26045 0.0715,-0.5737 0.26458,-0.69611 0.24087,-0.1527 0.25214,-0.22383 0.0359,-0.22661 -0.17332,-0.002 -0.3899,0.11696 -0.48131,0.26485 -0.0914,0.1479 -0.30679,0.18457 -0.47863,0.0815 -0.1885,-0.11305 -0.17221,-0.0144 0.0411,0.24868 0.19443,0.23984 0.26715,0.5758 0.16161,0.74657 -0.1205,0.19497 -0.0551,0.26291 0.17565,0.18258 0.20216,-0.0703 0.32865,-0.34101 0.2811,-0.60146 z m 0.79643,-0.19034 c -0.18986,-0.18986 -0.31309,-0.20548 -0.31309,-0.0397 0,0.35316 0.3129,0.66606 0.48948,0.48948 0.0752,-0.0752 -0.004,-0.27759 -0.17639,-0.44979 z m 1.53899,-2.32393 c 0.33558,-0.29104 0.48136,-0.52916 0.32397,-0.52916 -0.2755,0 -1.11772,0.71203 -1.11772,0.94494 0,0.21042 0.18113,0.11555 0.79375,-0.41578 z m 2.52442,-2.09906 c -0.0959,-0.1552 -0.29113,-0.28219 -0.4338,-0.28219 -0.14267,0 -0.10588,0.16659 0.0818,0.37019 0.37985,0.41217 0.62352,0.35126 0.35204,-0.088 z m 4.12391,-4.18479 c 0.32911,-0.41965 0.31975,-0.429 -0.0999,-0.0999 -0.44073,0.34565 -0.58089,0.56292 -0.36313,0.56292 0.055,0 0.2633,-0.20836 0.46302,-0.46302 z m -15.069028,13.36774 c -0.375057,-0.37506 0.339566,-1.27422 0.987227,-1.24217 0.273506,0.0135 0.305629,0.0678 0.09128,0.15434 -0.480837,0.19403 -0.405176,0.61853 0.110243,0.61853 0.40302,0 0.273806,0.39159 -0.132292,0.40092 -0.09701,0.002 -0.306157,0.0868 -0.464763,0.18788 -0.158606,0.1011 -0.424871,0.0473 -0.5917,-0.1195 z m 0.601525,-0.4919 c -0.08519,-0.13784 -0.267668,-0.18092 -0.405507,-0.0957 -0.137839,0.0852 -0.180917,0.26767 -0.09573,0.40551 0.08519,0.13784 0.267667,0.18091 0.405506,0.0957 0.13784,-0.0852 0.180917,-0.26766 0.09573,-0.4055 z m 20.166393,-1.74129 c -0.33589,-0.33589 -0.17447,-0.60002 0.26389,-0.43181 0.31969,0.12268 0.38096,0.073 0.22371,-0.18147 -0.14722,-0.23821 -0.11465,-0.28743 0.10173,-0.1537 0.24374,0.15064 0.24573,0.28419 0.008,0.57005 -0.35679,0.4299 -0.36285,0.43189 -0.59782,0.19693 z m -18.37206,-0.40221 c 0.13183,-0.39551 0.73317,-0.61328 0.73317,-0.26551 0,0.14208 -0.18854,0.33067 -0.41898,0.4191 -0.25768,0.0989 -0.37864,0.0397 -0.31419,-0.15359 z m 17.5162,-0.5089 c -0.092,-0.14884 -0.0958,-0.34208 -0.008,-0.42941 0.0873,-0.0873 0.15879,-0.005 0.15879,0.18229 0,0.27318 0.079,0.27551 0.39687,0.0117 0.22876,-0.18985 0.39688,-0.21557 0.39688,-0.0607 0,0.38463 -0.74495,0.6183 -0.94406,0.29612 z"
         id="path3" /><path
         style="fill:#0000ff;fill-opacity:1"
         d="m 116.7021,177.20325 c -0.35277,-0.23159 -0.35277,-0.29271 0,-0.55008 0.33697,-0.24583 0.32758,-0.26728 -0.0622,-0.14212 -0.29455,0.0946 -0.816,-0.18044 -1.45521,-0.76753 -0.5479,-0.50322 -1.08547,-0.91551 -1.19461,-0.91621 -0.10915,-6.9e-4 -0.19844,-0.1614 -0.19844,-0.35713 0,-0.19573 -0.26789,-0.58268 -0.59531,-0.85989 l -0.59532,-0.50403 0.50479,0.66146 c 0.27764,0.3638 0.01,0.16005 -0.59531,-0.45278 -0.60506,-0.61283 -1.1001,-1.06731 -1.1001,-1.00995 0,0.0573 -0.41672,-0.28874 -0.92604,-0.7691 -0.50933,-0.48035 -0.92605,-1.04574 -0.92605,-1.25642 0,-0.21069 -0.47797,-0.6517 -1.06215,-0.98003 -0.58419,-0.32833 -0.99472,-0.70608 -0.9123,-0.83944 0.0824,-0.13336 -0.0109,-0.1808 -0.20732,-0.10541 -0.19644,0.0754 -0.6401,-0.16411 -0.9859,-0.5322 -0.3458,-0.36809 -0.51868,-0.66944 -0.38418,-0.66967 0.13451,-2.2e-4 -0.16507,-0.20858 -0.66572,-0.46302 -0.50066,-0.25443 -0.95831,-0.61516 -1.01699,-0.80161 -0.11509,-0.36562 0.49756,-0.33656 0.76972,0.0365 0.091,0.12468 0.24681,0.0949 0.34635,-0.0661 0.19219,-0.31097 0.13001,-0.3385 -0.90859,-0.40226 -0.89428,-0.0549 -1.38868,-0.3959 -1.21818,-0.8402 0.0774,-0.20181 0.0558,-0.34307 -0.0481,-0.3139 -0.40089,0.11255 -1.38599,-0.62866 -1.21126,-0.91137 0.11666,-0.18876 0.0342,-0.23913 -0.22722,-0.13881 -0.30499,0.11703 -0.37614,0.0267 -0.27713,-0.35192 0.12833,-0.49073 0.0355,-0.54868 -0.98685,-0.61616 -0.21828,-0.0144 -0.39687,-0.19927 -0.39687,-0.41079 0,-0.21153 -0.29766,-0.4674 -0.661462,-0.56859 -0.60731,-0.16893 -0.614003,-0.18616 -0.08176,-0.21037 0.318834,-0.0145 0.654482,0.0946 0.745882,0.24253 0.0914,0.14789 0.30679,0.17985 0.47864,0.071 0.50818,-0.32184 1.88228,-0.31021 2.11853,0.0179 0.16186,0.22482 0.2534,0.21778 0.35277,-0.0271 0.15904,-0.39194 1.14844,-0.44893 1.14844,-0.0661 0,0.14552 -0.23813,0.26458 -0.52917,0.26458 -0.86799,0 -0.60338,0.48096 0.57886,1.05216 0.98499,0.47589 1.63139,0.53534 5.82084,0.53534 2.59204,0 4.7128,-0.068 4.7128,-0.15119 0,-0.31043 -0.77075,-0.90714 -1.17172,-0.90714 -0.23939,0 -0.41578,-0.2245 -0.41578,-0.52917 0,-0.38805 0.17639,-0.52916 0.66146,-0.52916 0.3638,0 0.66146,-0.0908 0.66146,-0.20185 0,-0.11101 0.26019,-0.31937 0.57819,-0.46302 0.31801,-0.14365 0.63111,-0.42658 0.69579,-0.62873 0.0724,-0.22618 9e-5,-0.29495 -0.18788,-0.17877 -0.17956,0.11097 -0.2755,0.0444 -0.23276,-0.16161 0.04,-0.19272 -0.085,-0.31768 -0.2777,-0.2777 -0.19271,0.04 -0.27469,-0.0498 -0.18217,-0.19949 0.24444,-0.3955 1.98778,1.01222 1.98778,1.6051 0,0.30591 0.13603,0.43726 0.36276,0.35025 0.19952,-0.0766 0.5482,0.0462 0.77485,0.27289 0.22665,0.22665 0.5132,0.41209 0.63677,0.41209 0.12358,0 0.42366,0.23239 0.66685,0.51642 0.39166,0.45742 0.43615,1.30049 0.38953,7.38057 -0.0486,6.33648 -0.0914,6.90698 -0.55666,7.42109 -0.53773,0.59416 -1.84637,0.74277 -2.53869,0.28829 z m -3.52777,-5.14369 c 0,-0.21188 -0.10116,-0.32271 -0.22481,-0.2463 -0.12364,0.0764 -0.1563,0.24977 -0.0726,0.38524 0.21394,0.34617 0.29738,0.30719 0.29738,-0.13894 z m -2.29306,-1.59914 c 0.27692,-0.33367 0.21618,-0.55293 -0.0916,-0.33072 -0.0504,0.0364 -0.31828,-0.1104 -0.59531,-0.32617 -0.45941,-0.35784 -0.45717,-0.33645 0.0255,0.2433 0.47812,0.57429 0.48317,0.61882 0.0524,0.46149 -0.28508,-0.10412 -0.41177,-0.069 -0.31512,0.0874 0.229,0.37053 0.54244,0.32463 0.92417,-0.13533 z m -3.70417,-2.44989 c 0,-0.11052 -0.26789,-0.36551 -0.59531,-0.56665 -0.5932,-0.36441 -0.59352,-0.36369 -0.0913,0.20094 0.53924,0.60624 0.68659,0.68472 0.68659,0.36571 z m -0.26863,-2.01427 c 0.002,-0.12696 -0.17323,-0.0837 -0.38991,0.0961 -0.21668,0.17983 -0.32086,0.44524 -0.23151,0.58981 0.16397,0.26532 0.61343,-0.2308 0.62142,-0.68593 z m -2.77407,-0.95979 c 0.0899,-0.14552 0.0374,-0.26459 -0.11668,-0.26459 -0.15411,0 -0.2802,0.11907 -0.2802,0.26459 0,0.14552 0.0525,0.26458 0.11668,0.26458 0.0642,0 0.19026,-0.11906 0.2802,-0.26458 z m 0.36679,-1.27277 c -0.18223,-0.29179 -0.69649,-0.63824 -1.14281,-0.76988 -0.49732,-0.14668 -0.79861,-0.4041 -0.77822,-0.66492 0.0203,-0.25939 -0.10889,-0.37104 -0.33073,-0.28591 -0.2002,0.0768 -0.36399,0.008 -0.36399,-0.15322 0,-0.16109 0.1389,-0.29289 0.30868,-0.29289 0.16977,0 0.25308,-0.0556 0.18514,-0.12354 -0.0679,-0.0679 -0.47475,-0.0278 -0.904,0.0893 -0.73586,0.20065 -0.74721,0.2236 -0.19867,0.40166 0.49857,0.16184 1.05261,1.03966 0.94416,1.49592 -0.0188,0.0789 0.19835,0.16102 0.48246,0.18242 0.28412,0.0214 0.44745,-0.0729 0.36296,-0.20966 -0.0845,-0.13671 -0.0275,-0.24857 0.12657,-0.24857 0.15411,0 0.2802,0.11907 0.2802,0.26459 0,0.14552 0.16585,0.26458 0.36857,0.26458 0.20271,0 0.44364,0.19563 0.53539,0.43474 0.0918,0.23911 0.23181,0.36977 0.31122,0.29035 0.0794,-0.0794 -0.005,-0.38314 -0.18693,-0.67494 z m 13.43564,-0.96455 c 0,-0.21188 -0.10116,-0.32272 -0.22481,-0.2463 -0.12364,0.0764 -0.1563,0.24977 -0.0726,0.38523 0.21394,0.34618 0.29738,0.3072 0.29738,-0.13893 z m 0.61736,-0.64479 c 0,-0.37483 -0.75789,-0.56497 -0.95845,-0.24046 -0.10587,0.1713 -0.0618,0.21987 0.10554,0.11642 0.15795,-0.0976 0.36196,-0.0565 0.45337,0.0914 0.20522,0.33207 0.39954,0.34793 0.39954,0.0326 z m -2.64989,-1.39532 c 0.002,0.19402 0.14248,0.30663 0.31167,0.25024 0.40384,-0.13462 0.52117,-0.9587 0.12797,-0.89887 -0.51195,0.0779 -0.96496,0.4431 -0.9607,0.77448 0.002,0.18934 0.10642,0.15671 0.26053,-0.0818 0.19232,-0.29759 0.2575,-0.30862 0.26053,-0.0441 z m -7.17344,9.10607 c -0.32911,-0.41964 -0.31975,-0.429 0.0999,-0.0999 0.25466,0.19972 0.46302,0.40808 0.46302,0.46302 0,0.21776 -0.21727,0.0776 -0.56291,-0.36313 z m -29.398436,-7.03279 c -0.351185,-0.35119 -0.900632,-0.7788 -1.220995,-0.95025 -0.320363,-0.17146 -0.512586,-0.42483 -0.427162,-0.56305 0.08543,-0.13822 -0.04419,-0.2513 -0.288031,-0.2513 -0.317192,0 -0.402847,-0.15488 -0.301014,-0.54429 0.109262,-0.41782 0.06428,-0.47951 -0.193563,-0.26552 -0.245077,0.2034 -0.465153,0.13595 -0.813942,-0.24946 -0.262924,-0.29053 -0.393307,-0.52823 -0.289742,-0.52823 0.103566,0 0.0091,-0.25588 -0.209971,-0.56862 -0.351961,-0.50249 -0.352916,-0.65632 -0.0082,-1.32292 0.214535,-0.41486 0.561412,-0.7543 0.770836,-0.7543 0.209424,0 0.512455,-0.24605 0.673401,-0.54678 0.316205,-0.59083 2.052896,-2.23846 3.070175,-2.91272 0.345855,-0.22923 0.538571,-0.51342 0.428258,-0.63153 -0.110313,-0.11811 -0.0274,-0.16057 0.184241,-0.0943 0.211645,0.0662 0.658398,-0.18537 0.992783,-0.55909 0.593109,-0.66287 0.617595,-0.66702 1.001519,-0.16963 0.216449,0.28041 0.471173,0.43222 0.566052,0.33734 0.09488,-0.0949 -0.11225,-0.42268 -0.460287,-0.72845 -0.348037,-0.30576 -0.513732,-0.49983 -0.368211,-0.43126 0.315254,0.14856 0.964728,-0.48665 0.733748,-0.71763 -0.08827,-0.0883 -0.0357,-0.16048 0.116802,-0.16048 0.152507,0 0.648601,-0.37979 1.10243,-0.84398 0.45383,-0.46419 0.825145,-0.74726 0.825145,-0.62906 0,0.1182 0.182386,0.0635 0.405303,-0.12146 0.354866,-0.29451 0.372743,-0.25073 0.143655,0.35182 -0.203021,0.53398 -0.184644,0.65863 0.08201,0.55631 0.189012,-0.0725 0.778901,0.34989 1.310864,0.93871 0.531963,0.58881 1.076656,1.07058 1.210429,1.07058 0.133773,0 0.282911,0.0916 0.331418,0.2035 0.04851,0.11193 0.710394,0.72346 1.47086,1.35895 0.760467,0.63548 1.455089,1.38361 1.543605,1.6625 0.117493,0.37019 0.250166,0.43302 0.491466,0.23276 0.238291,-0.19776 0.330527,-0.16798 0.330527,0.10672 0,0.20957 -0.09922,0.31972 -0.220486,0.24477 -0.121268,-0.075 -0.220486,-0.004 -0.220486,0.15869 0,0.16222 -0.293894,-0.0391 -0.653097,-0.44741 -0.359204,-0.4083 -0.65686,-0.59353 -0.661459,-0.41163 -0.0046,0.1819 0.09796,0.33073 0.227915,0.33073 0.129952,0 0.309896,0.19185 0.399875,0.42633 0.117065,0.30507 0.04986,0.38269 -0.236275,0.27289 -0.283645,-0.10884 -0.399876,0.0193 -0.399876,0.44091 0,0.32689 -0.219671,0.78244 -0.488157,1.01232 -0.445188,0.38119 -0.514401,0.38054 -0.786312,-0.007 -0.262476,-0.37442 -0.279052,-0.36789 -0.13852,0.0546 0.107658,0.32364 -0.04553,0.6245 -0.470458,0.92399 -0.346552,0.24425 -0.719392,0.41525 -0.828532,0.38 -0.109141,-0.0353 -0.168672,0.0252 -0.132292,0.13435 0.03638,0.10914 -0.04913,0.25797 -0.190032,0.33073 -0.140898,0.0728 -0.54283,0.39795 -0.893182,0.72265 -0.66599,0.61721 -1.241524,0.558 -0.988375,-0.1017 0.08743,-0.22785 0.03367,-0.31362 -0.132292,-0.21105 -0.153774,0.095 -0.215756,0.33914 -0.137737,0.54245 0.187958,0.48981 -1.335898,2.04231 -1.76338,1.79652 -0.179725,-0.10333 -0.238109,-0.09 -0.129741,0.0295 0.315684,0.34832 -1.663765,1.53546 -2.739638,1.64305 -0.768168,0.0768 -1.123073,-0.0414 -1.621866,-0.54018 z m 3.142041,-0.57235 c 0.416816,-0.21738 0.579254,-0.39219 0.360973,-0.38846 -0.218281,0.004 -0.627991,0.18159 -0.910466,0.39525 -0.660391,0.49949 -0.415455,0.49647 0.549493,-0.007 z m -3.477358,-0.92464 c 0.09269,-0.14998 -0.01351,-0.19434 -0.248969,-0.10398 -0.458368,0.17589 -0.542233,0.36553 -0.161648,0.36553 0.136932,0 0.32171,-0.1177 0.410617,-0.26155 z m -2.168716,-2.14716 c -0.201247,-0.20125 -0.341995,-0.18814 -0.486262,0.0453 -0.130879,0.21177 -0.09448,0.26142 0.102429,0.13973 0.168005,-0.10383 0.305463,-0.0428 0.305463,0.13551 0,0.17836 0.08136,0.24293 0.180799,0.1435 0.09944,-0.0994 0.05335,-0.30826 -0.102429,-0.46403 z m 13.679964,-2.92705 c 0,-0.3153 -0.08282,-0.49044 -0.184047,-0.38922 -0.285965,0.28597 -0.326117,0.96248 -0.05712,0.96248 0.132644,0 0.241172,-0.25797 0.241172,-0.57326 z m 0,-1.11413 c 0,-0.0549 -0.20836,-0.2633 -0.463021,-0.46302 -0.419644,-0.32911 -0.429002,-0.31975 -0.0999,0.0999 0.345644,0.44073 0.562916,0.58089 0.562916,0.36313 z m -8.995834,-1.10635 c 0,-0.22687 -0.119062,-0.3389 -0.264583,-0.24897 -0.145521,0.0899 -0.264583,0.27556 -0.264583,0.41249 0,0.13694 0.119062,0.24897 0.264583,0.24897 0.145521,0 0.264583,-0.18562 0.264583,-0.41249 z m 7.408334,-1.17501 c 0,-0.14552 -0.12609,-0.26458 -0.280199,-0.26458 -0.154109,0 -0.206613,0.11906 -0.116676,0.26458 0.08994,0.14552 0.216026,0.26459 0.280198,0.26459 0.06417,0 0.116677,-0.11907 0.116677,-0.26459 z m -4.7625,-2.64583 c 0,-0.14552 -0.0525,-0.26458 -0.116677,-0.26458 -0.06417,0 -0.190261,0.11906 -0.280198,0.26458 -0.08994,0.14552 -0.03743,0.26458 0.116676,0.26458 0.154109,0 0.280199,-0.11906 0.280199,-0.26458 z m 13.758333,9.92187 c -0.181157,-0.21828 -0.260679,-0.39687 -0.176715,-0.39687 0.08396,0 -0.144994,-0.29766 -0.508796,-0.66146 -0.363802,-0.3638 -0.760531,-0.66146 -0.881619,-0.66146 -0.121088,0 -0.355269,-0.16279 -0.520402,-0.36177 -0.228569,-0.27541 -0.203276,-0.44224 0.105951,-0.69888 0.334309,-0.27745 0.380785,-0.27089 0.262615,0.037 -0.0881,0.22958 0.172238,0.56072 0.67372,0.85695 0.449514,0.26554 0.751375,0.54872 0.670802,0.62929 -0.08057,0.0806 0.05061,0.29063 0.291524,0.46679 0.240913,0.17616 0.466652,0.51535 0.501643,0.75376 0.07867,0.53604 0.0014,0.5428 -0.418723,0.0366 z m 15.422492,-1.19062 c -0.0761,-0.29104 -0.31011,-0.52917 -0.52001,-0.52917 -0.20989,0 -0.30804,0.11907 -0.21811,0.26459 0.0899,0.14552 0.0247,0.26458 -0.14498,0.26458 -0.16968,0 -0.24331,-0.16989 -0.16363,-0.37753 0.0797,-0.20764 -0.0267,-0.51988 -0.23628,-0.69386 -0.20963,-0.17397 -0.38115,-0.43926 -0.38115,-0.58951 0,-0.15026 0.21774,-0.0762 0.48386,0.16468 0.26612,0.24084 0.60255,0.43789 0.74763,0.43789 0.39086,0 1.44823,1.20084 1.24038,1.40869 -0.3299,0.3299 -0.66819,0.18316 -0.80771,-0.35036 z m -15.2902,-0.26458 c -0.08994,-0.14552 -0.09315,-0.37845 -0.0071,-0.51762 0.217638,-0.35214 0.933183,-0.035 0.933183,0.41363 0,0.42304 -0.681553,0.49958 -0.926041,0.10399 z m 13.24983,-0.40873 c -0.0983,-0.39163 -0.11338,-0.77737 -0.0335,-0.85722 0.0798,-0.0798 0.14517,0.0433 0.14517,0.27376 0,0.23041 0.14883,0.47349 0.33073,0.54019 0.2456,0.0901 0.25423,0.20287 0.0335,0.43829 -0.22606,0.24117 -0.33995,0.14663 -0.4759,-0.39502 z m 2.9883,-0.0543 c -0.32911,-0.41965 -0.31975,-0.42901 0.0999,-0.0999 0.25466,0.19972 0.46302,0.40808 0.46302,0.46302 0,0.21776 -0.21727,0.0776 -0.56291,-0.36312 z m -17.03188,-0.59532 c -0.08994,-0.14552 0.0221,-0.26458 0.248968,-0.26458 0.22687,0 0.41249,0.11906 0.41249,0.26458 0,0.14552 -0.112036,0.26459 -0.248968,0.26459 -0.136933,0 -0.322553,-0.11907 -0.41249,-0.26459 z m 1.984375,0 c 0,-0.14552 0.178593,-0.26458 0.396875,-0.26458 0.218281,0 0.39687,0.11906 0.39687,0.26458 0,0.14552 -0.178589,0.26459 -0.39687,0.26459 -0.218282,0 -0.396875,-0.11907 -0.396875,-0.26459 z m 13.274525,-0.43872 c -0.13504,-0.24129 -0.5179,-0.45878 -0.8508,-0.48331 -0.3329,-0.0245 -0.63287,-0.23262 -0.6666,-0.46243 -0.0522,-0.35546 0.0697,-0.3405 0.81667,0.10019 1.00687,0.59407 1.66795,1.28427 1.23008,1.28427 -0.15611,0 -0.39431,-0.19742 -0.52935,-0.43872 z m -3.48089,-0.80305 c -0.004,-0.34038 1.00309,-1.13948 1.43661,-1.13948 0.14552,0 -0.0298,0.20146 -0.3896,0.44769 -0.3598,0.24622 -0.74166,0.57365 -0.84857,0.7276 -0.13069,0.1882 -0.19572,0.17646 -0.19844,-0.0358 z M 93.732869,155.7345 c 0.04553,-0.3139 -0.08262,-0.627 -0.284781,-0.69579 -0.245359,-0.0835 -0.29774,-0.0121 -0.157557,0.21473 0.142941,0.23128 0.105094,0.27495 -0.118516,0.13675 -0.228393,-0.14115 -0.24427,-0.28728 -0.05209,-0.47946 0.33879,-0.33879 1.172541,0.25734 0.923498,0.6603 -0.0898,0.1453 8.07e-4,0.36811 0.201351,0.49513 0.285618,0.18091 0.260694,0.23183 -0.115026,0.235 -0.341374,0.003 -0.455788,-0.16048 -0.396875,-0.56666 z m 15.382221,-0.92629 c 0.0958,-0.0958 0.0263,-0.36365 -0.15434,-0.59532 -0.29013,-0.37209 -0.27477,-0.37915 0.13167,-0.0605 0.41392,0.3245 0.41961,0.82992 0.009,0.82992 -0.0884,0 -0.0824,-0.0783 0.0133,-0.17409 z m -1.73316,-0.63929 c 0.32657,-0.3746 0.50338,-0.78739 0.39291,-0.91732 -0.11047,-0.12993 0.008,-0.0768 0.26216,0.11817 0.51858,0.39694 0.63286,0.69039 0.15348,0.39412 -0.20692,-0.12789 -0.25461,-0.0481 -0.14385,0.24049 0.0911,0.23749 0.0334,0.51355 -0.12821,0.61345 -0.17797,0.10999 -0.21944,0.0611 -0.10512,-0.12382 0.25128,-0.40658 -0.16856,-0.39015 -0.64546,0.0253 -0.20883,0.1819 -0.11249,0.0242 0.21409,-0.35036 z m -1.64955,-1.92436 c -0.40034,-0.29274 -0.42121,-0.39495 -0.11671,-0.57158 0.20394,-0.11831 0.28336,-0.11849 0.17648,-4.1e-4 -0.10687,0.11809 0.0122,0.37151 0.26459,0.56317 0.60623,0.46035 0.30437,0.46855 -0.32436,0.009 z m -2.73482,-2.40287 c -1.22896,-0.86896 -1.40192,-1.11732 -0.36418,-0.52294 0.48414,0.2773 1.00473,0.653 1.15688,0.8349 0.39102,0.46748 0.20751,0.39526 -0.7927,-0.31196 z m -18.467469,-2.06929 -0.504028,-0.59531 0.595313,0.50403 c 0.559446,0.47366 0.715761,0.6866 0.504027,0.6866 -0.05021,0 -0.318097,-0.26789 -0.595312,-0.59532 z m 15.541589,-0.6187 c -1.301047,-0.87617 -2.00359,-1.40606 -2.77983,-2.09667 -0.257683,-0.22926 -3.837438,-3.02887 -4.095674,-3.20309 -0.04967,-0.0335 -0.0099,-0.3143 0.0884,-0.62397 0.151725,-0.47804 0.241746,-0.511 0.596351,-0.21837 0.348918,0.28794 0.396517,0.28073 0.289229,-0.0438 -0.0708,-0.21417 0.226249,-0.71242 0.662038,-1.11045 0.633079,-0.57823 0.891122,-0.6681 1.296047,-0.45139 0.445913,0.23864 0.473202,0.21007 0.231208,-0.2421 -0.219102,-0.4094 -0.156506,-0.61586 0.310702,-1.02477 1.238885,-1.08432 1.45173,-1.19401 1.66074,-0.85582 0.120251,0.19457 0.08509,0.24931 -0.09045,0.14082 -0.15795,-0.0976 -0.356882,-0.0647 -0.442071,0.0731 -0.08519,0.13784 -0.04211,0.32032 0.09573,0.40551 0.137839,0.0852 0.326602,0.0319 0.419473,-0.11833 0.09287,-0.15027 0.271465,-0.2098 0.396875,-0.13229 0.12541,0.0775 0.302804,0.0199 0.394208,-0.12797 0.0914,-0.1479 -0.01943,-0.2689 -0.246301,-0.2689 -0.22687,0 -0.41249,-0.11907 -0.41249,-0.26459 0,-0.14552 0.126089,-0.26458 0.280198,-0.26458 0.154109,0 0.211067,-0.11186 0.126573,-0.24857 -0.08449,-0.13672 0.08306,-0.23074 0.372338,-0.20895 0.407888,0.0307 0.492269,0.17387 0.375874,0.63762 -0.187303,0.74628 0.616062,1.70205 0.961212,1.14357 0.11885,-0.1923 0.15484,-0.50927 0.08,-0.70436 -0.11143,-0.29038 0.99284,-0.35473 6.08784,-0.35473 4.73891,0 6.25255,0.0789 6.34374,0.33073 0.0958,0.26459 0.2318,0.26459 0.67992,0 0.7392,-0.43645 1.27079,-0.41847 1.45019,0.049 0.0926,0.24141 -0.3308,0.74316 -1.16232,1.37728 -0.71943,0.54864 -1.30805,1.10487 -1.30805,1.23605 0,0.13119 -0.18477,0.16762 -0.41061,0.081 -0.24155,-0.0927 -0.3422,-0.0469 -0.24445,0.11131 0.1048,0.16956 -0.12413,0.21772 -0.61984,0.13039 -0.77382,-0.13632 -1.3108,0.37271 -0.9718,0.92123 0.22496,0.36399 -1.36132,1.33672 -1.89646,1.16294 -0.34641,-0.1125 -0.38793,-0.0869 -0.14379,0.0886 0.27611,0.19849 0.26317,0.31322 -0.0661,0.58653 -0.34461,0.286 -0.41004,0.26136 -0.41345,-0.15565 -0.003,-0.4167 -0.0448,-0.43236 -0.26053,-0.0985 -0.24434,0.37808 -0.38817,0.16965 -0.27387,-0.39688 0.0294,-0.14552 -0.0394,-0.17184 -0.15271,-0.0585 -0.26407,0.26407 -0.37255,0.97539 -0.14412,0.945 0.55373,-0.0737 0.61032,0.0894 0.15825,0.45603 -0.28247,0.22907 -0.34637,0.32974 -0.14198,0.2237 0.24643,-0.12785 0.30712,-0.0884 0.18015,0.11699 -0.1053,0.17038 -0.29406,0.24636 -0.41947,0.16885 -0.12541,-0.0775 -0.29293,-0.0359 -0.37228,0.0925 -0.0793,0.12838 -0.47452,0.19413 -0.87817,0.14611 -0.40366,-0.048 -0.51924,-0.0221 -0.25685,0.0576 0.3765,0.11435 0.41201,0.22328 0.16846,0.51675 -0.16974,0.20452 -0.41714,0.30478 -0.54978,0.22281 -0.13263,-0.082 -0.21138,-0.0509 -0.17499,0.0691 0.087,0.28681 -1.22442,1.67331 -1.5827,1.67331 -0.15309,0 -0.3467,-0.14883 -0.43024,-0.33073 -0.0835,-0.1819 -0.0854,-0.0628 -0.004,0.26458 0.10592,0.42697 0.0304,0.59532 -0.26702,0.59532 -0.22809,0 -0.41471,0.11906 -0.41471,0.26458 0,0.48828 -0.6586,0.27126 -2.07834,-0.68485 z m 10.01584,-5.66515 c 0,-0.14552 -0.11906,-0.26458 -0.26458,-0.26458 -0.14552,0 -0.26459,0.11906 -0.26459,0.26458 0,0.14552 0.11907,0.26458 0.26459,0.26458 0.14552,0 0.26458,-0.11906 0.26458,-0.26458 z m -0.49542,-0.7276 c 0.32911,-0.41965 0.31975,-0.42901 -0.0999,-0.0999 -0.44073,0.34564 -0.58089,0.56292 -0.36313,0.56292 0.055,0 0.2633,-0.20836 0.46302,-0.46302 z m -9.02958,-1.12448 c 0,-0.14552 -0.11906,-0.26459 -0.26458,-0.26459 -0.14552,0 -0.26459,0.11907 -0.26459,0.26459 0,0.14552 0.11907,0.26458 0.26459,0.26458 0.14552,0 0.26458,-0.11906 0.26458,-0.26458 z m -2.354388,-0.49477 c 0.126291,0.19936 0.22962,0.24341 0.22962,0.0979 0,-0.43446 -0.362354,-0.86861 -0.785647,-0.94133 -0.571265,-0.0981 -1.347094,0.29128 -1.16555,0.58503 0.09232,0.14938 0.304316,0.12522 0.527647,-0.0601 0.303336,-0.25175 0.374828,-0.19216 0.381365,0.31788 0.0074,0.57971 0.03002,0.58988 0.295495,0.13294 0.232099,-0.39949 0.331666,-0.42496 0.51707,-0.13229 z m 15.854388,-1.19232 c -0.18472,-0.18472 -0.37599,-0.1649 -0.60156,0.0623 -0.26535,0.26731 -0.22611,0.29506 0.19844,0.14035 l 0.52916,-0.19283 -0.52916,0.64017 -0.52917,0.64018 0.60156,-0.50968 c 0.4103,-0.34764 0.51546,-0.5958 0.33073,-0.78053 z m -3.18125,2.92181 c 0,-0.19403 0.1767,-0.35278 0.39268,-0.35278 0.29723,0 0.32151,0.0858 0.0999,0.35278 -0.16103,0.19403 -0.33773,0.35278 -0.39267,0.35278 -0.055,0 -0.0999,-0.15875 -0.0999,-0.35278 z m -10.97992,-3.35093 c -0.08978,-0.14526 0.0192,-0.52458 0.24218,-0.84292 0.39861,-0.5691 0.40441,-0.56468 0.34605,0.26359 -0.0597,0.84712 -0.28536,1.06938 -0.58823,0.57933 z m 15.88173,-0.77293 c 0.52042,-0.63806 0.5204,-0.63954 -0.007,-0.44734 -0.42455,0.1547 -0.46378,0.12696 -0.19843,-0.14035 0.25723,-0.25914 0.40128,-0.26262 0.64822,-0.0157 0.53654,0.53653 0.61184,0.37116 0.51791,-1.13735 -0.058,-0.9315 0.0135,-1.45557 0.19844,-1.45557 0.15899,0 0.28907,-0.17859 0.28907,-0.39688 0,-0.21828 0.13879,-0.36711 0.30843,-0.33072 0.4149,0.089 0.72349,-1.33475 0.85293,-3.93516 0.10656,-2.14087 0.53903,-3.53609 0.96235,-3.10471 0.28822,0.29371 0.45798,8.56206 0.17578,8.56158 -0.11773,-2e-4 -0.14818,0.10623 -0.0677,0.2365 0.18841,0.30486 -0.60256,0.61393 -0.97775,0.38205 -0.17809,-0.11006 -0.22521,-0.019 -0.12512,0.24183 0.16449,0.42867 -0.45342,0.84845 -0.86997,0.59101 -0.12233,-0.0756 -0.30858,0.002 -0.41388,0.17231 -0.13021,0.21069 -0.0726,0.23984 0.18016,0.0911 0.20438,-0.12026 0.14099,0.0441 -0.14087,0.36533 -0.28186,0.32118 -0.6543,0.52955 -0.82765,0.46303 -0.17335,-0.0665 -0.47536,0.0186 -0.67113,0.1891 -0.19578,0.17053 -0.12099,0.022 0.16619,-0.33012 z m 2.77111,-2.46323 c 0,-0.15487 -0.16812,-0.12915 -0.39688,0.0607 -0.31787,0.26381 -0.39687,0.26148 -0.39687,-0.0117 0,-0.18759 -0.0715,-0.26962 -0.15879,-0.18229 -0.0873,0.0873 -0.0835,0.28057 0.008,0.42941 0.19911,0.32218 0.94406,0.0885 0.94406,-0.29612 z m -18.849916,1.47242 c 0.182808,-0.0737 0.263255,-0.24584 0.178771,-0.38254 -0.08448,-0.1367 -0.05546,-0.23149 0.0645,-0.21065 0.609965,0.10596 0.921945,-0.0619 0.783875,-0.42166 -0.21194,-0.55232 0.27676,-0.49911 0.59216,0.0645 0.23957,0.4281 0.30375,0.41856 0.8901,-0.13229 0.70915,-0.66621 1.0437,-0.76467 0.84578,-0.24891 -0.21762,0.56712 -1.63799,1.30607 -1.76693,0.91925 -0.0804,-0.2412 -0.29168,-0.20699 -0.80703,0.13068 -0.38396,0.25158 -0.791594,0.44802 -0.905854,0.43653 -0.114261,-0.0115 -0.05818,-0.0812 0.124631,-0.15489 z m 3.768666,-0.35339 c 0,-0.14552 0.11906,-0.26458 0.26458,-0.26458 0.14552,0 0.26458,0.11906 0.26458,0.26458 0,0.14552 -0.11906,0.26459 -0.26458,0.26459 -0.14552,0 -0.26458,-0.11907 -0.26458,-0.26459 z m 0.79375,-0.92604 c 0,-0.21828 0.11906,-0.39687 0.26458,-0.39687 0.14552,0 0.26458,0.17859 0.26458,0.39687 0,0.21828 -0.11906,0.39688 -0.26458,0.39688 -0.14552,0 -0.26458,-0.1786 -0.26458,-0.39688 z m -2.45518,-0.47247 c -0.0761,-0.19834 0.065,-0.34018 0.33851,-0.34018 0.27348,0 0.41462,0.14184 0.33851,0.34018 -0.0718,0.1871 -0.22413,0.34018 -0.33851,0.34018 -0.11438,0 -0.26671,-0.15308 -0.33851,-0.34018 z m 1.51509,-0.43084 c 0.10554,-0.17077 0.0328,-0.50673 -0.16161,-0.74657 -0.21327,-0.26307 -0.22956,-0.36173 -0.0411,-0.24868 0.17184,0.10307 0.38723,0.0664 0.47863,-0.0815 0.0914,-0.14789 0.30799,-0.26707 0.48131,-0.26485 0.2162,0.003 0.20493,0.0739 -0.0359,0.22661 -0.19307,0.12241 -0.31214,0.43566 -0.26458,0.69611 0.0476,0.26045 -0.0789,0.53111 -0.2811,0.60146 -0.23079,0.0803 -0.29615,0.0124 -0.17565,-0.18258 z m 1.11648,-0.19912 c -0.097,-0.097 -0.17639,-0.29942 -0.17639,-0.44979 0,-0.16579 0.12323,-0.15017 0.31309,0.0397 0.1722,0.1722 0.25157,0.3746 0.17639,0.44979 -0.0752,0.0752 -0.21608,0.0573 -0.31309,-0.0397 z m 0.88194,-2.31825 c 0,-0.23291 0.84222,-0.94494 1.11772,-0.94494 0.15739,0 0.0116,0.23812 -0.32397,0.52916 -0.61262,0.53133 -0.79375,0.6262 -0.79375,0.41578 z m 2.96613,-2.42684 c -0.18764,-0.2036 -0.22443,-0.37019 -0.0818,-0.37019 0.27476,0 0.6725,0.5033 0.51556,0.65238 -0.051,0.0484 -0.24616,-0.0786 -0.4338,-0.28219 z m 1.16483,-2.0061 c 0.0764,-0.12364 0.24977,-0.1563 0.38524,-0.0726 0.34618,0.21395 0.3072,0.29738 -0.13893,0.29738 -0.21188,0 -0.32272,-0.10116 -0.24631,-0.2248 z m 2.74821,-1.90357 c 0,-0.0549 0.20836,-0.2633 0.46302,-0.46302 0.41964,-0.3291 0.429,-0.31975 0.0999,0.0999 -0.34564,0.44073 -0.56291,0.58089 -0.56291,0.36312 z"
         id="path2" /><path
         style="fill:#0000ff;fill-opacity:1"
         d="m 81.924972,162.26676 c 0.282475,-0.21366 0.692185,-0.39152 0.910466,-0.39525 0.218281,-0.004 0.05584,0.17108 -0.360973,0.38846 -0.964948,0.50326 -1.209884,0.50628 -0.549493,0.007 z m -3.587451,-0.77386 c 0,-0.0572 0.184778,-0.17489 0.410617,-0.26155 0.23546,-0.0904 0.341662,-0.046 0.248969,0.10398 -0.155379,0.25141 -0.659586,0.37186 -0.659586,0.15757 z m 7.216036,-1.48966 c -0.02124,-0.28193 0.05257,-0.56896 0.164013,-0.63783 0.111444,-0.0689 0.185668,0.10494 0.164942,0.38627 -0.05182,0.70336 -0.281681,0.87914 -0.328955,0.25156 z m -8.803536,-0.49454 c 0,-0.17836 -0.137458,-0.23934 -0.305463,-0.13551 -0.196907,0.12169 -0.233308,0.072 -0.102429,-0.13973 0.144267,-0.23343 0.285015,-0.24654 0.486262,-0.0453 0.155775,0.15577 0.201868,0.36459 0.102429,0.46403 -0.09944,0.0994 -0.180799,0.0349 -0.180799,-0.1435 z m 13.329556,-3.03929 c 0.03338,-0.2274 0.134571,-0.48735 0.224878,-0.57765 0.09031,-0.0903 0.136886,0.0219 0.10351,0.24926 -0.03338,0.22741 -0.13457,0.48735 -0.224877,0.57766 -0.09031,0.0903 -0.136886,-0.0219 -0.103511,-0.24927 z m 0.781555,-0.56107 c 0,-0.19053 0.160101,-0.28499 0.355779,-0.2099 0.240521,0.0923 0.302779,-0.002 0.192178,-0.28981 -0.08998,-0.23448 -0.269923,-0.42633 -0.399875,-0.42633 -0.129952,0 -0.236276,-0.13752 -0.236276,-0.30559 0,-0.18269 0.194848,-0.12926 0.484492,0.13287 0.266471,0.24115 0.580255,0.3489 0.697298,0.23944 0.117042,-0.10946 0.08092,0.0549 -0.08027,0.36517 -0.345612,0.66533 -1.013329,0.99094 -1.013329,0.49415 z m -0.915693,-1.12448 c -0.329107,-0.41964 -0.319749,-0.429 0.0999,-0.0999 0.254661,0.19972 0.463021,0.40808 0.463021,0.46302 0,0.21776 -0.217272,0.0776 -0.562916,-0.36313 z m -8.812782,-0.67287 c 0.09936,-0.26093 0.247304,-0.40778 0.328766,-0.32632 0.08146,0.0815 1.68e-4,0.29496 -0.180653,0.47443 -0.261307,0.25937 -0.291698,0.22898 -0.148113,-0.14811 z m 7.391323,-1.24536 c -0.08994,-0.14552 -0.03743,-0.26458 0.116676,-0.26458 0.154109,0 0.280199,0.11906 0.280199,0.26458 0,0.14552 -0.0525,0.26459 -0.116677,0.26459 -0.06417,0 -0.190261,-0.11907 -0.280198,-0.26459 z"
         id="path1" /></g></g></svg>
